<svg xmlns="http://www.w3.org/2000/svg" width="100" height="100" viewBox="0 0 100 100">
  <g id="Groupe_327" data-name="Groupe 327" transform="translate(-153.5 -1102.5)">
    <rect id="Rectangle_105" data-name="Rectangle 105" width="100" height="100" transform="translate(153.5 1102.5)" fill="none"/>
    <g id="Groupe_320" data-name="Groupe 320" transform="translate(165.476 1114.476)">
      <g id="Groupe_319" data-name="Groupe 319">
        <g id="Groupe_318" data-name="Groupe 318">
          <path id="Tracé_2288" data-name="Tracé 2288" d="M110.111,215.056a1.723,1.723,0,0,0-3.445,0c0,4.524,4.99,10.735,5.558,11.429a1.724,1.724,0,1,0,2.665-2.187C113.042,222.047,110.111,217.549,110.111,215.056Z" transform="translate(-89.696 -179.436)" fill="#fff"/>
          <path id="Tracé_2289" data-name="Tracé 2289" d="M316.227,213.333a1.722,1.722,0,0,0-1.723,1.723c0,2.485-2.931,6.988-4.778,9.244a1.723,1.723,0,0,0,2.665,2.185c.569-.695,5.558-6.906,5.558-11.429A1.722,1.722,0,0,0,316.227,213.333Z" transform="translate(-260.123 -179.436)" fill="#fff"/>
          <path id="Tracé_2290" data-name="Tracé 2290" d="M225.723,213.333A1.722,1.722,0,0,0,224,215.056v10.336a1.723,1.723,0,1,0,3.445,0V215.056A1.722,1.722,0,0,0,225.723,213.333Z" transform="translate(-188.325 -179.436)" fill="#fff"/>
          <path id="Tracé_2291" data-name="Tracé 2291" d="M56.1,6.8a17.8,17.8,0,0,0-3.225.344,20.332,20.332,0,0,0-30.949,0A17.822,17.822,0,0,0,18.7,6.8a18.692,18.692,0,0,0-8.46,35.363l-.033,25.69A6.937,6.937,0,0,0,17.142,74.8H57.661A6.943,6.943,0,0,0,64.6,67.86V42.138A18.689,18.689,0,0,0,56.1,6.8Zm5.1,61.061A3.541,3.541,0,0,1,57.661,71.4H17.142a3.537,3.537,0,0,1-3.536-3.541l.009-6.659H61.2Zm1.052-28.369a1.524,1.524,0,0,0-.254.131,1.7,1.7,0,0,0-.78,1.193,1.644,1.644,0,0,0-.018.286V57.8H13.619l.022-16.672a1.75,1.75,0,0,0-.017-.279,1.7,1.7,0,0,0-.269-.7,1.684,1.684,0,0,0-.5-.493,1.78,1.78,0,0,0-.267-.138A15.292,15.292,0,0,1,18.7,10.2c.33,0,.678.04,1.019.067A20.251,20.251,0,0,0,17,20.4a1.7,1.7,0,1,0,3.4,0,17,17,0,1,1,34,0,1.7,1.7,0,0,0,3.4,0,20.252,20.252,0,0,0-2.719-10.133c.342-.027.69-.067,1.019-.067a15.29,15.29,0,0,1,6.152,29.292Z" fill="#fff"/>
        </g>
      </g>
    </g>
  </g>
</svg>
