<svg xmlns="http://www.w3.org/2000/svg" width="100" height="100" viewBox="0 0 100 100">
  <g id="Groupe_331" data-name="Groupe 331" transform="translate(-970.5 -1528.5)">
    <rect id="Rectangle_108" data-name="Rectangle 108" width="100" height="100" transform="translate(970.5 1528.5)" fill="none"/>
    <g id="Groupe_326" data-name="Groupe 326" transform="translate(984.852 1530.376)">
      <g id="Capa_1" data-name="Capa 1" transform="translate(0)">
        <g id="Groupe_325" data-name="Groupe 325">
          <path id="Tracé_2316" data-name="Tracé 2316" d="M145.666,64.444c.676-1.069,1.288-2.176,1.9-3.287a3.792,3.792,0,0,0,.432-1.191,2.524,2.524,0,0,0,.028-.263,1.824,1.824,0,0,0-.164-.894,2.589,2.589,0,0,0-1.222-1.1,6.223,6.223,0,0,0-1.833-.593,6.446,6.446,0,0,0-.723-.076c-.154-.007-.352-.015-.572-.015a2.949,2.949,0,0,0-1.924.462c-.212.227-.028.319.139.587a17.257,17.257,0,0,1,1.346,3.254c.149.406,1.593,3.276,2.342,3.276A.293.293,0,0,0,145.666,64.444Z" transform="translate(-130.133 -47.39)" fill="#fff"/>
          <path id="Tracé_2317" data-name="Tracé 2317" d="M84.017,96.3h-.133a.337.337,0,0,0-.085.007,34.238,34.238,0,0,1-3.843.929,3.217,3.217,0,0,1-.437.036,1.062,1.062,0,0,1-1.109-1.282c.035-.429.361-.778.383-1.2a1.356,1.356,0,0,0-.612-1.072c-.439-.316-.978-.46-1.447-.731a3.045,3.045,0,0,1-1.3-1.577,3.537,3.537,0,0,1,.036-2.129,1.394,1.394,0,0,0-.141-.933c-.2-.33-.393-.458-.58-.458-.477,0-.891.837-1.1,1.275a5.038,5.038,0,0,0-.27,3.323,9.144,9.144,0,0,0,2.264,3.856c1.015,1.113,2.169,2.091,3.2,3.185a6.578,6.578,0,0,0,1.243,1.138,2.06,2.06,0,0,0,1.092.307,2.224,2.224,0,0,0,1.894-1.057.462.462,0,0,0,.062-.151c.083-.458.148-.92.247-1.376.09-.412.207-.818.327-1.223C83.8,96.889,83.905,96.614,84.017,96.3Z" transform="translate(-73.217 -73.223)" fill="#fff"/>
          <path id="Tracé_2318" data-name="Tracé 2318" d="M95.282,94.006A29.6,29.6,0,0,0,96.4,90.94c-.306.1-.512.152-.71.228a2.154,2.154,0,0,1-.763.164,1.219,1.219,0,0,1-.89-.374,2.658,2.658,0,0,1-.55-.747c-.261-.566-.466-1.159-.71-1.781-.065.108-.131.2-.183.3a4.721,4.721,0,0,0-.321,1.868,2.258,2.258,0,0,0,.723,1.963c.366.309.585.507.828.507.191,0,.4-.122.7-.408.244-.231.452-.5.677-.751l.051.026c-.159.517-.319,1.033-.484,1.574Z" transform="translate(-89.045 -73.655)" fill="#fff"/>
          <path id="Tracé_2319" data-name="Tracé 2319" d="M166.39,119.259h0c1.01-.8,1.855-1.44,2.772-2.175a2.942,2.942,0,0,0,1.121-2.875c-.14-.961-.434-1.781-.658-2.791h-.087c-.334.606-.633,1.282-1.012,1.915a18.132,18.132,0,0,1-3.593,4.324,17.491,17.491,0,0,1-2.045,1.555c-.727.473-1.5.843-2.255,1.269-.205.116-.453.235-.376.548a9.491,9.491,0,0,0,.933,2.615,3.007,3.007,0,0,0,.984,1.176h0a.786.786,0,0,0,.283.056.643.643,0,0,0,.194-.029.892.892,0,0,0,.351-.231l0,0a1.4,1.4,0,0,0,.13-.179c.221-.361.44-.723.655-1.087l0,0,.04-.082c.317-.652.644-1.3,1.014-1.919l.009-.016a5.933,5.933,0,0,1,1.407-1.9c.064-.051.118-.129.182-.129h-.02S166.39,119.259,166.39,119.259Z" transform="translate(-145.779 -92.821)" fill="#fff"/>
          <path id="Tracé_2320" data-name="Tracé 2320" d="M82.657,18.5a1.8,1.8,0,0,1,.268-.218,5.369,5.369,0,0,1-.2.74c-.276.616-.622,1.205-.847,1.839a4.523,4.523,0,0,0-.117,1.234c.21-.024.3-.14.462-.273a3.585,3.585,0,0,1,2-.8c.08-.006.161-.008.242-.008a3.582,3.582,0,0,1,1.284.24,15.872,15.872,0,0,1,1.425.776c.369.187.737.379,1.121.532a1.878,1.878,0,0,0,.712.136,3.744,3.744,0,0,0,1.291-.3c.119-.045.233-.1.357-.161a9.54,9.54,0,0,1-1.5-.723c-.479-.317-.923-.682-1.378-1.033a5.994,5.994,0,0,0-2.489-1.3c-.366-.067-.783-.174-.771-.634a4.742,4.742,0,0,1,1.046-.15c.066,0,.131,0,.2.008h.089a1.733,1.733,0,0,1,.786.2,2.736,2.736,0,0,1,.288.169c.478.32.9.781,1.315,1.116a12.352,12.352,0,0,0,2.592,1.626q.2.089.394.17c.041.017.083.031.125.047a13.532,13.532,0,0,0,1.571.5c.294.075.589.143.885.208a4.187,4.187,0,0,0,.788.176.547.547,0,0,0,.078-.005c-.009-.083-.166-.16-.239-.2-.481-.259-.982-.486-1.442-.777q-1.562-.987-3.113-1.99a23.389,23.389,0,0,1-2.193-1.688c-.217-.179-.435-.357-.657-.531A6.59,6.59,0,0,0,83.7,15.868c-.105-.01-.211-.015-.317-.015a3.5,3.5,0,0,0-1.252.232c-.056.022-.112.046-.167.071a2.566,2.566,0,0,0-1.35,1.317,21.494,21.494,0,0,0-1.425,4.991c-.262,1.733-.435,4.309,1.684,4.935l.014,0c.09,0,.152-.271.192-.622a10.926,10.926,0,0,0,.057-1.531c-.121-.76-.507-1.416-.567-2.2a3.87,3.87,0,0,1,.628-2.574C81.671,19.811,82.167,19.158,82.657,18.5Z" transform="translate(-78.056 -13.175)" fill="#fff"/>
          <path id="Tracé_2321" data-name="Tracé 2321" d="M88.935,17.711l-.03.008a1.989,1.989,0,0,0-1.043.8,4.079,4.079,0,0,0-.233.46c-.011.039-.021.078-.031.119l-.009.04a3.234,3.234,0,0,1,.289-.618A1.982,1.982,0,0,1,88.935,17.711Z" transform="translate(-85.162 -14.719)" fill="#fff"/>
          <path id="Tracé_2322" data-name="Tracé 2322" d="M142.537,87.415a28.1,28.1,0,0,0,2.27-2.133q.543-.57,1.053-1.17c.324-.381.586-.778.878-1.178a10.556,10.556,0,0,0,1.4-2.724c.053-.147.1-.3.137-.459l-.092-.082c-1.614-1.421-3.222-2.839-4.861-4.222-1.31,3.451-3.555,6.281-5.9,9.208-.288.414-.56.838-.811,1.276a10.653,10.653,0,0,0-1.192,2.973,6.431,6.431,0,0,0-.049,3.02,1.594,1.594,0,0,0,.453.847,13.816,13.816,0,0,0,.577-2.011c.184-.688.366-1.376.578-2.055a15.072,15.072,0,0,1,.968-2.436,9.464,9.464,0,0,1,.684-1.131,6.653,6.653,0,0,1,.868-.9c.042-.041.088-.115.132-.115.017,0,.034.011.051.038a4.029,4.029,0,0,1-.371.694q-.187.365-.359.737-.345.744-.632,1.513a24.67,24.67,0,0,0-.872,3.014c-.043.184-.064.574-.2.719a.666.666,0,0,0,.1-.01l.01,0a15.536,15.536,0,0,0,2.732-1.574A27.688,27.688,0,0,0,142.537,87.415Zm-6.674,5.237-.009.013a.393.393,0,0,0,.014-.076C135.867,92.609,135.865,92.631,135.863,92.651Z" transform="translate(-124.741 -62.701)" fill="#fff"/>
          <path id="Tracé_2323" data-name="Tracé 2323" d="M100.691,66.824h.023a1.483,1.483,0,0,1,.695.294h.026c.1,0,.124-.083.114-.189v-.005s0,0,0,0c-.136-.468-.322-.921-.488-1.379-.094-.259-.18-.839-.513-.839a.423.423,0,0,0-.2.056,2.588,2.588,0,0,0-.262.186,1.2,1.2,0,0,1-.618.212h-.013a2.288,2.288,0,0,1-.311-.053.983.983,0,0,0-.174-.02.177.177,0,0,0-.144.048.01.01,0,0,0,0,0c-.025.311.006.625-.016.943-.025.374-.082.745-.094,1.119a5.581,5.581,0,0,0,.863,3.192,1.3,1.3,0,0,0,.673.519.975.975,0,0,0,.271.038,1.22,1.22,0,0,0,.779-.3,2.569,2.569,0,0,0,.625-2.164.931.931,0,0,0-.226-.616.555.555,0,0,0-.385-.146.608.608,0,0,0-.318.088.734.734,0,0,0-.327.646c.015.413.31.641.6.88a.442.442,0,0,1-.14.022.6.6,0,0,1-.291-.082,1.12,1.12,0,0,1-.324-.306,2.466,2.466,0,0,1-.464-1.077,1.067,1.067,0,0,1,.118-.788A.68.68,0,0,1,100.691,66.824Z" transform="translate(-94.406 -53.774)" fill="#fff"/>
          <path id="Tracé_2324" data-name="Tracé 2324" d="M113.19,74.5a2.014,2.014,0,0,1,.419.045c.378.08.739.238,1.112.345a1.216,1.216,0,0,0,.33.062.519.519,0,0,0,.426-.23,16.816,16.816,0,0,1,1.292-1.389c.306-.306.292-.367,0-.684a19.788,19.788,0,0,1-1.3-1.563c-.489-.654-.91-1.36-1.409-2.006-.4-.52-.866-.991-1.315-1.472a9.784,9.784,0,0,0-2.485-1.955,2.2,2.2,0,0,0-.69-.168c.189.032.529,1.076.6,1.257a9.771,9.771,0,0,1,.428,1.41,10.325,10.325,0,0,1,.222,2.936,10.778,10.778,0,0,1-1.994,5.32.851.851,0,0,0,.246,1.138,1.808,1.808,0,0,0,.793.2,1.49,1.49,0,0,0,.351-.042c.529-.128,1.054-.271,1.581-.406.686-.175,1.373-.346,2.059-.524a.3.3,0,0,0,.166-.092c.282-.4.556-.805.858-1.248a3.641,3.641,0,0,0-1.1-.173,6.011,6.011,0,0,0-2.847.933,10.839,10.839,0,0,1,.964-1.128A1.793,1.793,0,0,1,113.19,74.5Zm-3.5,1.924a3.7,3.7,0,0,1,.314-.619,11.437,11.437,0,0,0,1.742-3.133,8.764,8.764,0,0,0,.445-3.166c-.011-.45-.1-.9-.164-1.409a1.888,1.888,0,0,1,.95,1.243,5.154,5.154,0,0,1,.272,1.978,4.379,4.379,0,0,1-1.374,2.908C111.113,74.909,110.443,75.69,109.686,76.426Z" transform="translate(-102.708 -54.425)" fill="#fff"/>
          <path id="Tracé_2325" data-name="Tracé 2325" d="M110.253,60.536l-.014-.021a3.323,3.323,0,0,0-.428-.412,8.379,8.379,0,0,1-1.395-1.69,13.75,13.75,0,0,1-.726-1.815,6.706,6.706,0,0,0-5.1-4.656,4.186,4.186,0,0,0-1.095-.185,1.964,1.964,0,0,0-.457.054c-.481.115-1.549,1.12-.99,1.645a.531.531,0,0,0,.376.129c.395,0,.908-.23,1.212-.23h0a4.557,4.557,0,0,1,2.338.686,9.609,9.609,0,0,1,2.7,2.743c.567.793,1.1,1.615,1.712,2.372.533.654,1.118,1.5,2,1.683C110.346,60.828,110.283,60.581,110.253,60.536Z" transform="translate(-95.383 -43.013)" fill="#fff"/>
          <path id="Tracé_2326" data-name="Tracé 2326" d="M148.581,9.619a1.511,1.511,0,0,1,1.049-.4,3.118,3.118,0,0,1,1.146.262.783.783,0,0,0-.009-.144,12.012,12.012,0,0,0-1.99-3.3c-.4-.559-.793-1.123-1.149-1.709A12.571,12.571,0,0,1,146.144.5c-.073-.331-.221-.5-.449-.5a.842.842,0,0,0-.371.108c-.348.176-.672.4-1.01.593a8.343,8.343,0,0,0-1.856,1.644c-.535.574-1.619,1.828-1.188,2.661a2.7,2.7,0,0,0,.976.92c.118.078.491.315,1,.638,1.752,1.12,5.1,3.285,4.95,3.537A2.078,2.078,0,0,1,148.581,9.619Z" transform="translate(-129.875)" fill="#fff"/>
          <path id="Tracé_2327" data-name="Tracé 2327" d="M188.171,67.9a6.9,6.9,0,0,0-.552-4.609l-.027-.02a4.276,4.276,0,0,0-1.434-1.618,3.126,3.126,0,0,0-1.362-.383l-.078-.062h0a1,1,0,0,0-.787.309.684.684,0,0,0-.119.252,18.038,18.038,0,0,1-.589,1.836c1.639,1.383,3.247,2.8,4.861,4.226C188.11,67.863,188.14,67.878,188.171,67.9Zm-1.72-5.429c-.344-.234-.69-.47-1.037-.725C185.761,61.99,186.107,62.23,186.451,62.476Z" transform="translate(-164.914 -50.871)" fill="#fff"/>
          <path id="Tracé_2328" data-name="Tracé 2328" d="M287.761,79.642a.348.348,0,0,0-.24-.1.3.3,0,0,0-.079.011.273.273,0,0,0-.2.255.426.426,0,0,0,.139.267,1.255,1.255,0,0,0,.844.464.689.689,0,0,0,.081-.005.531.531,0,0,0,.414-.275.6.6,0,0,0,.033-.39,2.566,2.566,0,0,0-.812-1.283c-.13-.112-.274-.213-.408-.32-.114-.091-.211-.209-.324-.3,0,0,0-.021,0-.021h0c-.037,0-.073.068-.105.12a1.367,1.367,0,0,1-.082.147.547.547,0,0,1-.263.143,1.194,1.194,0,0,0-.144.031c-.245.087-.024.351.045.482.1.2.2.4.315.592h0l0,0a.1.1,0,0,0,.063.038.053.053,0,0,0,.043-.026v0a.646.646,0,0,1,.123-.333.313.313,0,0,1,.219-.09l.038,0a.489.489,0,0,1,.3.2,1.135,1.135,0,0,1,.22.49.517.517,0,0,1,0,.2.247.247,0,0,1-.114.164A.558.558,0,0,0,287.761,79.642Z" transform="translate(-250.985 -64.779)" fill="#fff"/>
          <path id="Tracé_2329" data-name="Tracé 2329" d="M273.393,131.217a3.675,3.675,0,0,1,.834.135l.011,0c.325.067.646.159.964.254.013,0,.027.011.041.015s0,.007,0,.007c.19.041.38.092.571.129.033.006.067.038.1.038h0a.409.409,0,0,0,.187-.073.394.394,0,0,0,.139-.2h0a1.378,1.378,0,0,0-.093-.7,4.362,4.362,0,0,0-.6-1.126.162.162,0,0,0-.142-.08.542.542,0,0,0-.16.037c-.377.123-.745.268-1.13.368a8.367,8.367,0,0,1-2.025.252,8.509,8.509,0,0,1-1.605-.157l-.116-.021a4.857,4.857,0,0,1-.978-.267l-.028.031c.377.485.476.757.758,1.1a1.39,1.39,0,0,0,1.1.558,1.492,1.492,0,0,0,.228-.018c.113-.017.224-.038.336-.058a11.058,11.058,0,0,1,1.247-.192h0s0,0,0,0l.109-.019A1.545,1.545,0,0,1,273.393,131.217Z" transform="translate(-236.744 -107.958)" fill="#fff"/>
          <path id="Tracé_2330" data-name="Tracé 2330" d="M298.681,83.873a2.168,2.168,0,0,0-.731-.47c-.05-.014-.1-.02-.159-.032.135.275.271.528.382.792a1.212,1.212,0,0,1,.082.418.654.654,0,0,1-.441.624c-.087.043-.169.1-.3.169a13.584,13.584,0,0,0,1.382.573c0-.13-.006-.239-.008-.327l-.682-.324c0-.008,0-.017.007-.025.109,0,.219.008.328.008.045,0,.09,0,.135,0,.435-.033.425-.155.44-.548A1.037,1.037,0,0,0,298.681,83.873Z" transform="translate(-260.166 -69.286)" fill="#fff"/>
          <path id="Tracé_2331" data-name="Tracé 2331" d="M265.549,61.765a3.022,3.022,0,0,0-.5,1.607c-.043.552-.039,1.1-.133,1.651s-.191,1.113-.292,1.669c-.044.246-.123.486-.184.728-.009.037-.032.114-.006.143a1.378,1.378,0,0,0,.211-.346c.07-.12.138-.241.2-.364a6.081,6.081,0,0,0,.342-.741c.023-.062.044-.123.065-.186a5.682,5.682,0,0,0,.253-1.38c.027-.416-.069-.95.25-1.281l.016-.016a1.885,1.885,0,0,1,.433-.377c.159.139.067.312-.024.457a2.749,2.749,0,0,0-.332,1.244c-.022.262-.037.526-.078.786a4.365,4.365,0,0,1-.22.73c.058-.025.113-.045.165-.071a1.227,1.227,0,0,0,.675-.628c.067-.177.116-.361.167-.544a7.28,7.28,0,0,1,.179-.722,1.629,1.629,0,0,1,1.286-1.017.384.384,0,0,0,.236-.071,2.081,2.081,0,0,0-.453-.343c-.284-.12-.59-.186-.884-.283a2.455,2.455,0,0,1-.313-.161,1.461,1.461,0,0,1,.144-.024h.012c.373.037.748.072,1.12.119a1.774,1.774,0,0,1,1.065.585c.245.262.347.6.567.872a4.99,4.99,0,0,0,.535.455.656.656,0,0,0,.248.136.025.025,0,0,0,.025-.013c.445-.91-.48-1.65-1.147-2.1a9.856,9.856,0,0,0-2.129-1.065,1.052,1.052,0,0,0-.357-.061A1.5,1.5,0,0,0,265.549,61.765Z" transform="translate(-232.61 -50.826)" fill="#fff"/>
          <path id="Tracé_2332" data-name="Tracé 2332" d="M276.044,60.914l-.016-.009-.05-.027a1.875,1.875,0,0,0-.228-.064.781.781,0,0,0-.146-.014.978.978,0,0,0-.447.119l-.012.008a.971.971,0,0,1,.451-.121.8.8,0,0,1,.15.014A1.5,1.5,0,0,1,276.044,60.914Z" transform="translate(-241.514 -50.529)" fill="#fff"/>
          <path id="Tracé_2333" data-name="Tracé 2333" d="M248.347,78.361h-.055a3.823,3.823,0,0,0-1.131.118c-.171.053-.346.095-.513.158-.215.081-.253.212-.123.4a5.764,5.764,0,0,1,.837,1.69c.088.3.156.61.222.918a5.511,5.511,0,0,0,.5,1.695.391.391,0,0,0,.046.048c.155-.415.392-.705.8-.705a1.026,1.026,0,0,1,.207.022,20.573,20.573,0,0,1,.43-3.3,1.239,1.239,0,0,0-.009-.615C249.42,78.4,248.724,78.361,248.347,78.361Z" transform="translate(-217.612 -65.123)" fill="#fff"/>
          <path id="Tracé_2334" data-name="Tracé 2334" d="M279.1,81.293l0,.011c.006.024.07.122.059.141a1.826,1.826,0,0,0,.051-1.2c-.065-.443-.179-.876-.272-1.313a4.422,4.422,0,0,1-.093-1.767,2.112,2.112,0,0,1,.49-1.006c.128-.141.534-.276.531-.5,0-.2-.219-.27-.441-.27a.853.853,0,0,0-.421.1,1.442,1.442,0,0,0-.436.566,3.075,3.075,0,0,0-.006,3.167,6.335,6.335,0,0,1,.389.808,3.842,3.842,0,0,1,.139,1A1.511,1.511,0,0,0,279.1,81.293Z" transform="translate(-244.008 -62.653)" fill="#fff"/>
          <path id="Tracé_2335" data-name="Tracé 2335" d="M285.975,87.4c.243.035.466.068.688.1h.007a.155.155,0,0,0,.075-.028c.272-.177.543-.356.815-.534.209-.136.42-.269.627-.409a.768.768,0,0,0,.3-.435.39.39,0,0,0-.308-.436,4.943,4.943,0,0,1-2.417-.974,4.743,4.743,0,0,1-.924-.985,4.471,4.471,0,0,1-.344-.581c-.039-.08-.287-.518-.24-.592a1,1,0,0,0-.157.285,4.486,4.486,0,0,0-.109,1.446c.024.3.039.6.09.9.064.369.172.73.242,1.1a9.072,9.072,0,0,1,.125.925c.015.176.029.214.172.214l.059,0c.184-.008.368-.017.552-.017.106,0,.212,0,.318.01h.028c.153,0,.208-.094.263-.2.079-.159.138-.331.228-.483a.82.82,0,0,1,.708-.419c.056,0,.111,0,.167,0,.169,0,.339.009.514.027A2.223,2.223,0,0,0,285.975,87.4Zm.523-1.391c-.06.006-.119.009-.178.009a2.065,2.065,0,0,1-1.231-.445,2.366,2.366,0,0,1-.585-.7.865.865,0,0,1-.126-.706c.154.18.277.349.426.492a4.025,4.025,0,0,0,1.209.83,5.247,5.247,0,0,0,1.6.381,1.709,1.709,0,0,1,.307.086C287.435,85.983,286.963,85.967,286.5,86.013Z" transform="translate(-248.901 -68.584)" fill="#fff"/>
          <path id="Tracé_2336" data-name="Tracé 2336" d="M267.458,90.164c-.039-.139-.013-.263-.153-.263h0c-.322,0-.738.515-.924.738a3.027,3.027,0,0,0-.566,1.105,1.185,1.185,0,0,0-.006.754.886.886,0,0,0,.349.4,1.735,1.735,0,0,0,.537.222c.564.139,1.128.272,1.7.375a.185.185,0,0,0,.038,0c.438,0-.186-1.661-.287-1.855A8.06,8.06,0,0,1,267.458,90.164Z" transform="translate(-233.694 -74.713)" fill="#fff"/>
          <path id="Tracé_2337" data-name="Tracé 2337" d="M305.39,84.168a3.036,3.036,0,0,0,0-.773c-.049-.689-.022-1.382-.084-2.07a4.2,4.2,0,0,0-.6-1.96,2.311,2.311,0,0,0-1.207-.938,1.946,1.946,0,0,0-.524-.1c-.212,0-.37.091-.272.419a.639.639,0,0,0,.272.337c.314.207.546.287.731.648a1.4,1.4,0,0,1,.13.929c-.054.242-.172.469-.2.716a.622.622,0,0,0,.173.539c.149.123.368.12.524.242a.549.549,0,0,1,.227.532.751.751,0,0,1-.285.377,15.725,15.725,0,0,1-1.5,1.012.6.6,0,0,0-.07.071c.141.06.268.108.39.167.174.085.348.171.515.268.184.108.361.229.542.343a.215.215,0,0,0,.07.026.97.97,0,0,0,.192.019A1,1,0,0,0,305.39,84.168Z" transform="translate(-264.469 -65.09)" fill="#fff"/>
          <path id="Tracé_2338" data-name="Tracé 2338" d="M267.83,109.939a.73.73,0,0,0-.146-.416,2.947,2.947,0,0,0-1.037-.919,4.886,4.886,0,0,0-1.375-.518c-.226-.051-.454-.09-.683-.121a13.763,13.763,0,0,1-5.742-1.226.281.281,0,0,0-.117-.033h-.015c-.316,0-.6.552-.64.788a1.813,1.813,0,0,0,.011.646,3.044,3.044,0,0,0,1.681,2.071,5.451,5.451,0,0,0,.7.243,4.329,4.329,0,0,0,.656.127c.226.025.441.059.671.067.158.006.316.008.474.008.082,0,.165,0,.248,0a12.612,12.612,0,0,0,2.8-.373,7.158,7.158,0,0,0,1.379-.448s0-.026,0-.027.018.121.036-.081h0a.774.774,0,0,1-.3-.106,10.946,10.946,0,0,0-1.289-.59q-.349-.141-.708-.255-.179-.057-.361-.107a1.84,1.84,0,0,1-.35-.09c-.01-.034.013-.039.041-.039h.042c.138-.008.269-.024.4-.024a1.386,1.386,0,0,1,.172.01,4.291,4.291,0,0,1,.594.119,6.923,6.923,0,0,1,1.124.427c.3.139.585.291.874.441A6.387,6.387,0,0,0,267.83,109.939Zm-.045-.024h-.007l-.023-.018A.186.186,0,0,0,267.785,109.915Z" transform="translate(-227.331 -88.873)" fill="#fff"/>
          <path id="Tracé_2339" data-name="Tracé 2339" d="M361.577,352.986l-.014-.008-.044-.023a1.644,1.644,0,0,0-.2-.056.664.664,0,0,0-.128-.012.858.858,0,0,0-.393.1l-.01.007a.85.85,0,0,1,.4-.106.686.686,0,0,1,.131.013A1.277,1.277,0,0,1,361.577,352.986Z" transform="translate(-312.892 -293.889)" fill="#fff"/>
          <path id="Tracé_2340" data-name="Tracé 2340" d="M370.288,376.221c.214.031.408.059.6.084h.007a.133.133,0,0,0,.066-.025c.239-.155.477-.312.715-.468.183-.12.368-.236.55-.359a.673.673,0,0,0,.265-.382.342.342,0,0,0-.271-.382,4.333,4.333,0,0,1-2.12-.854,4.158,4.158,0,0,1-.81-.864,3.935,3.935,0,0,1-.3-.51c-.034-.07-.252-.454-.21-.52a.891.891,0,0,0-.137.25,3.934,3.934,0,0,0-.1,1.268c.021.264.034.53.079.79.056.324.151.64.212.963a7.9,7.9,0,0,1,.109.811c.013.154.025.188.151.188l.052,0c.161-.007.323-.015.485-.015.093,0,.186,0,.279.009h.025c.135,0,.182-.082.23-.18.07-.14.121-.29.2-.424a.72.72,0,0,1,.621-.368l.146,0c.148,0,.3.008.451.023A1.949,1.949,0,0,0,370.288,376.221Zm.458-1.22c-.053,0-.1.008-.156.008a1.813,1.813,0,0,1-1.08-.39A2.07,2.07,0,0,1,369,374a.76.76,0,0,1-.11-.62c.135.158.243.306.374.432a3.528,3.528,0,0,0,1.06.728,4.6,4.6,0,0,0,1.4.334,1.5,1.5,0,0,1,.269.075C371.568,374.975,371.154,374.961,370.746,375Z" transform="translate(-319.381 -309.79)" fill="#fff"/>
          <path id="Tracé_2341" data-name="Tracé 2341" d="M338.346,368.66c-.124-.337-.734-.371-1.065-.371h-.048a3.359,3.359,0,0,0-.992.1c-.15.047-.3.083-.45.139-.188.071-.222.185-.108.349a5.055,5.055,0,0,1,.734,1.482c.077.265.137.535.195.805a4.831,4.831,0,0,0,.438,1.486.322.322,0,0,0,.04.042c.136-.364.344-.619.7-.619a.911.911,0,0,1,.182.019,18.031,18.031,0,0,1,.377-2.9A1.087,1.087,0,0,0,338.346,368.66Z" transform="translate(-291.932 -306.747)" fill="#fff"/>
          <path id="Tracé_2342" data-name="Tracé 2342" d="M352.372,353.728a2.649,2.649,0,0,0-.442,1.41c-.038.485-.034.968-.117,1.448s-.168.976-.256,1.464c-.039.216-.107.426-.161.639-.008.033-.028.1-.006.125a1.216,1.216,0,0,0,.185-.3c.061-.105.121-.212.179-.319a5.29,5.29,0,0,0,.3-.65c.02-.054.039-.108.057-.163a4.971,4.971,0,0,0,.222-1.211c.024-.365-.06-.833.219-1.124l.014-.014a1.653,1.653,0,0,1,.38-.33c.14.121.058.274-.021.4a2.409,2.409,0,0,0-.291,1.091c-.02.23-.032.461-.068.689a3.825,3.825,0,0,1-.193.641c.051-.022.1-.039.145-.062a1.074,1.074,0,0,0,.592-.551c.059-.155.1-.317.147-.477a6.406,6.406,0,0,1,.157-.633,1.428,1.428,0,0,1,1.128-.892.337.337,0,0,0,.207-.063,1.821,1.821,0,0,0-.4-.3c-.249-.106-.518-.163-.775-.249a2.125,2.125,0,0,1-.275-.141c.065-.01.1-.021.126-.021h.011c.328.033.656.063.982.1a1.555,1.555,0,0,1,.934.513c.215.23.3.523.5.765a4.413,4.413,0,0,0,.469.4.574.574,0,0,0,.218.119.022.022,0,0,0,.022-.011c.39-.8-.421-1.447-1.006-1.841a8.643,8.643,0,0,0-1.868-.934.923.923,0,0,0-.313-.054A1.313,1.313,0,0,0,352.372,353.728Z" transform="translate(-305.096 -294.184)" fill="#fff"/>
          <path id="Tracé_2343" data-name="Tracé 2343" d="M372.7,370.246a.518.518,0,0,0,.029-.339,2.237,2.237,0,0,0-.712-1.121c-.114-.1-.24-.176-.358-.271-.091-.073-.17-.147-.258-.218l-.026-.022s0,.022,0,.022h0a.111.111,0,0,0-.092.064.439.439,0,0,1-.072.088.482.482,0,0,1-.231.126,1.016,1.016,0,0,0-.126.027c-.215.076-.021.307.039.423.091.174.175.352.277.519h0v0a.083.083,0,0,0,.055.033.046.046,0,0,0,.037-.023h0a.569.569,0,0,1,.108-.292.273.273,0,0,1,.192-.079l.034,0a.428.428,0,0,1,.265.179.991.991,0,0,1,.193.43.454.454,0,0,1,0,.179.218.218,0,0,1-.1.144.492.492,0,0,0-.1-.418.306.306,0,0,0-.211-.088.253.253,0,0,0-.069.009.239.239,0,0,0-.174.224.375.375,0,0,0,.121.235,1.1,1.1,0,0,0,.741.407.631.631,0,0,0,.071,0A.464.464,0,0,0,372.7,370.246Z" transform="translate(-321.204 -306.72)" fill="#fff"/>
          <path id="Tracé_2344" data-name="Tracé 2344" d="M364.543,365.682a.746.746,0,0,0-.369.084,1.27,1.27,0,0,0-.382.5,2.7,2.7,0,0,0-.005,2.778,5.589,5.589,0,0,1,.341.709,3.373,3.373,0,0,1,.122.873,1.356,1.356,0,0,0,.006.239l0,.01c.005.021.061.107.052.124a1.6,1.6,0,0,0,.045-1.051c-.057-.388-.157-.768-.238-1.152a3.872,3.872,0,0,1-.081-1.55,1.855,1.855,0,0,1,.429-.882c.113-.124.468-.243.466-.441C364.928,365.743,364.738,365.682,364.543,365.682Z" transform="translate(-315.081 -304.583)" fill="#fff"/>
          <path id="Tracé_2345" data-name="Tracé 2345" d="M361.388,415.129c.025,0,.051.036.078.036h0c.024,0,.048-.049.072-.049s.063-.054.092-.07a.241.241,0,0,0,.122-.125h0a1.209,1.209,0,0,0-.081-.612,3.824,3.824,0,0,0-.523-.988.141.141,0,0,0-.125-.071.476.476,0,0,0-.141.032c-.331.108-.653.235-.991.323a7.344,7.344,0,0,1-1.777.221,7.416,7.416,0,0,1-1.177-.1c-.111-.018-.223-.037-.334-.06a4.241,4.241,0,0,1-.858-.233c-.008.009-.016.02-.025.029.331.426.417.669.664.972a1.425,1.425,0,0,0,1.161.5c.093-.014.185-.031.277-.047a6.438,6.438,0,0,1,1.11-.134h0v-.08a.583.583,0,0,1,.1-.017,1.4,1.4,0,0,1,.223-.017,3.228,3.228,0,0,1,.733.118l.014,0c.285.059.576.138.855.221.012,0,.043.006.055.009l.04,0V415c0,.036.295.07.462.1C361.419,415.1,361.384,415.129,361.388,415.129Z" transform="translate(-308.724 -344.175)" fill="#fff"/>
          <path id="Tracé_2346" data-name="Tracé 2346" d="M353.91,379.166h0c-.282,0-.647.388-.811.584a2.393,2.393,0,0,0-.5.906,1.044,1.044,0,0,0-.006.662.779.779,0,0,0,.306.355,1.529,1.529,0,0,0,.471.2c.495.121.989.243,1.49.333a.231.231,0,0,0,.033.007c.385,0-.164-1.441-.252-1.611a6.779,6.779,0,0,1-.6-1.266C354.011,379.211,354.033,379.166,353.91,379.166Z" transform="translate(-306.037 -315.796)" fill="#fff"/>
          <path id="Tracé_2347" data-name="Tracé 2347" d="M354.371,395.985a.64.64,0,0,0-.128-.365,2.586,2.586,0,0,0-.909-.806,4.274,4.274,0,0,0-1.206-.454c-.2-.044-.4-.079-.6-.106a12.067,12.067,0,0,1-5.036-1.075.251.251,0,0,0-.1-.029h-.013c-.277,0-.526.484-.562.691a1.752,1.752,0,0,0,.114.929,2.718,2.718,0,0,0,1.37,1.454,4.476,4.476,0,0,0,.893.279c.1.019.2.035.3.046.2.022.387.052.588.059q.208.008.415.007l.218,0a11.139,11.139,0,0,0,2.457-.324,6.258,6.258,0,0,0,1.209-.388s0-.013,0-.014.016-.051.031-.051h0a.711.711,0,0,1-.267-.112,9.786,9.786,0,0,0-1.131-.536c-.2-.082-.411-.155-.621-.221-.1-.033-.21-.06-.316-.09a1.661,1.661,0,0,1-.307-.07c-.009-.03.012-.017.036-.017s.02.036.029.036h.008c.121,0,.236-.056.353-.056.05,0,.1-.032.151-.026a3.8,3.8,0,0,1,.522.1,6.035,6.035,0,0,1,.986.375c.259.122.513.255.767.387A5.5,5.5,0,0,0,354.371,395.985Zm-.04-.021h-.006l-.02-.016A.136.136,0,0,0,354.331,395.963Z" transform="translate(-300.475 -327.445)" fill="#fff"/>
          <path id="Tracé_2348" data-name="Tracé 2348" d="M387.315,373.382a2.661,2.661,0,0,0,0-.678c-.043-.6-.02-1.212-.074-1.816a3.677,3.677,0,0,0-.528-1.719,2.026,2.026,0,0,0-1.059-.823,1.7,1.7,0,0,0-.46-.092c-.186,0-.325.08-.238.367a.562.562,0,0,0,.238.3c.275.181.479.252.641.568a1.225,1.225,0,0,1,.114.815c-.047.212-.151.411-.176.628a.545.545,0,0,0,.152.473c.13.107.322.106.459.212a.482.482,0,0,1,.2.467.66.66,0,0,1-.25.331,13.775,13.775,0,0,1-1.32.887.525.525,0,0,0-.062.062c.124.053.235.094.342.146.152.074.3.15.452.235.162.095.317.2.475.3a.191.191,0,0,0,.062.023.87.87,0,0,0,.169.017A.881.881,0,0,0,387.315,373.382Z" transform="translate(-333.029 -306.729)" fill="#fff"/>
          <path id="Tracé_2349" data-name="Tracé 2349" d="M380.65,372.684c.118.241.238.463.335.694a1.07,1.07,0,0,1,.072.366.574.574,0,0,1-.387.547c-.076.038-.148.084-.26.148a11.853,11.853,0,0,0,1.212.5c0-.114-.005-.21-.007-.287l-.6-.284c0-.007,0-.015.006-.022.1,0,.192.007.288.007.04,0,.079,0,.119,0,.381-.029.372-.137.386-.48a.908.908,0,0,0-.385-.748,1.9,1.9,0,0,0-.641-.412C380.745,372.7,380.7,372.694,380.65,372.684Z" transform="translate(-329.252 -310.392)" fill="#fff"/>
          <path id="Tracé_2350" data-name="Tracé 2350" d="M238.7,475.781a11.876,11.876,0,0,0,.765-1.062l.012-.018q.181-.284.345-.577c.1-.186.182-.374.272-.566a4.515,4.515,0,0,0,.364-1.257,2.628,2.628,0,0,0-1.337-2.664,1.252,1.252,0,0,0-.414-.064c-.22,0-.449.051-.53.2a.261.261,0,0,0-.03.109c0,.051-.009.1-.013.151a13.133,13.133,0,0,1-1.8,5.007c-.087.2-.166.4-.236.6a4.537,4.537,0,0,0-.256,1.344,2.749,2.749,0,0,0,.227,1.27.681.681,0,0,0,.259.318,5.884,5.884,0,0,0,.077-.89c.021-.3.041-.607.074-.909a6.425,6.425,0,0,1,.206-1.1,4.034,4.034,0,0,1,.194-.53,2.823,2.823,0,0,1,.29-.45c.015-.022.029-.059.049-.059a.03.03,0,0,1,.021.012,1.711,1.711,0,0,1-.1.321q-.048.169-.09.339-.084.34-.141.686a10.457,10.457,0,0,0-.118,1.335.8.8,0,0,1-.025.318.346.346,0,0,0,.043-.013l0,0a6.631,6.631,0,0,0,1.016-.884A11.791,11.791,0,0,0,238.7,475.781Zm-2.371,2.748a.165.165,0,0,0,0-.033c0,.009,0,.018,0,.027Z" transform="translate(-208.778 -391.245)" fill="#fff"/>
          <path id="Tracé_2351" data-name="Tracé 2351" d="M205.039,462.652h0c.041,0,.046-.154.033-.309a5.447,5.447,0,0,0-.1-.679c-.113-.308-.329-.552-.418-.874a1.653,1.653,0,0,1,.052-1.131c.143-.319.3-.633.449-.948a.782.782,0,0,1,.094-.113,2.315,2.315,0,0,1-.024.327c-.065.281-.162.556-.2.84a1.926,1.926,0,0,0,.052.527c.086-.027.114-.083.171-.152a1.546,1.546,0,0,1,.222-.219,1.517,1.517,0,0,1,.552-.282,1.5,1.5,0,0,1,.391-.051,1.548,1.548,0,0,1,.268.023,6.791,6.791,0,0,1,.661.208c.17.048.34.1.513.132a.8.8,0,0,0,.151.015,1.31,1.31,0,0,0,.676-.245c.046-.029.089-.061.137-.095a4.036,4.036,0,0,1-.687-.176c-.227-.094-.443-.2-.662-.312a2.569,2.569,0,0,0-1.133-.325h-.044c-.152,0-.318-.036-.349-.219a1.8,1.8,0,0,1,.51-.178l.021,0a.678.678,0,0,1,.146-.016,2.363,2.363,0,0,1,.994.439,5.277,5.277,0,0,0,1.22.469c.059.014.119.027.179.039a5.615,5.615,0,0,0,.755.089c.129.007.259.012.388.015.071,0,.169.017.255.017a.383.383,0,0,0,.121-.016c-.011-.034-.083-.053-.117-.064-.223-.069-.451-.123-.668-.208q-.735-.286-1.468-.579c-.481-.191-.917-.462-1.377-.7a3.032,3.032,0,0,0-1.345-.389c-.059,0-.118.011-.177.017a1.3,1.3,0,0,0-1.162.934,9.3,9.3,0,0,0-.188,2.225C203.962,461.437,204.1,462.45,205.039,462.652Z" transform="translate(-182.18 -381.221)" fill="#fff"/>
          <path id="Tracé_2352" data-name="Tracé 2352" d="M214.474,473a4.122,4.122,0,0,1,1.359.932c.3.286.592.587.912.854a1.7,1.7,0,0,0,.977.542c-.021,0-.067-.1-.083-.115l-.008-.008a1.386,1.386,0,0,0-.213-.137,3.577,3.577,0,0,1-.723-.594,5.845,5.845,0,0,1-.453-.7,2.864,2.864,0,0,0-2.52-1.534c-.073-.005-.147-.01-.221-.01a1.049,1.049,0,0,0-.44.081c-.192.088-.558.6-.28.77a.193.193,0,0,0,.105.028c.177,0,.409-.179.552-.206a1.756,1.756,0,0,1,.328-.03A2.065,2.065,0,0,1,214.474,473Z" transform="translate(-189.472 -393.452)" fill="#fff"/>
          <path id="Tracé_2353" data-name="Tracé 2353" d="M214.21,491.017a12.611,12.611,0,0,0,.216-1.376c-.12.066-.2.105-.279.154a.791.791,0,0,1-.413.142.527.527,0,0,1-.3-.095,1.142,1.142,0,0,1-.292-.268c-.156-.216-.291-.448-.443-.688-.019.05-.039.1-.052.142a2.015,2.015,0,0,0,.019.809.964.964,0,0,0,.464.763.858.858,0,0,0,.351.148c.095,0,.178-.065.3-.232.083-.117.149-.246.222-.37l.024.007c-.025.23-.049.459-.074.7Z" transform="translate(-189.402 -407.294)" fill="#fff"/>
          <path id="Tracé_2354" data-name="Tracé 2354" d="M208.555,493.2a.962.962,0,0,1-.3.064.427.427,0,0,1-.134-.02.511.511,0,0,1-.312-.439c-.021-.183.087-.356.062-.533a.579.579,0,0,0-.344-.4c-.21-.1-.448-.113-.666-.188a1.3,1.3,0,0,1-.675-.554,1.511,1.511,0,0,1-.159-.9.594.594,0,0,0-.136-.38.355.355,0,0,0-.247-.148c-.222,0-.335.416-.389.628a2.152,2.152,0,0,0,.159,1.415,3.906,3.906,0,0,0,1.265,1.431c.517.383,1.08.7,1.6,1.073a2.814,2.814,0,0,0,.614.375.869.869,0,0,0,.308.056.949.949,0,0,0,.882-.615.2.2,0,0,0,.014-.068c0-.2-.013-.4-.009-.6,0-.18.02-.36.037-.539.012-.125.036-.25.057-.391a.535.535,0,0,0-.091.021A14.718,14.718,0,0,1,208.555,493.2Z" transform="translate(-183.232 -407.98)" fill="#fff"/>
          <path id="Tracé_2355" data-name="Tracé 2355" d="M221.884,481.012a2.218,2.218,0,0,0-1.41.662,4.392,4.392,0,0,1,.312-.534.732.732,0,0,1,.662-.323h.015c.165,0,.329,0,.495.017.027,0,.054-.032.079-.032a.225.225,0,0,0,.224-.137,7.151,7.151,0,0,1,.428-.688c.1-.153.092-.179-.057-.287a8.4,8.4,0,0,1-.674-.55c-.259-.234-.493-.5-.755-.728-.21-.185-.444-.35-.672-.515a4.215,4.215,0,0,0-1.2-.628.537.537,0,0,0-.15-.043c-.051,0-.1-.042-.152-.043.082,0,.309.456.353.526a4.75,4.75,0,0,1,.295.6,4.406,4.406,0,0,1,.334,1.212,4.606,4.606,0,0,1-.4,2.393.363.363,0,0,0,.2.457.851.851,0,0,0,.218.031.649.649,0,0,0,.274-.059c.212-.1.42-.2.629-.3.273-.13.547-.257.82-.388a.126.126,0,0,0,.062-.051c.085-.191.167-.381.258-.591A1.673,1.673,0,0,0,221.884,481.012Zm-1.912.841a1.581,1.581,0,0,1,.081-.285,4.9,4.9,0,0,0,.474-1.456,3.742,3.742,0,0,0-.073-1.364c-.042-.188-.116-.368-.184-.577a.805.805,0,0,1,.5.443,2.2,2.2,0,0,1,.276.807,1.871,1.871,0,0,1-.338,1.331C220.446,481.1,220.229,481.483,219.972,481.854Z" transform="translate(-194.757 -397.569)" fill="#fff"/>
          <path id="Tracé_2356" data-name="Tracé 2356" d="M232.542,473.544c.2-.5.362-1.017.525-1.533a1.623,1.623,0,0,0,.083-.535A.827.827,0,0,0,233,471a1.107,1.107,0,0,0-.6-.361,2.648,2.648,0,0,0-.726-.1,2.76,2.76,0,0,0-.4.029c-.268.04-.851.138-1.009.392-.07.113.014.136.106.235a7.375,7.375,0,0,1,.831,1.254c.093.154.891,1.184,1.223,1.184A.123.123,0,0,0,232.542,473.544Z" transform="translate(-204.094 -392.049)" fill="#fff"/>
          <path id="Tracé_2357" data-name="Tracé 2357" d="M214.041,478.634a.253.253,0,0,1,.059-.01.816.816,0,0,1,.266.063v-.015h0c.051,0,.055-.028.042-.074a.081.081,0,0,1,0,.013h0c-.1-.185-.21-.36-.318-.538-.057-.1-.135-.312-.262-.312a.163.163,0,0,0-.1.043,1.091,1.091,0,0,0-.095.1.515.515,0,0,1-.242.142.258.258,0,0,1-.064.01c-.021,0-.044.01-.067.01h-.01c-.058,0-.113,0-.13.027.016.13.053.256.069.389.02.159.026.319.052.477a2.384,2.384,0,0,0,.624,1.267.553.553,0,0,0,.325.163l.035,0a.5.5,0,0,0,.383-.2,1.1,1.1,0,0,0,.084-.958.4.4,0,0,0-.145-.24.229.229,0,0,0-.123-.034.264.264,0,0,0-.176.068.314.314,0,0,0-.084.3c.04.172.183.243.324.319a.2.2,0,0,1-.1.025.262.262,0,0,1-.085-.014.485.485,0,0,1-.161-.1,1.057,1.057,0,0,1-.283-.414.458.458,0,0,1-.015-.341A.3.3,0,0,1,214.041,478.634Z" transform="translate(-189.824 -398.047)" fill="#fff"/>
          <path id="Tracé_2358" data-name="Tracé 2358" d="M230.972,449.491a.778.778,0,0,1,.439-.117,1.646,1.646,0,0,1,.312.033.351.351,0,0,0-.016-.06,3.444,3.444,0,0,0-.723-.867c-.127-.118-.255-.234-.381-.353-.213-.2-.425-.406-.622-.622a5.365,5.365,0,0,1-.936-1.486c-.051-.116-.115-.175-.195-.175a.309.309,0,0,0-.181.079c-.131.1-.25.221-.375.331a3.562,3.562,0,0,0-.643.841c-.177.284-.529.9-.28,1.213a1.153,1.153,0,0,0,.484.306,19.112,19.112,0,0,1,2.834,1.263A.747.747,0,0,1,230.972,449.491Z" transform="translate(-201.643 -371.34)" fill="#fff"/>
          <path id="Tracé_2359" data-name="Tracé 2359" d="M204.869,459.65a1.794,1.794,0,0,0-.06.212c0,.017,0,.035,0,.053s0,.012,0,.018a1.378,1.378,0,0,1,.07-.283.845.845,0,0,1,.377-.426l-.012.006A.849.849,0,0,0,204.869,459.65Z" transform="translate(-182.887 -382.644)" fill="#fff"/>
          <path id="Tracé_2360" data-name="Tracé 2360" d="M250.539,489.534c-.137-.391-.306-.6-.508-1.137l-.038.007a4.5,4.5,0,0,1-.263.906,7.92,7.92,0,0,1-.794,1.613q-.166.258-.355.5a7.517,7.517,0,0,1-.728.825c-.266.257-.558.479-.839.719-.076.066-.165.137-.108.262a4.086,4.086,0,0,0,.615,1.02,1.343,1.343,0,0,0,.529.412h.04s-.011,0,0,0c.05,0,.053-.016.1-.043a.327.327,0,0,0,.107-.135v.007c.017-.027.05-.028.061-.057.063-.169.136-.269.2-.471h0l-.064-.03v-.032c0-.013.044-.024.048-.037.079-.3.2-.6.3-.888,0,0,0-.006,0-.009a2.553,2.553,0,0,1,.435-.917l.068-.078h0l0,0h0c.036-.051.075-.1.113-.147.265-.344.571-.653.855-.989A1.28,1.28,0,0,0,250.539,489.534Z" transform="translate(-217.981 -406.888)" fill="#fff"/>
          <path id="Tracé_2361" data-name="Tracé 2361" d="M225.555,414.514c.084-.059.157-.116.228-.175.266-.22.474-.448.9-.765l-.021-.041c-.139.015-.257.02-.368.023l-.1,0c-.227,0-.419-.019-.651-.036a9.217,9.217,0,0,1-2.774-.634,8.874,8.874,0,0,1-1.17-.567c-.378-.221-.723-.484-1.086-.727a.412.412,0,0,0-.211-.095.185.185,0,0,0-.122.05,4.8,4.8,0,0,0-.968,1.013,1.517,1.517,0,0,0-.307.71s0,0,0,0a.3.3,0,0,0,.106.194.412.412,0,0,0,.195.079l.007,0c.036.01.078.049.115.053.213.018.457.061.659.075v.032c.093,0,.187-.025.279-.025.271,0,.543-.017.814,0h.012a3.018,3.018,0,0,1,1.181.2l.11.053s0,0,0,0c.553.2,1.06.492,1.6.739a1.512,1.512,0,0,0,.631.143A1.629,1.629,0,0,0,225.555,414.514Z" transform="translate(-194.686 -342.73)" fill="#fff"/>
          <path id="Tracé_2362" data-name="Tracé 2362" d="M229.818,369.677a.429.429,0,0,0-.421.371.845.845,0,0,0,.189.551c.178.21.361.414.541.62.234.27.467.54.7.809a.151.151,0,0,0,.079.054c.244.036.489.068.757.1a2.444,2.444,0,0,0-1.238-1.607,5.446,5.446,0,0,1,.727.179.9.9,0,0,1,.624.655c.049.189.06.387.1.58.026.142.058.263.247.3a8.508,8.508,0,0,1,.919.268.536.536,0,0,0,.153.035c.076,0,.1-.054.155-.191a9.936,9.936,0,0,1,.409-.942c.184-.368.407-.718.585-1.089.144-.3.25-.615.365-.926a4.937,4.937,0,0,0,.318-1.563,1.107,1.107,0,0,0-.08-.349c.028.093-.365.482-.431.555a4.929,4.929,0,0,1-.538.512,5.205,5.205,0,0,1-1.272.765,4.708,4.708,0,0,1-1.89.364,8.959,8.959,0,0,1-.959-.058Zm.454.385a.678.678,0,0,1,.121.01,6.472,6.472,0,0,0,1.173.116,4.913,4.913,0,0,0,.634-.04,4.418,4.418,0,0,0,1.528-.517c.2-.107.381-.249.6-.393a.952.952,0,0,1-.345.71,2.366,2.366,0,0,1-1.728.747,1.965,1.965,0,0,1-.724-.136c-.479-.188-.983-.312-1.486-.487C230.119,370.071,230.2,370.062,230.272,370.062Z" transform="translate(-203.412 -306.127)" fill="#fff"/>
          <path id="Tracé_2363" data-name="Tracé 2363" d="M236.3,366.653l-.107.345a14.924,14.924,0,0,0,1.634-.191c-.113-.116-.185-.194-.264-.265a.712.712,0,0,1-.28-.787,1.284,1.284,0,0,1,.212-.406c.2-.246.417-.451.642-.7-.063,0-.121.029-.178.029h0a2.343,2.343,0,0,0-.91.235,1.078,1.078,0,0,0-.721.728c-.1.42-.148.547.3.712.159.058.328.091.492.135,0,.01,0,.019,0,.029Z" transform="translate(-209.055 -303.698)" fill="#fff"/>
          <path id="Tracé_2364" data-name="Tracé 2364" d="M248.281,349.354c0,.017.021.025.05.025a1,1,0,0,0,.276-.072,5.465,5.465,0,0,0,.7-.321c.315-.227.524-.549.861-.753a2.049,2.049,0,0,1,1.055-.319,1.662,1.662,0,0,1,.247.019c.408.061.815.137,1.221.209a.889.889,0,0,1,.159.071,2.746,2.746,0,0,1-.38.077c-.34.015-.684-.007-1.021.035a2.29,2.29,0,0,0-.583.227c.058.089.131.1.228.146a1.778,1.778,0,0,1,1.057,1.461,8.009,8.009,0,0,1-.027.818c0,.209,0,.418.014.626a1.35,1.35,0,0,0,.526.866c.047.043.1.081.154.124a4.831,4.831,0,0,1-.014-.839c.034-.288.1-.571.153-.855a3.02,3.02,0,0,0,.022-1.416c-.053-.18-.1-.392.111-.491a2.085,2.085,0,0,1,.346.529l.012.022c.239.446-.023.982-.119,1.431a6.224,6.224,0,0,0-.145,1.537q0,.108.013.216a6.67,6.67,0,0,0,.14.887c.033.149.069.3.107.446a1.519,1.519,0,0,0,.119.429c.035-.023.035-.111.036-.153.008-.275,0-.553.024-.826.06-.618.126-1.236.191-1.854s.234-1.19.354-1.788a3.323,3.323,0,0,0-.052-1.852,1.548,1.548,0,0,0-1.346-1.03c-.026,0-.051,0-.077,0a10.842,10.842,0,0,0-2.572.489C249.283,347.752,248.083,348.258,248.281,349.354Z" transform="translate(-219.138 -289.026)" fill="#fff"/>
          <path id="Tracé_2365" data-name="Tracé 2365" d="M257.4,382.332c.635.062,1.272.088,1.911.11h.085a1.842,1.842,0,0,0,.55-.077.973.973,0,0,0,.49-.324,1.3,1.3,0,0,0,.219-.8,3.172,3.172,0,0,0-.278-1.3c-.13-.292-.427-.924-.767-1.023a.224.224,0,0,0-.061-.01c-.091,0-.1.092-.172.206a8.693,8.693,0,0,1-1.161,1.344C258.046,380.636,256.831,382.278,257.4,382.332Z" transform="translate(-226.614 -315.584)" fill="#fff"/>
          <path id="Tracé_2366" data-name="Tracé 2366" d="M281.275,376.089c0,.034.01.068.013.1.037-.021.052-.009.063-.019a2.737,2.737,0,0,0,.231-.258,8.35,8.35,0,0,0,.8-1.387c.162-.306.327-.612.51-.905a6.346,6.346,0,0,1,1.392-1.538c.194-.158.193-.308-.01-.458-.158-.117-.331-.213-.5-.321a4.209,4.209,0,0,0-1.161-.464,3.358,3.358,0,0,0-.88-.155.689.689,0,0,0-.588.214,1.331,1.331,0,0,0-.194.639,22.592,22.592,0,0,1-.533,3.608h0C280.992,375.148,281.212,375.573,281.275,376.089Z" transform="translate(-245.936 -308.753)" fill="#fff"/>
          <path id="Tracé_2367" data-name="Tracé 2367" d="M218.055,362.677a1.107,1.107,0,0,0,1.014,1.176h.025a.2.2,0,0,0,.057-.007c.225-.066.449-.142.676-.2.206-.053.416-.092.625-.13.146-.026.3-.039.463-.06a.649.649,0,0,0-.053-.1,17.251,17.251,0,0,1-1.29-1.521.827.827,0,0,1-.189-.484.6.6,0,0,1,.4-.495c.2-.081.432-.014.626-.1a.684.684,0,0,0,.344-.519c.043-.27-.015-.545,0-.818a1.537,1.537,0,0,1,.415-.944,1.787,1.787,0,0,1,.968-.467.7.7,0,0,0,.389-.275c.329-.517-.25-.573-.622-.573l-.127,0a2.542,2.542,0,0,0-1.559.631A4.612,4.612,0,0,0,219,359.692c-.271.71-.451,1.451-.709,2.165A3.338,3.338,0,0,0,218.055,362.677Z" transform="translate(-193.947 -297.499)" fill="#fff"/>
          <path id="Tracé_2368" data-name="Tracé 2368" d="M255.969,363.657c-.229.435-.48.86-.681,1.309a2.007,2.007,0,0,0-.3,1.284c-.006-.024.091-.108.1-.131l.006-.011a1.654,1.654,0,0,0,.088-.286,4.221,4.221,0,0,1,.445-1.011,6.968,6.968,0,0,1,.653-.739,3.383,3.383,0,0,0,.942-3.354,1.589,1.589,0,0,0-.291-.73,1.033,1.033,0,0,0-.655-.264.286.286,0,0,0-.309.19c-.07.238.318.5.412.691a2.322,2.322,0,0,1,.217,1.211A4.857,4.857,0,0,1,255.969,363.657Z" transform="translate(-224.693 -299.629)" fill="#fff"/>
          <path id="Tracé_2369" data-name="Tracé 2369" d="M274.366,346.687a1,1,0,0,1,.6.293l-.01-.012a1,1,0,0,0-.6-.289c-.037,0-.074,0-.111,0s-.1,0-.149,0l-.06.013-.02.005a1.831,1.831,0,0,1,.225-.015C274.287,346.682,274.327,346.684,274.366,346.687Z" transform="translate(-240.578 -288.718)" fill="#fff"/>
          <path id="Tracé_2370" data-name="Tracé 2370" d="M244.716,362.8a.654.654,0,0,0-.082.421.584.584,0,0,0,.356.414.8.8,0,0,0,.311.06,1.638,1.638,0,0,0,.806-.269.471.471,0,0,0,.227-.242.3.3,0,0,0-.133-.33.34.34,0,0,0-.179-.048.389.389,0,0,0-.187.048.617.617,0,0,0-.26.471.275.275,0,0,1-.071-.208.564.564,0,0,1,.065-.215,1.245,1.245,0,0,1,.38-.453.583.583,0,0,1,.331-.129.369.369,0,0,1,.051,0,.343.343,0,0,1,.246.169.715.715,0,0,1,.03.39v0a.054.054,0,0,0,.052.042.128.128,0,0,0,.064-.023l0,0h0c.18-.168.342-.355.511-.533.112-.118.425-.333.192-.5a1.244,1.244,0,0,0-.143-.078.616.616,0,0,1-.236-.235,1.126,1.126,0,0,1-.049-.166c-.019-.067-.044-.154-.085-.154h0c-.146,0-.28.161-.428.224-.174.074-.354.149-.526.228A2.817,2.817,0,0,0,244.716,362.8Z" transform="translate(-216.09 -300.859)" fill="#fff"/>
          <path id="Tracé_2371" data-name="Tracé 2371" d="M225.655,401.089a3.1,3.1,0,0,0,2.6-2.369,1.237,1.237,0,0,0-.019-.31c-.051-.3-.193-.665-.439-.72a.3.3,0,0,0-.065-.007.342.342,0,0,0-.069.007,9.478,9.478,0,0,1-1.989.2,21.56,21.56,0,0,1-4.455-.625c-.252-.036-.5-.062-.759-.076q-.179-.01-.358-.01a5.105,5.105,0,0,0-1.252.147,3.248,3.248,0,0,0-1.372.662.8.8,0,0,0-.279.4,7.018,7.018,0,0,0,1.037-.2c.351-.073.7-.147,1.057-.205a7.745,7.745,0,0,1,1.259-.116h.059a4.779,4.779,0,0,1,.665.052,3.357,3.357,0,0,1,.6.186c.039.013.107.016.076.065,0,.007-.032.01-.07.01-.105,0-.294-.019-.327-.02h-.071q-.172,0-.343.005-.414.013-.825.058a12.4,12.4,0,0,0-1.556.29,1.567,1.567,0,0,1-.321.079.173.173,0,0,1-.048-.006.328.328,0,0,0,.028.044l0,0a7.836,7.836,0,0,0,1.329.874,14.138,14.138,0,0,0,2.855,1.224q.38.115.766.209c.245.06.484.088.73.129a4.788,4.788,0,0,0,.791.063c.124,0,.247,0,.371-.013S225.528,401.105,225.655,401.089Zm-8.389-2.713h-.008a.2.2,0,0,0,.038-.011Z" transform="translate(-193.28 -330.809)" fill="#fff"/>
          <path id="Tracé_2372" data-name="Tracé 2372" d="M425.255,517.631c-.635-.062-1.272-.088-1.911-.11l-.085,0a1.843,1.843,0,0,0-.55.077.974.974,0,0,0-.49.324,1.3,1.3,0,0,0-.219.8,3.168,3.168,0,0,0,.278,1.3c.13.292.427.924.767,1.023a.232.232,0,0,0,.061.01c.091,0,.1-.091.172-.206a8.673,8.673,0,0,1,1.161-1.344C424.608,519.327,425.822,517.685,425.255,517.631Z" transform="translate(-364.077 -431.091)" fill="#fff"/>
          <path id="Tracé_2373" data-name="Tracé 2373" d="M420.376,569.176a1,1,0,0,1-.6-.293l.01.012a1,1,0,0,0,.6.289c.037,0,.074,0,.111,0s.1,0,.149,0l.06-.013.02,0a1.837,1.837,0,0,1-.225.015C420.455,569.181,420.415,569.179,420.376,569.176Z" transform="translate(-362.226 -473.777)" fill="#fff"/>
          <path id="Tracé_2374" data-name="Tracé 2374" d="M438.6,542.387a.054.054,0,0,0-.052-.042.13.13,0,0,0-.064.023l0,0h0c-.18.168-.342.354-.511.533-.112.119-.425.333-.192.5a1.239,1.239,0,0,0,.143.077.611.611,0,0,1,.236.234,1.055,1.055,0,0,1,.049.164c.019.067.044.149.085.149h0c.146,0,.28-.157.428-.219.174-.073.354-.144.526-.223a2.812,2.812,0,0,0,1.243-1.112.652.652,0,0,0,.082-.421.584.584,0,0,0-.356-.414.8.8,0,0,0-.311-.06,1.636,1.636,0,0,0-.806.269.471.471,0,0,0-.227.242.3.3,0,0,0,.133.33.339.339,0,0,0,.179.048.391.391,0,0,0,.187-.048.617.617,0,0,0,.26-.471.274.274,0,0,1,.071.208.564.564,0,0,1-.065.215,1.244,1.244,0,0,1-.38.453.581.581,0,0,1-.331.129.366.366,0,0,1-.051,0,.344.344,0,0,1-.246-.169.715.715,0,0,1-.03-.39A.008.008,0,0,0,438.6,542.387Z" transform="translate(-377.118 -451.084)" fill="#fff"/>
          <path id="Tracé_2375" data-name="Tracé 2375" d="M453.512,540.163c.1-.42.148-.547-.3-.712-.159-.058-.328-.091-.492-.135,0-.01,0-.019,0-.029l.819-.138.107-.344a14.966,14.966,0,0,0-1.634.189c.113.116.184.193.264.265a.711.711,0,0,1,.28.786,1.274,1.274,0,0,1-.212.405c-.2.246-.417.449-.642.7.064,0,.121-.034.178-.034h0a2.337,2.337,0,0,0,.91-.231A1.073,1.073,0,0,0,453.512,540.163Z" transform="translate(-388.759 -448.78)" fill="#fff"/>
          <path id="Tracé_2376" data-name="Tracé 2376" d="M439.936,521.057c-.049-.188-.06-.387-.1-.58-.026-.142-.058-.263-.247-.3a8.443,8.443,0,0,1-.919-.268.533.533,0,0,0-.153-.035c-.076,0-.1.054-.155.191a9.966,9.966,0,0,1-.409.942c-.184.369-.407.718-.585,1.089-.144.3-.25.615-.365.926a4.936,4.936,0,0,0-.318,1.563,1.108,1.108,0,0,0,.08.349c-.028-.092.365-.482.431-.555a4.947,4.947,0,0,1,.538-.512,5.2,5.2,0,0,1,1.272-.765,4.707,4.707,0,0,1,1.89-.364,9.057,9.057,0,0,1,.959.058l.036,0a.429.429,0,0,0,.421-.371.844.844,0,0,0-.189-.551c-.178-.209-.361-.414-.541-.62-.234-.269-.467-.54-.7-.809a.154.154,0,0,0-.079-.054c-.244-.036-.489-.068-.757-.1a2.443,2.443,0,0,0,1.237,1.607,5.458,5.458,0,0,1-.727-.179A.9.9,0,0,1,439.936,521.057Zm1.735,1.342c-.076,0-.153.009-.229.009a.68.68,0,0,1-.122-.01,6.473,6.473,0,0,0-1.173-.116,4.868,4.868,0,0,0-.634.04,4.42,4.42,0,0,0-1.528.517c-.2.107-.382.249-.6.393a.952.952,0,0,1,.345-.71,2.366,2.366,0,0,1,1.728-.747,1.968,1.968,0,0,1,.724.136C440.664,522.1,441.168,522.225,441.671,522.4Z" transform="translate(-376.285 -433.045)" fill="#fff"/>
          <path id="Tracé_2377" data-name="Tracé 2377" d="M457.834,520.609h-.025a.2.2,0,0,0-.057.007c-.225.066-.449.142-.676.2-.206.053-.416.092-.625.13-.146.026-.3.038-.462.059a.647.647,0,0,0,.053.1,17.272,17.272,0,0,1,1.29,1.521.826.826,0,0,1,.189.484.6.6,0,0,1-.4.495c-.2.082-.432.014-.626.1a.684.684,0,0,0-.344.518c-.043.27.015.545,0,.818a1.537,1.537,0,0,1-.415.944,1.787,1.787,0,0,1-.968.467.7.7,0,0,0-.389.275c-.329.517.25.573.621.573l.127,0a2.542,2.542,0,0,0,1.559-.631,4.615,4.615,0,0,0,1.225-1.894c.271-.709.451-1.451.709-2.165a3.328,3.328,0,0,0,.231-.818A1.107,1.107,0,0,0,457.834,520.609Z" transform="translate(-390.903 -433.657)" fill="#fff"/>
          <path id="Tracé_2378" data-name="Tracé 2378" d="M432.6,519.143l-.006.011a1.653,1.653,0,0,0-.088.286,4.231,4.231,0,0,1-.445,1.012,6.984,6.984,0,0,1-.653.739,3.383,3.383,0,0,0-.942,3.354,1.584,1.584,0,0,0,.291.73,1.033,1.033,0,0,0,.655.264.286.286,0,0,0,.31-.19c.07-.238-.319-.5-.412-.691a2.322,2.322,0,0,1-.217-1.211,4.867,4.867,0,0,1,.627-1.842c.229-.435.48-.86.681-1.309a2.008,2.008,0,0,0,.3-1.284C432.714,519.036,432.617,519.12,432.6,519.143Z" transform="translate(-371.024 -432.331)" fill="#fff"/>
          <path id="Tracé_2379" data-name="Tracé 2379" d="M399.261,515.1h0a.789.789,0,0,1-.451-.128,1.158,1.158,0,0,1-.414-.91c-.037.021-.052.02-.063.03a6.019,6.019,0,0,0-1.035,1.638c-.161.306-.327.612-.51.905-.053.085-.114.165-.171.246a6.537,6.537,0,0,1-1.221,1.292c-.194.158-.192.308.011.458.158.117.331.214.5.322a4.2,4.2,0,0,0,1.161.465,3.357,3.357,0,0,0,.88.157.693.693,0,0,0,.588-.219,1.343,1.343,0,0,0,.194-.642A22.73,22.73,0,0,1,399.261,515.1Z" transform="translate(-341.654 -428.221)" fill="#fff"/>
          <path id="Tracé_2380" data-name="Tracé 2380" d="M421.475,531.081a1,1,0,0,0-.276.072,5.5,5.5,0,0,0-.7.321c-.315.227-.523.549-.861.754a2.052,2.052,0,0,1-1.055.319,1.66,1.66,0,0,1-.248-.019c-.408-.062-.814-.137-1.221-.209a.922.922,0,0,1-.159-.071,2.745,2.745,0,0,1,.38-.077c.34-.015.684.007,1.021-.035a2.277,2.277,0,0,0,.583-.227c-.058-.089-.131-.1-.228-.146a1.779,1.779,0,0,1-1.057-1.462,8.06,8.06,0,0,1,.027-.818c0-.209,0-.418-.014-.625a1.351,1.351,0,0,0-.526-.867c-.047-.043-.1-.081-.153-.125a4.83,4.83,0,0,1,.014.839c-.034.288-.1.571-.153.855a3.018,3.018,0,0,0-.022,1.416c.053.18.1.392-.111.491a2.083,2.083,0,0,1-.346-.528l-.012-.022c-.239-.446.023-.982.119-1.431a6.221,6.221,0,0,0,.145-1.536c0-.072-.007-.144-.013-.216a6.625,6.625,0,0,0-.14-.887c-.033-.15-.069-.3-.107-.446a1.528,1.528,0,0,0-.119-.429c-.035.023-.035.111-.036.153-.008.275,0,.553-.024.826-.061.618-.126,1.236-.191,1.854s-.234,1.19-.354,1.788a3.324,3.324,0,0,0,.052,1.852,1.548,1.548,0,0,0,1.346,1.03l.077,0a10.851,10.851,0,0,0,2.572-.489c.84-.275,2.04-.78,1.842-1.877C421.522,531.088,421.5,531.081,421.475,531.081Z" transform="translate(-358.701 -438.114)" fill="#fff"/>
          <path id="Tracé_2381" data-name="Tracé 2381" d="M437.178,486.29a1.511,1.511,0,0,0-.631-.143,1.62,1.62,0,0,0-.933.318,8.61,8.61,0,0,0-.73.619c-.113.1-.241.2-.4.321l.021.041c.068-.007.128-.011.188-.015.1-.006.191-.01.276-.01.227,0,.419.019.651.036a9.217,9.217,0,0,1,2.774.634,8.874,8.874,0,0,1,1.17.567c.378.221.723.484,1.086.727a.412.412,0,0,0,.211.095.185.185,0,0,0,.122-.05,4.794,4.794,0,0,0,.967-1.013,1.518,1.518,0,0,0,.307-.71s0,0,0,0a.305.305,0,0,0-.106-.194.419.419,0,0,0-.2-.079l-.01,0c-.036-.01-.084-.051-.121-.054-.213-.018-.469-.064-.671-.077v-.034c-.085,0-.17.027-.256.027-.271,0-.543.022-.814,0l-.012,0a3.015,3.015,0,0,1-1.181-.2l-.11-.053s0,0,0,0C438.225,486.831,437.718,486.537,437.178,486.29Z" transform="translate(-374.451 -405.018)" fill="#fff"/>
          <path id="Tracé_2382" data-name="Tracé 2382" d="M425.7,499.915a7.729,7.729,0,0,1-1.258.116h-.059a4.775,4.775,0,0,1-.665-.052,3.352,3.352,0,0,1-.6-.186c-.039-.013-.107-.016-.076-.065,0-.007.032-.01.07-.01.1,0,.294.019.327.019h.071q.172,0,.343-.006.414-.013.825-.058a12.473,12.473,0,0,0,1.556-.29,1.551,1.551,0,0,1,.321-.079.173.173,0,0,1,.048.006.328.328,0,0,0-.028-.044l0,0a7.848,7.848,0,0,0-1.329-.874,14.144,14.144,0,0,0-2.855-1.224q-.38-.115-.766-.209c-.245-.06-.483-.088-.73-.129a4.786,4.786,0,0,0-.791-.063c-.157,0-.314.009-.471.022-.094.008-.189.016-.283.027a3.1,3.1,0,0,0-2.6,2.369,1.3,1.3,0,0,0,.341.976.322.322,0,0,0,.116.053.307.307,0,0,0,.065.007.33.33,0,0,0,.069-.007,9.479,9.479,0,0,1,1.989-.2,21.556,21.556,0,0,1,4.455.625c.252.036.5.062.759.076q.179.01.359.01a5.11,5.11,0,0,0,1.252-.146,3.248,3.248,0,0,0,1.372-.662.8.8,0,0,0,.279-.4,6.973,6.973,0,0,0-1.037.2C426.407,499.782,426.055,499.856,425.7,499.915Zm2.031-.39h.008a.215.215,0,0,0-.037.011Z" transform="translate(-359.702 -413.84)" fill="#fff"/>
          <path id="Tracé_2383" data-name="Tracé 2383" d="M397.183,151.168c-.158.055-.32.083-.475.139l0,0c-.026.035,0,.1.03.165a1.007,1.007,0,0,1,.072.157.631.631,0,0,1-.021.343,1.382,1.382,0,0,0-.057.16c-.065.29.325.24.494.253.124.01.248.018.372.018.093,0,.186.011.279.011.038,0,.076.025.114.026v.007h.032c.042,0,.066-.055.047-.1,0,0,0-.03,0-.03h0c-.092-.087-.218-.18-.248-.311a.345.345,0,0,1,.071-.3.556.556,0,0,1,.382-.166,1.257,1.257,0,0,1,.129-.007,1.309,1.309,0,0,1,.481.092.589.589,0,0,1,.2.122.284.284,0,0,1,.09.21.769.769,0,0,0-.43-.193.428.428,0,0,0-.1.012.385.385,0,0,0-.281.255.311.311,0,0,0,.127.347.358.358,0,0,0,.187.045.837.837,0,0,0,.156-.017,1.348,1.348,0,0,0,1.008-.617.608.608,0,0,0-.014-.567.681.681,0,0,0-.356-.268,2.443,2.443,0,0,0-.814-.128,3.165,3.165,0,0,0-.92.136C397.548,151.023,397.369,151.1,397.183,151.168Z" transform="translate(-342.846 -125.616)" fill="#fff"/>
          <path id="Tracé_2384" data-name="Tracé 2384" d="M403.65,152.5c.181-.215.348-.41.511-.608a.161.161,0,0,0,.023-.1c-.006-.371-.015-.743-.022-1.114-.005-.285-.006-.57-.015-.856a.877.877,0,0,0-.238-.557.359.359,0,0,0-.271-.1.462.462,0,0,0-.339.139,5.65,5.65,0,0,1-2.413,1.75,5.424,5.424,0,0,1-1.516.3q-.127.006-.255.006a5.082,5.082,0,0,1-.517-.026c-.1-.01-.677-.037-.719-.128a1.151,1.151,0,0,0,.181.325,5.126,5.126,0,0,0,1.334.984c.306.16.609.33.928.46.4.162.812.277,1.211.433a10.372,10.372,0,0,1,.972.441.465.465,0,0,0,.183.069c.06,0,.1-.048.164-.163a8.832,8.832,0,0,1,.522-.847.314.314,0,0,0-.02-.406c-.106-.174-.237-.335-.33-.515a.938.938,0,0,1,.024-.941,5.7,5.7,0,0,1,.436-.645A2.54,2.54,0,0,0,403.65,152.5Zm-1.03-1.352a2.3,2.3,0,0,1-1.279,1.1,2.5,2.5,0,0,1-.914.139H400.3a.99.99,0,0,1-.761-.307c.268-.04.507-.057.736-.114a4.6,4.6,0,0,0,1.539-.666,6,6,0,0,0,1.341-1.318,1.949,1.949,0,0,1,.27-.245C403.16,150.218,402.858,150.665,402.619,151.144Z" transform="translate(-344.031 -124.235)" fill="#fff"/>
          <path id="Tracé_2385" data-name="Tracé 2385" d="M410.29,138.985a.678.678,0,0,0,.026.111c.144-.1.267-.194.4-.277.188-.117.377-.233.573-.336.217-.113.441-.211.661-.316a.244.244,0,0,0,.068-.053,1.152,1.152,0,0,0-.037-1.615,3.459,3.459,0,0,0-.749-.47c-.7-.371-1.353-.818-2.057-1.176a4.887,4.887,0,0,0-2.18-.609h-.086a2.642,2.642,0,0,0-1.643.6c-.268.231-.871.771-.179.962a.582.582,0,0,0,.155.02.823.823,0,0,0,.336-.079,2.093,2.093,0,0,1,.944-.32c.041,0,.083,0,.128.006a1.6,1.6,0,0,1,.979.439c.2.2.35.452.571.63a.8.8,0,0,0,.477.183.471.471,0,0,0,.15-.023c.209-.069.34-.283.552-.36a.765.765,0,0,1,.26-.046.546.546,0,0,1,.394.149.86.86,0,0,1,.192.505A17.865,17.865,0,0,1,410.29,138.985Z" transform="translate(-349.754 -111.814)" fill="#fff"/>
          <path id="Tracé_2386" data-name="Tracé 2386" d="M407.034,165.615a2.3,2.3,0,0,0,1.141.523,3.288,3.288,0,0,0,.586.053,3.487,3.487,0,0,0,1.935-.564c.151-.106.3-.219.438-.337a5.121,5.121,0,0,0,.745-.751c.161-.2.326-.391.473-.608s.3-.46.445-.7a14.719,14.719,0,0,0,1.35-2.935,8.142,8.142,0,0,0,.415-1.6v-.006a.358.358,0,0,0-.009-.054c-.054.089-.249.154-.336.2a12.953,12.953,0,0,0-1.4.861q-.349.252-.677.53-.164.139-.323.284a2.312,2.312,0,0,1-.3.285h0c-.059-.017-.007-.066.013-.1a3.478,3.478,0,0,1,.336-.565,4.954,4.954,0,0,1,.477-.5,7.9,7.9,0,0,1,1.1-.829c.314-.2.637-.39.959-.579a7.259,7.259,0,0,0,.936-.572.8.8,0,0,0-.453-.112h-.039a3.375,3.375,0,0,0-1.521.445A5.583,5.583,0,0,0,411.984,159c-.186.188-.363.385-.532.588a15.735,15.735,0,0,1-4.678,4.818.32.32,0,0,0-.1.093C406.457,164.8,406.827,165.428,407.034,165.615Zm8.248-7.935-.006.006-.031.011A.192.192,0,0,0,415.283,157.679Z" transform="translate(-351.284 -131.228)" fill="#fff"/>
          <path id="Tracé_2387" data-name="Tracé 2387" d="M371.706,153.43l-.019.01-.056.032a2.172,2.172,0,0,0-.2.182,1.041,1.041,0,0,0-.259.639c0,.005,0,.011,0,.016a1.04,1.04,0,0,1,.262-.647A1.719,1.719,0,0,1,371.706,153.43Z" transform="translate(-321.544 -127.781)" fill="#fff"/>
          <path id="Tracé_2388" data-name="Tracé 2388" d="M390.786,154.967a.255.255,0,0,0-.134-.04c-.3,0-.566.544-.559.769a1.652,1.652,0,0,0,.284.766,3.519,3.519,0,0,0,3.065,1.931,7.18,7.18,0,0,1,1.019.115,4.406,4.406,0,0,1,1.049.47,1.722,1.722,0,0,0,.268.159l.013,0c.027.008.16.006.172.028a2.086,2.086,0,0,0-1.13-.778c-.468-.206-.958-.359-1.438-.535a5.051,5.051,0,0,1-1.768-.984,2.416,2.416,0,0,1-.677-1.086C390.891,155.576,391.006,155.1,390.786,154.967Z" transform="translate(-337.374 -129.038)" fill="#fff"/>
          <path id="Tracé_2389" data-name="Tracé 2389" d="M440.7,171.416a.948.948,0,0,0,.1-.11h0a.471.471,0,0,0,.043-.226.448.448,0,0,0-.105-.254h0a1.58,1.58,0,0,0-.732-.334,4.007,4.007,0,0,0-1.046-.115c-.135,0-.271,0-.407.007-.169,0-.2.147-.226.267-.11.44-.193.885-.331,1.318a9.224,9.224,0,0,1-.508,1.253,9.576,9.576,0,0,1-1.7,2.423c-.118.124-.221.234-.332.344a4.419,4.419,0,0,1-.52.441l.013.046a7.074,7.074,0,0,1,.75-.035h.208a4.379,4.379,0,0,0,.57-.029,1.99,1.99,0,0,0,.4-.091,1.517,1.517,0,0,0,.933-.864c.244-.566.431-1.147.72-1.685,0,0,0,0,0,0,.017-.04.035-.078.051-.117a3.155,3.155,0,0,1,.776-.979s.018,0,.021-.006c.263-.274.57-.525.855-.776.011-.01-.093-.011.045-.019C440.416,171.7,440.565,171.563,440.7,171.416Z" transform="translate(-374.828 -141.912)" fill="#fff"/>
          <path id="Tracé_2390" data-name="Tracé 2390" d="M466.274,179.548h0Z" transform="translate(-400.872 -149.53)" fill="#fff"/>
          <path id="Tracé_2391" data-name="Tracé 2391" d="M400.225,178.912a1.087,1.087,0,0,0,.45-.106,1.985,1.985,0,0,0,.542-.384c.477-.462.951-.926,1.4-1.417.4-.437-1.681-.858-1.937-.879a9.048,9.048,0,0,1-1.833-.228,1.093,1.093,0,0,0-.209-.066c-.038,0-.072.02-.107.078-.193.314.018,1.008.121,1.324a3.3,3.3,0,0,0,.695,1.2,1.358,1.358,0,0,0,.727.465A.854.854,0,0,0,400.225,178.912Z" transform="translate(-344.32 -146.446)" fill="#fff"/>
          <path id="Tracé_2392" data-name="Tracé 2392" d="M377.688,183.088a27.2,27.2,0,0,1-2.921-2.431,1.42,1.42,0,0,0-.6-.365.441.441,0,0,0-.094-.01c-.449,0-.885.653-1.087.981a4.37,4.37,0,0,0-.573,1.167c-.052.2-.119.393-.159.593-.05.244.041.361.272.361.013,0,.025,0,.039,0,.139-.007.277-.017.415-.017a6.306,6.306,0,0,1,1.731.215c.346.1.686.2,1.024.32a5.661,5.661,0,0,0,1.945.5h0c.015,0,.031.04.072.031-.356-.465-.485-.89-.048-1.347A.024.024,0,0,1,377.688,183.088Z" transform="translate(-322.487 -150.156)" fill="#fff"/>
          <path id="Tracé_2393" data-name="Tracé 2393" d="M371.245,146.618a3.455,3.455,0,0,0,1.251,1.465c.509.377,1.046.709,1.519,1.133s.962.862,1.44,1.3c.211.192.4.414.594.621.029.03.085.094.128.094h.006a1.578,1.578,0,0,0-.207-.414q-.111-.211-.229-.419a6.933,6.933,0,0,0-.511-.782c-.046-.06-.093-.118-.141-.176a6.487,6.487,0,0,0-1.183-1.084c-.387-.279-.962-.511-1.089-1.021,0-.008,0-.017-.006-.025a2.165,2.165,0,0,1-.1-.649.309.309,0,0,1,.092-.015c.17,0,.263.165.336.316a3.146,3.146,0,0,0,1,1.078c.241.181.487.355.714.553a4.985,4.985,0,0,1,.574.657c.011-.071.025-.137.032-.2a1.4,1.4,0,0,0-.2-1.035c-.131-.172-.279-.332-.425-.492a8.383,8.383,0,0,1-.591-.613,1.863,1.863,0,0,1-.2-1.864.438.438,0,0,0,.074-.271,2.371,2.371,0,0,0-.608.231c-.289.2-.539.459-.812.684a2.839,2.839,0,0,1-.346.206.934.934,0,0,1,.073-.166c.263-.339.524-.68.8-1.013a2.03,2.03,0,0,1,1.214-.676,1.825,1.825,0,0,1,.35-.03c.2,0,.407.023.612.023a2.041,2.041,0,0,0,.229-.012,5.754,5.754,0,0,0,.766-.242c.18-.072.313-.145.285-.19a1.245,1.245,0,0,0-1.132-.6,4.206,4.206,0,0,0-1.6.432,11.287,11.287,0,0,0-2.326,1.416A1.586,1.586,0,0,0,371.245,146.618Z" transform="translate(-321.56 -119.104)" fill="#fff"/>
          <path id="Tracé_2394" data-name="Tracé 2394" d="M409.021,145.008a1.05,1.05,0,0,0-.6-.182,1.467,1.467,0,0,0-.489.09,2.473,2.473,0,0,0-.9.423c-.044.04-.082.086-.127.134.348.036.677.058,1,.111a1.4,1.4,0,0,1,.454.174.748.748,0,0,1,.337.807c-.011.111-.01.222-.017.391a15.532,15.532,0,0,0,1.395-.991l-.322-.191-.729.464-.02-.022c.1-.149.2-.291.285-.447C409.517,145.327,409.391,145.262,409.021,145.008Z" transform="translate(-351.352 -120.619)" fill="#fff"/>
          <path id="Tracé_2395" data-name="Tracé 2395" d="M424.962,282.174l-.007.011a3.142,3.142,0,0,1-.825.934l-.107.069h0s0,0,0,0h0c-.477.381-1.015.668-1.529,1.01a1.511,1.511,0,0,0-.643.886,1.876,1.876,0,0,0-.058.593c.029.509.156.814.212,1.515l.047,0a4.49,4.49,0,0,1,.4-.675c.07-.1.142-.2.221-.3a9.579,9.579,0,0,1,2.078-2.107,9.242,9.242,0,0,1,1.141-.724c.4-.214.824-.374,1.237-.562.113-.051.248-.1.222-.27a4.993,4.993,0,0,0-.367-1.41,1.582,1.582,0,0,0-.46-.66h0a.537.537,0,0,0-.222-.063.207.207,0,0,0-.047,0,.472.472,0,0,0-.215.082h0c-.029.027-.033.079-.056.11-.132.178-.253.369-.382.549,0,0,0,.007,0,.007s-.014.031-.022.044C425.385,281.541,425.184,281.866,424.962,282.174Z" transform="translate(-363.901 -233.572)" fill="#fff"/>
          <path id="Tracé_2396" data-name="Tracé 2396" d="M475.2,319.845a15.574,15.574,0,0,0-.724,1.551c.164-.037.274-.055.381-.086a1.24,1.24,0,0,1,.336-.053.645.645,0,0,1,.518.24,1.392,1.392,0,0,1,.253.416c.11.308.19.627.289.963.039-.053.078-.1.109-.149a2.471,2.471,0,0,0,.254-.961,1.185,1.185,0,0,0-.287-1.059c-.187-.188-.293-.3-.43-.3a.65.65,0,0,0-.364.182c-.138.109-.26.24-.388.361l-.026-.016c.107-.263.214-.525.326-.8Z" transform="translate(-407.689 -266.39)" fill="#fff"/>
          <path id="Tracé_2397" data-name="Tracé 2397" d="M441.815,331.548a4.871,4.871,0,0,0,.634.05,1.087,1.087,0,0,0,.69-.169c.121-.109.029-.165-.046-.313a9.037,9.037,0,0,1-.553-1.762c-.06-.222-.7-1.821-1.085-1.821a.158.158,0,0,0-.127.073c-.4.527-.774,1.077-1.143,1.63a1.982,1.982,0,0,0-.281.6,1.015,1.015,0,0,0,.018.61,1.358,1.358,0,0,0,.588.632A3.3,3.3,0,0,0,441.815,331.548Z" transform="translate(-378.925 -272.799)" fill="#fff"/>
          <path id="Tracé_2398" data-name="Tracé 2398" d="M454.565,330.775a1.936,1.936,0,0,0,.663.152.975.975,0,0,0,.142-.01c.257-.038.861-.512.593-.813a.311.311,0,0,0-.243-.085c-.185,0-.411.072-.559.072h-.034a2.416,2.416,0,0,1-1.19-.471,5.052,5.052,0,0,1-1.285-1.563c-.26-.441-.5-.895-.785-1.319-.248-.366-.515-.837-.968-.972.024.008.046.14.059.165l.006.012a1.733,1.733,0,0,0,.2.235,4.413,4.413,0,0,1,.651.947,7.28,7.28,0,0,1,.3.982,3.518,3.518,0,0,0,2.45,2.669Z" transform="translate(-388.093 -271.335)" fill="#fff"/>
          <path id="Tracé_2399" data-name="Tracé 2399" d="M474.676,333.312v0c.028-.161.026-.327.052-.492.03-.194.077-.385.1-.581a2.928,2.928,0,0,0-.3-1.708.681.681,0,0,0-.328-.3.518.518,0,0,0-.189-.034.649.649,0,0,0-.372.122,1.346,1.346,0,0,0-.426,1.1.49.49,0,0,0,.089.333.3.3,0,0,0,.223.1.314.314,0,0,0,.141-.032.386.386,0,0,0,.2-.322.641.641,0,0,0-.274-.488.232.232,0,0,1,.053-.006.3.3,0,0,1,.17.057.59.59,0,0,1,.155.176,1.3,1.3,0,0,1,.193.585.563.563,0,0,1-.1.408.361.361,0,0,1-.27.128s-.01.006-.015.006a.725.725,0,0,1-.362-.174s0,.024,0,.024h-.081v-.03s.027-.032.021-.032c-.049,0-.035.032-.025.083v-.02h0c.049.2.129.518.194.765.038.144.056.486.243.486a.235.235,0,0,0,.091-.021,1.318,1.318,0,0,0,.145-.085.627.627,0,0,1,.313-.083h.019a.976.976,0,0,1,.167.043.437.437,0,0,0,.108.019A.08.08,0,0,0,474.676,333.312Z" transform="translate(-406.638 -275.01)" fill="#fff"/>
          <path id="Tracé_2400" data-name="Tracé 2400" d="M457.69,311.036a.919.919,0,0,0-.475-.143.8.8,0,0,0-.116.009c-.282.042-.563.093-.845.139-.366.06-.734.117-1.1.179a.161.161,0,0,0-.091.04c-.166.2-.327.4-.506.612a1.9,1.9,0,0,0,.736.149,3.45,3.45,0,0,0,1.362-.363,5.717,5.717,0,0,1-.556.545.947.947,0,0,1-.621.24,1.024,1.024,0,0,1-.3-.047c-.194-.059-.375-.159-.565-.232a.553.553,0,0,0-.2-.049.278.278,0,0,0-.208.1,8.84,8.84,0,0,1-.739.666c-.174.145-.169.178-.031.357a10.387,10.387,0,0,1,.609.877c.225.364.413.752.643,1.113.185.29.407.558.619.83a5.139,5.139,0,0,0,1.208,1.136,1.154,1.154,0,0,0,.353.12c-.1-.026-.227-.587-.255-.685a5.151,5.151,0,0,1-.158-.756,5.422,5.422,0,0,1,.019-1.544,5.654,5.654,0,0,1,1.288-2.688A.447.447,0,0,0,457.69,311.036Zm-.567.868a6,6,0,0,0-1.055,1.556,4.6,4.6,0,0,0-.379,1.634c-.015.236.012.474.02.744a.992.992,0,0,1-.439-.693,2.709,2.709,0,0,1-.051-1.046,2.3,2.3,0,0,1,.852-1.456c.428-.321.814-.7,1.244-1.048A1.939,1.939,0,0,1,457.123,311.9Z" transform="translate(-390.121 -258.955)" fill="#fff"/>
          <path id="Tracé_2401" data-name="Tracé 2401" d="M481.594,371.355l.016,0a1.042,1.042,0,0,0,.582-.37,2.168,2.168,0,0,0,.143-.23c.007-.02.015-.04.021-.061l.007-.02a1.693,1.693,0,0,1-.179.31A1.039,1.039,0,0,1,481.594,371.355Z" transform="translate(-413.604 -308.706)" fill="#fff"/>
          <path id="Tracé_2402" data-name="Tracé 2402" d="M451.063,340.225l-.009,0c-.046,0-.09.138-.127.316a5.694,5.694,0,0,0-.1.8c.028.4.2.763.195,1.174a2.029,2.029,0,0,1-.447,1.316c-.278.327-.567.645-.853.965a.938.938,0,0,1-.15.1,2.823,2.823,0,0,1,.14-.378c.172-.309.38-.6.527-.922a2.378,2.378,0,0,0,.118-.639.439.439,0,0,0-.254.122,1.881,1.881,0,0,1-1.053.327h-.031a1.866,1.866,0,0,1-.786-.192,8.229,8.229,0,0,1-.709-.471c-.184-.115-.368-.232-.561-.33a1.008,1.008,0,0,0-.468-.108,2.236,2.236,0,0,0-.586.1c-.064.018-.127.044-.194.067a5,5,0,0,1,.749.447c.236.188.451.4.672.6a3.147,3.147,0,0,0,1.241.794c.188.052.4.127.373.367a3.132,3.132,0,0,1-.419.036,1.411,1.411,0,0,1-.238-.019l-.026,0c-.525-.033-.856-.558-1.2-.888a6.5,6.5,0,0,0-1.279-.969q-.1-.055-.2-.107a6.971,6.971,0,0,0-.861-.362c-.15-.053-.3-.1-.453-.15a1.745,1.745,0,0,0-.432-.129h-.013c0,.044.079.091.116.116.239.158.49.3.717.473q.77.587,1.534,1.183c.5.39.925.858,1.387,1.291a3.458,3.458,0,0,0,1.666.968,1.793,1.793,0,0,0,.326.03,1.513,1.513,0,0,0,1.361-.726,11.258,11.258,0,0,0,.975-2.542C451.931,341.988,452.141,340.65,451.063,340.225Z" transform="translate(-382.055 -283.382)" fill="#fff"/>
          <path id="Tracé_2403" data-name="Tracé 2403" d="M430.755,289.426a.837.837,0,0,0-.2-.464,7.249,7.249,0,0,0-.395,1.024c-.128.351-.255.7-.4,1.047a7.889,7.889,0,0,1-.618,1.228,4.934,4.934,0,0,1-.409.56,3.492,3.492,0,0,1-.5.432c-.023.019-.05.054-.073.054s-.019-.006-.027-.022a2.091,2.091,0,0,1,.226-.345q.114-.182.222-.369.214-.373.4-.762a12.9,12.9,0,0,0,.595-1.535c.031-.094.06-.3.138-.367h-.037l-.017,0-.006,0a8.134,8.134,0,0,0-1.5.7,14.708,14.708,0,0,0-2.645,1.855q-.31.273-.6.563c-.187.184-.342.38-.513.575a4.94,4.94,0,0,0-.46.62,6.2,6.2,0,0,0-.4.738,3.227,3.227,0,0,0,.67,3.6,1.6,1.6,0,0,0,.823.273.461.461,0,0,0,.338-.114.319.319,0,0,0,.073-.119c.057-.158.118-.312.181-.463a16.85,16.85,0,0,1,3.718-5c.169-.2.331-.412.483-.629a5.591,5.591,0,0,0,.761-1.5A3.366,3.366,0,0,0,430.755,289.426Zm-.228-.369c0-.01,0-.022.006-.033l.005-.006A.206.206,0,0,0,430.527,289.056Z" transform="translate(-365.137 -240.709)" fill="#fff"/>
          <path id="Tracé_2404" data-name="Tracé 2404" d="M469.78,299.083c-.479-.628-1.037-1.193-1.527-1.812a3.451,3.451,0,0,0-.6-.652A1.09,1.09,0,0,0,467,296.4a1.164,1.164,0,0,0-.937.469.242.242,0,0,0-.039.076c-.065.236-.12.474-.192.708-.066.211-.146.418-.227.624-.057.144-.128.282-.2.442.047,0,.074.007.1.007h.018a17.92,17.92,0,0,1,2.051-.308c.038,0,.077,0,.115,0a.726.726,0,0,1,.416.1.627.627,0,0,1,.219.625c-.038.223-.224.39-.255.608a.711.711,0,0,0,.27.588c.215.186.49.285.722.449a1.6,1.6,0,0,1,.608.884,1.856,1.856,0,0,1-.117,1.111.73.73,0,0,0,.031.494c.094.193.2.267.3.267.243,0,.488-.4.613-.616a2.644,2.644,0,0,0,.295-1.724A4.8,4.8,0,0,0,469.78,299.083Z" transform="translate(-400.146 -246.89)" fill="#fff"/>
          <path id="Tracé_2405" data-name="Tracé 2405" d="M430.477,349.1a1.51,1.51,0,0,1-.672-.194.453.453,0,0,0,0,.076,6.3,6.3,0,0,0,.887,1.815c.182.31.363.624.521.946a6.594,6.594,0,0,1,.6,2.073c.025.187.1.281.235.281a.478.478,0,0,0,.176-.04c.19-.076.37-.176.555-.263a2.593,2.593,0,0,0,.366-.215,6.755,6.755,0,0,0,.679-.558c.306-.275.931-.88.744-1.336a1.416,1.416,0,0,0-.467-.526c-.188-.151-1.7-1.292-2.469-1.968-.291-.255-.476-.444-.444-.488A.846.846,0,0,1,430.477,349.1Z" transform="translate(-370.561 -290.442)" fill="#fff"/>
          <path id="Tracé_2406" data-name="Tracé 2406" d="M242.935,230.879c-.443-.068-.848-.132-1.254-.188h-.015a.277.277,0,0,0-.135.05c-.492.317-.982.639-1.473.958-.378.244-.759.483-1.134.733a1.36,1.36,0,0,0-.541.788.728.728,0,0,0,.569.8,9.174,9.174,0,0,1,4.416,1.819,8.89,8.89,0,0,1,1.7,1.812,8.423,8.423,0,0,1,.637,1.066c.073.146.531.95.447,1.084a1.8,1.8,0,0,0,.28-.517,8.164,8.164,0,0,0,.172-2.633c-.049-.548-.081-1.1-.181-1.643-.123-.673-.326-1.333-.46-2a16.659,16.659,0,0,1-.244-1.688c-.03-.327-.058-.393-.332-.393l-.091,0c-.3.01-.592.021-.888.021-.232,0-.464-.006-.695-.025l-.059,0c-.274,0-.37.169-.467.369-.142.289-.245.6-.406.876a1.456,1.456,0,0,1-1.281.751c-.074,0-.147,0-.221,0a9.379,9.379,0,0,1-1.017-.058A3.936,3.936,0,0,0,242.935,230.879Zm-.926,2.525q.147-.013.291-.013a3.815,3.815,0,0,1,2.282.833,4.437,4.437,0,0,1,1.076,1.3,1.6,1.6,0,0,1,.243,1.29c-.283-.331-.511-.641-.784-.9a7.522,7.522,0,0,0-2.215-1.535,9.665,9.665,0,0,0-2.917-.724,3.14,3.14,0,0,1-.56-.162C240.3,233.442,241.163,233.479,242.01,233.4Z" transform="translate(-210.907 -192.164)" fill="#fff"/>
          <path id="Tracé_2407" data-name="Tracé 2407" d="M267.223,265.385a5.421,5.421,0,0,0,.888-2.92c.068-1.006.051-2.011.212-3.007.164-1.012.328-2.025.5-3.036.076-.447.214-.883.322-1.324.016-.068.056-.207.009-.26a2.452,2.452,0,0,0-.377.626c-.125.218-.247.437-.364.659a10.825,10.825,0,0,0-.608,1.345q-.061.167-.115.338a10.229,10.229,0,0,0-.436,2.511c-.042.758.143,1.732-.432,2.331-.009.01-.018.02-.028.029a3.339,3.339,0,0,1-.782.678c-.292-.255-.126-.571.036-.833a4.94,4.94,0,0,0,.581-2.262c.036-.478.057-.957.127-1.431a7.849,7.849,0,0,1,.387-1.327c-.1.044-.205.079-.3.126a2.169,2.169,0,0,0-1.216,1.132c-.118.322-.2.656-.294.988a13.027,13.027,0,0,1-.313,1.313,2.85,2.85,0,0,1-1.733,1.688,2.961,2.961,0,0,1-.589.142.684.684,0,0,0-.427.126,3.886,3.886,0,0,0,.831.633c.519.225,1.078.35,1.614.533a4.6,4.6,0,0,1,.573.3c-.132.019-.2.041-.26.041H265c-.68-.075-1.362-.145-2.04-.238a3.307,3.307,0,0,1-1.949-1.086c-.45-.482-.643-1.093-1.047-1.6a9.411,9.411,0,0,0-.982-.839,1.207,1.207,0,0,0-.455-.252.044.044,0,0,0-.044.023c-.793,1.651.9,3.015,2.125,3.845a18.364,18.364,0,0,0,3.894,1.979,1.936,1.936,0,0,0,.671.118A2.664,2.664,0,0,0,267.223,265.385Z" transform="translate(-227.532 -212.293)" fill="#fff"/>
          <path id="Tracé_2408" data-name="Tracé 2408" d="M280.607,234.491c.126.808.342,1.6.518,2.4a8.094,8.094,0,0,1,.2,3.221,3.764,3.764,0,0,1-.873,1.824c-.231.255-.967.494-.958.906.008.37.417.5.827.5a1.518,1.518,0,0,0,.746-.166,2.558,2.558,0,0,0,.782-1.024,6.548,6.548,0,0,0,.759-2.395,6.713,6.713,0,0,0-.806-3.377,11.77,11.77,0,0,1-.722-1.48,7.072,7.072,0,0,1-.272-1.816,2.8,2.8,0,0,0-.017-.5l-.005-.021c-.012-.044-.13-.223-.11-.258A3.32,3.32,0,0,0,280.607,234.491Z" transform="translate(-245.156 -193.522)" fill="#fff"/>
          <path id="Tracé_2409" data-name="Tracé 2409" d="M223.394,221.551a5.526,5.526,0,0,0,.013,1.409c.1,1.257.066,2.52.191,3.774a7.779,7.779,0,0,0,1.132,3.583,4.324,4.324,0,0,0,2.214,1.732,3.526,3.526,0,0,0,.969.2c.379,0,.656-.166.474-.758a1.2,1.2,0,0,0-.5-.619c-.575-.382-1-.534-1.342-1.194a2.568,2.568,0,0,1-.253-1.7c.093-.441.3-.852.353-1.3a1.154,1.154,0,0,0-.324-.985c-.273-.226-.671-.226-.957-.45a1.02,1.02,0,0,1-.424-.974,1.332,1.332,0,0,1,.512-.681,27.8,27.8,0,0,1,2.72-1.816,1.041,1.041,0,0,0,.126-.128c-.258-.112-.49-.2-.713-.31-.318-.158-.636-.318-.942-.5-.338-.2-.661-.424-.992-.635a.4.4,0,0,0-.129-.048,1.8,1.8,0,0,0-2.13,1.4Z" transform="translate(-198.369 -183.372)" fill="#fff"/>
          <path id="Tracé_2410" data-name="Tracé 2410" d="M291.705,238.371c.074.255.028.4.287.4h0c.586,0,1.334-.844,1.668-1.247a5.049,5.049,0,0,0,1.01-1.922,2.164,2.164,0,0,0,0-1.374,1.662,1.662,0,0,0-.642-.743,3.227,3.227,0,0,0-.981-.416c-1.029-.263-2.058-.52-3.1-.718a.391.391,0,0,0-.071-.007c-.792,0,.373,3.005.559,3.361A14.614,14.614,0,0,1,291.705,238.371Z" transform="translate(-253.597 -193.527)" fill="#fff"/>
          <path id="Tracé_2411" data-name="Tracé 2411" d="M239.39,175.862h0a.67.67,0,0,0-.339.042.5.5,0,0,0-.249.266,0,0,0,0,0,0,0,2.54,2.54,0,0,0,.182,1.273,8.15,8.15,0,0,0,1.1,2.063.3.3,0,0,0,.264.149,1,1,0,0,0,.288-.064c.685-.217,1.351-.475,2.05-.649a14.5,14.5,0,0,1,2.114-.354q.712-.069,1.419-.068a15.6,15.6,0,0,1,3.285.356l.065.014a8.606,8.606,0,0,1,1.72.489l.051-.057c-.7-.891-.88-1.392-1.4-2.026a2.59,2.59,0,0,0-2.032-1.043,2.706,2.706,0,0,0-.389.015l-.168.027a17.4,17.4,0,0,1-2.708.375h-.069v.056a.663.663,0,0,1-.166.033,2.381,2.381,0,0,1-.392.032,6.62,6.62,0,0,1-1.556-.261l-.03,0c-.593-.129-1.2-.3-1.78-.476-.025-.008.087-.013-.115-.021v.006l.038.009c-.346-.077-.653-.13-1-.2A.93.93,0,0,0,239.39,175.862Z" transform="translate(-211.276 -146.456)" fill="#fff"/>
          <path id="Tracé_2412" data-name="Tracé 2412" d="M325.84,243.392c-.165-.552-.3-1.115-.42-1.677a10.206,10.206,0,0,0-.939-3.1.707.707,0,0,0-.085-.088c-.272.747-.694,1.271-1.432,1.271a1.868,1.868,0,0,1-.393-.045c.309.067-.647,5.492-.723,6.013a2.266,2.266,0,0,0,.027,1.121c.277.739,1.661.793,2.315.793h.221a6.184,6.184,0,0,0,1.834-.2c.31-.094.629-.167.932-.279.389-.143.457-.381.216-.723A10.758,10.758,0,0,1,325.84,243.392Z" transform="translate(-280.434 -198.694)" fill="#fff"/>
          <path id="Tracé_2413" data-name="Tracé 2413" d="M228.523,199.163a1.358,1.358,0,0,0,.274.76,5.528,5.528,0,0,0,1.9,1.694,9.054,9.054,0,0,0,2.511.969c.412.1.827.173,1.245.233,3.659.281,7.161.564,10.471,2.339a.522.522,0,0,0,.214.063h.032c.514,0,.972-.8,1.111-1.278a1.284,1.284,0,0,0,.035-.147c.323-1.969-1.387-4.232-3.128-4.983a10.169,10.169,0,0,0-1.228-.444,8.007,8.007,0,0,0-1.245-.256c-.411-.05-.8-.116-1.221-.136q-.548-.026-1.1-.026c-.073,0-.145,0-.218,0a22.977,22.977,0,0,0-5.091.621,12.751,12.751,0,0,0-2.5.781s-.006.025-.008.026-.033-.1-.064.1h0a1.5,1.5,0,0,1,.558.243,20.758,20.758,0,0,0,2.358,1.143q.637.264,1.292.478.327.107.658.2a3.4,3.4,0,0,1,.638.17c.018.06-.021.07-.07.07l-.067,0h-.013c-.24.012-.468.036-.7.036a2.556,2.556,0,0,1-.345-.022,7.963,7.963,0,0,1-1.084-.228,12.815,12.815,0,0,1-2.053-.8c-.54-.258-1.069-.54-1.6-.82A11.813,11.813,0,0,0,228.523,199.163Zm.083.045.013,0,.042.033A.319.319,0,0,0,228.606,199.208Z" transform="translate(-202.773 -164.887)" fill="#fff"/>
          <path id="Tracé_2414" data-name="Tracé 2414" d="M246.216,258.708a4.047,4.047,0,0,0,1.339.87c.091.026.186.039.29.06-.25-.5-.5-.967-.71-1.45a2.247,2.247,0,0,1-.157-.762,1.165,1.165,0,0,1,.791-1.13c.158-.077.306-.172.538-.3a25.2,25.2,0,0,0-2.526-1.069c.009.237.015.436.021.6l1.247.6c0,.016-.008.031-.012.046-.214,0-.428-.021-.642-.021-.067,0-.135,0-.2.006-.79.052-.77.276-.792.99A1.93,1.93,0,0,0,246.216,258.708Z" transform="translate(-216.735 -212.328)" fill="#fff"/>
          <path id="Tracé_2415" data-name="Tracé 2415" d="M260.089,266.438a.646.646,0,0,0,.445.188.52.52,0,0,0,.139-.018.484.484,0,0,0,.356-.462.8.8,0,0,0-.257-.49,2.326,2.326,0,0,0-1.558-.861,1.246,1.246,0,0,0-.135.007.942.942,0,0,0-.748.492,1.079,1.079,0,0,0-.053.707,4.792,4.792,0,0,0,1.5,2.349c.239.206.5.383.748.581.209.168.387.366.594.528h.01c.067,0,.13-.084.188-.178a1.559,1.559,0,0,1,.148-.228.974.974,0,0,1,.476-.256,2.13,2.13,0,0,0,.261-.053c.444-.153.038-.638-.09-.88-.192-.363-.37-.734-.584-1.085,0,0,0,0,0,0h0l0,0a.175.175,0,0,0-.116-.07.1.1,0,0,0-.076.047v0a1.161,1.161,0,0,1-.218.605.556.556,0,0,1-.466.154.914.914,0,0,1-.555-.378,2.106,2.106,0,0,1-.41-.9.937.937,0,0,1-.01-.372.441.441,0,0,1,.2-.3A1.041,1.041,0,0,0,260.089,266.438Z" transform="translate(-227.449 -220.549)" fill="#fff"/>
          <path id="Tracé_2416" data-name="Tracé 2416" d="M294.777,323.233a1.417,1.417,0,0,0,.28.028,1.767,1.767,0,0,0,.8-.208l.022-.014a1.749,1.749,0,0,1-.8.212,1.452,1.452,0,0,1-.288-.029,2.753,2.753,0,0,1-.545-.176l.03.017c.031.018.061.034.091.049A3.445,3.445,0,0,0,294.777,323.233Z" transform="translate(-257.434 -269.033)" fill="#fff"/>
          <path id="Tracé_2417" data-name="Tracé 2417" d="M261.149,117.512l-.335.024-.384.027c-.136.007-.275.042-.422.064l-.461.08-.484.133-.254.07c-.085.027-.167.062-.252.094l-.522.2c-.2.1-.409.2-.616.311-.009-.218-.02-.436-.035-.654a23.974,23.974,0,0,0-.653-4.067c-.067.037-.135.072-.207.1s-.117.056-.175.084c-.128.063-.273.135-.432.2a1.5,1.5,0,0,1-.552.112,1.237,1.237,0,0,1-1.236-1.146,5.445,5.445,0,0,0-.5-1.736c-.137-.274-.293-.546-.486-.871-.06-.1-.121-.2-.182-.3a5.694,5.694,0,0,1-.821-1.786,1.079,1.079,0,0,1-.021-.326c0-.018,0-.036,0-.054a4.2,4.2,0,0,1-.907-4.173.991.991,0,0,1-.236-.565,6.423,6.423,0,0,0-.106-.737,5.762,5.762,0,0,1-.107-.783,2.564,2.564,0,0,1,.582-1.844c-1.541-3.956-4.277-12.389,1.9-13.379a5.087,5.087,0,0,1,4.144,1.351,3.308,3.308,0,0,1,1.233,2.138,2.018,2.018,0,0,1-1.157,2.056,1.49,1.49,0,0,1-1.976-1c-.081-.519.165-1.108-.13-1.546a1.039,1.039,0,0,0-1.462-.072c-1.766,1.436-1.591,3.872.564,4.722a4.387,4.387,0,0,0,5.847-3.7s0-.007,0-.01a6.535,6.535,0,0,0-3.284-5.933,2.727,2.727,0,0,1-1.375.555,5.406,5.406,0,0,1-.7.037h-.208a6.1,6.1,0,0,0-.649.03,1,1,0,0,1-.1.005,1.017,1.017,0,0,1-.5-.133,4.657,4.657,0,0,1-2.141.513,3.955,3.955,0,0,1-1.66-.347c-2.193,1.7-2.279,4.164-3.21,8.592q-1.476-1.735-2.99-3.544l-.011-.094-.083-.6a31.693,31.693,0,0,0-.621-3.172,13.491,13.491,0,0,0-1.1-3.043,3.764,3.764,0,0,0-.336-.51,1.5,1.5,0,0,0-.344-.327.686.686,0,0,0-.282-.113h-.106l.1.023a.633.633,0,0,1,.232.158,1.377,1.377,0,0,1,.242.36,3.453,3.453,0,0,1,.2.532,12.865,12.865,0,0,1,.388,3.061c.017.571.012,1.141-.005,1.675l-1.263-1.5q-.934-1.109-1.884-2.227c-2.928-3.442-5.979-6.927-9.189-10.285-.181.026-.369.06-.564.1s-.386.072-.592.1a2.751,2.751,0,0,1-.412.031,2.614,2.614,0,0,1-2.036-.992,5.4,5.4,0,0,1-.423-.6,5.365,5.365,0,0,0-.352-.509,1.187,1.187,0,0,1-.233-.505,4.4,4.4,0,0,1-1.291-1.26,3.551,3.551,0,0,1-.644-2.028,1.239,1.239,0,0,1-.163-.218,4.1,4.1,0,0,1-.424-1.047q-.624-.556-1.256-1.1a20.245,20.245,0,0,0-.709-2.67,12.572,12.572,0,0,0-.751-1.754,6.034,6.034,0,0,0-.955-1.374,2.7,2.7,0,0,0-.518-.431,1.625,1.625,0,0,0-.473-.213.909.909,0,0,0-.187-.035.7.7,0,0,0-.139-.008l-.115,0,.112.019a.648.648,0,0,1,.13.034.858.858,0,0,1,.167.067,1.989,1.989,0,0,1,.774.757,8.246,8.246,0,0,1,.972,3.167c.049.369.083.739.107,1.1q-.8-.658-1.608-1.295a7.858,7.858,0,0,1-.134,3.6,1.4,1.4,0,0,1,.623.877c.027.118.056.233.085.348,2.4,2.181,4.766,4.487,7.07,6.892l-1.879.546,3.3.96q.957,1.028,1.9,2.077c.217-.038.437-.074.66-.106a3.587,3.587,0,0,1,.5-.036,3.387,3.387,0,0,1,2.657,1.318,8.707,8.707,0,0,1,.674.958,11.481,11.481,0,0,0,.736,1.056.791.791,0,0,1,.075.868c2.009.87,3.969,3.447,3.582,5.777-.005.03-.012.063-.02.1a.809.809,0,0,1,.365.211l.025.024a.961.961,0,0,1,.179.217,8.116,8.116,0,0,1,.886,2.611c1.88,2.691,3.638,5.429,5.246,8.193,2.86,4.909,8,15.666,7.538,23.184a15.9,15.9,0,0,1-4.605,9.9,18.1,18.1,0,0,1,.122-2.529,3.323,3.323,0,0,1,.243-.955.486.486,0,0,1,.167-.211.285.285,0,0,1,.092-.036.293.293,0,0,0-.1.016.538.538,0,0,0-.23.184,3.5,3.5,0,0,0-.476.924,20.668,20.668,0,0,0-.814,3.016q-.069.336-.131.671a17.41,17.41,0,0,1-5.33,3.236,1.565,1.565,0,0,0-.133-.152c-.064-.066-.128-.133-.194-.2l-.214-.18a2.507,2.507,0,0,0-.227-.163,2.049,2.049,0,0,0-.236-.145c-.081-.043-.159-.089-.242-.127l-.246-.1c-.08-.036-.165-.057-.246-.084a2.076,2.076,0,0,0-.241-.067l-.233-.051c-.076-.014-.152-.021-.225-.031a3.222,3.222,0,0,0-.407-.027,3.067,3.067,0,0,0-.339.01,2.016,2.016,0,0,0-.256.028l-.219.033.214.052a1.833,1.833,0,0,1,.239.07,2.762,2.762,0,0,1,.3.112,2.815,2.815,0,0,1,.33.163c.056.033.114.063.17.1l.167.117a1.522,1.522,0,0,1,.162.129,1.992,1.992,0,0,1,.155.138l.145.15c.046.051.087.108.13.16a1.257,1.257,0,0,1,.116.165,1.525,1.525,0,0,1,.1.167l.084.167v0c-4.679,1.249-9.534-.07-12.31-5.543-2.728-5.392-1.048-14.537,6.085-15.42a7.972,7.972,0,0,1,7.559,3.572,7.769,7.769,0,0,1-.138,8.279,4.5,4.5,0,0,1-2.873,2.074A2.489,2.489,0,0,1,235,129.16c-.265-1.283,3.541-4.947-.07-5.27a2.989,2.989,0,0,0-2.823,2.146,5.169,5.169,0,0,0,2.684,6.109,6.429,6.429,0,0,0,6.859-1.078,7.994,7.994,0,0,0,2.508-6.577,8.635,8.635,0,0,0-1.248-3.794c-.137.025-.277.052-.42.073a1.738,1.738,0,0,1-.261.02,1.622,1.622,0,0,1-1.275-.63,4.056,4.056,0,0,1-.322-.46,5.349,5.349,0,0,0-.348-.5.4.4,0,0,1-.045-.42,3.076,3.076,0,0,1-1.673-2.056,10.482,10.482,0,0,0-4.639-1.162l-.714-3.106-.738,3.21a10.413,10.413,0,0,0-2.558.722,4.092,4.092,0,0,1-.755,1.032.6.6,0,0,1-.148.1l-.018.01a.516.516,0,0,1-.232.065c0,.014,0,.026,0,.038a3.6,3.6,0,0,1-3,2.78.5.5,0,0,1-.2.491,6.777,6.777,0,0,0-.593.489,5.2,5.2,0,0,1-.548.447,2.362,2.362,0,0,1-.548.284,11.69,11.69,0,0,0-1.228,4.128l.088.08a4.316,4.316,0,0,1,.971,1.113.5.5,0,0,1,.052.143l0,.016a.422.422,0,0,1,0,.2l.031.011a3.021,3.021,0,0,1,1.609,3.052.429.429,0,0,1,.36.272,5.689,5.689,0,0,0,.268.59,4.3,4.3,0,0,1,.243.543,1.676,1.676,0,0,1-.291,1.714c-.117.137-.238.269-.355.4a7.833,7.833,0,0,0-.579.683,14.985,14.985,0,0,0,4.921,4.564,16.218,16.218,0,0,0,2.375,1.106c0,.062-.018.138-.026.216a1.019,1.019,0,0,1-.042.186,1.46,1.46,0,0,1-.06.2l-.086.212c-.03.073-.077.142-.116.217l-.062.113-.077.108a2.409,2.409,0,0,1-.163.221l-.187.216c-.067.07-.14.134-.212.2a2.141,2.141,0,0,1-.227.193c-.08.06-.154.13-.24.182a4.894,4.894,0,0,1-.509.311,5.009,5.009,0,0,1-.513.246c-.167.077-.334.122-.486.179s-.3.082-.427.119a3.189,3.189,0,0,1-.337.072l-.3.054.3.031a3.329,3.329,0,0,0,.352.026c.136,0,.292.013.461.006s.356-.01.55-.038a5.566,5.566,0,0,0,.616-.1,5.689,5.689,0,0,0,.656-.177c.113-.031.219-.083.331-.125a2.867,2.867,0,0,0,.33-.147c.108-.056.218-.108.325-.169l.311-.2a3.643,3.643,0,0,0,.3-.22l.144-.114.132-.126c.086-.086.177-.165.254-.255l.223-.271a2.916,2.916,0,0,0,.191-.28,2.266,2.266,0,0,0,.162-.277c.046-.1.092-.191.134-.283a17.422,17.422,0,0,0,12.827-1.744.948.948,0,0,1,.237-.271,5.761,5.761,0,0,0,1.282-1.4c.165-.261.316-.533.491-.863.054-.1.106-.2.158-.305a5.063,5.063,0,0,1,.972-1.445.594.594,0,0,1,.148-.1l.018-.01a.513.513,0,0,1,.232-.065c0-.014,0-.026,0-.038a3.6,3.6,0,0,1,3-2.78.5.5,0,0,1,.2-.491,6.8,6.8,0,0,0,.594-.489,5.194,5.194,0,0,1,.548-.447q.073-.051.147-.095a25.57,25.57,0,0,0,2.542-11.266c.016-.013.031-.028.047-.041a8.586,8.586,0,0,1,.851-.654l.447-.26c.074-.042.145-.088.219-.125l.224-.1.433-.2.421-.145c.137-.043.265-.1.393-.126l.364-.085.322-.075.278-.037.532-.069-.538-.016Z" transform="translate(-193.88 -49.628)" fill="#fff"/>
          <path id="Tracé_2418" data-name="Tracé 2418" d="M334.674,175.671h.006s-.017-.144-.047-.429c-.018-.149-.039-.32-.063-.528s-.057-.43-.1-.68a23.152,23.152,0,0,0-.839-3.606,13.815,13.815,0,0,0-.738-1.836,6.616,6.616,0,0,0-.941-1.455,2.831,2.831,0,0,0-.517-.467,1.618,1.618,0,0,0-.478-.239.975.975,0,0,0-.192-.041.7.7,0,0,0-.143-.011l-.118,0,.116.02a.707.707,0,0,1,.134.037.921.921,0,0,1,.17.073,1.492,1.492,0,0,1,.391.3,2.6,2.6,0,0,1,.383.513,9.11,9.11,0,0,1,.948,3.327,20.873,20.873,0,0,1,.142,2.783C333.423,174.19,334.051,174.863,334.674,175.671Z" transform="translate(-287.684 -138.593)" fill="#fff"/>
        </g>
      </g>
    </g>
  </g>
</svg>
