<svg width="23" height="24" viewBox="0 0 23 24" fill="none" xmlns="http://www.w3.org/2000/svg">
<g clip-path="url(#clip0_15_8256)">
<path d="M11.4987 5.78362C9.95227 5.78362 8.46921 6.40834 7.37574 7.52034C6.28227 8.63234 5.66797 10.1405 5.66797 11.7131C5.66797 13.2858 6.28227 14.794 7.37574 15.906C8.46921 17.018 9.95227 17.6427 11.4987 17.6427C13.0451 17.6427 14.5281 17.018 15.6216 15.906C16.7151 14.794 17.3294 13.2858 17.3294 11.7131C17.3294 10.1405 16.7151 8.63234 15.6216 7.52034C14.5281 6.40834 13.0451 5.78362 11.4987 5.78362ZM11.4987 15.564C10.494 15.564 9.53057 15.1582 8.82019 14.4357C8.10982 13.7133 7.71073 12.7335 7.71073 11.7119C7.71073 10.6902 8.10982 9.71041 8.82019 8.98799C9.53057 8.26558 10.494 7.85973 11.4987 7.85973C12.5033 7.85973 13.4668 8.26558 14.1771 8.98799C14.8875 9.71041 15.2866 10.6902 15.2866 11.7119C15.2866 12.7335 14.8875 13.7133 14.1771 14.4357C13.4668 15.1582 12.5033 15.564 11.4987 15.564Z" fill="black"/>
<path d="M17.5605 6.94799C18.3112 6.94799 18.9198 6.32908 18.9198 5.56563C18.9198 4.80217 18.3112 4.18327 17.5605 4.18327C16.8098 4.18327 16.2012 4.80217 16.2012 5.56563C16.2012 6.32908 16.8098 6.94799 17.5605 6.94799Z" fill="black"/>
<path d="M22.2603 4.16019C21.9684 3.39358 21.5223 2.6974 20.9506 2.11622C20.3788 1.53503 19.6941 1.08164 18.9401 0.785074C18.0579 0.448277 17.1258 0.266165 16.1837 0.246492C14.9694 0.192634 14.5848 0.177246 11.5055 0.177246C8.42623 0.177246 8.03154 0.177246 6.82732 0.246492C5.88587 0.265159 4.95448 0.447308 4.07338 0.785074C3.31924 1.0813 2.63432 1.53456 2.06256 2.11579C1.4908 2.69702 1.04483 3.39338 0.753255 4.16019C0.422006 5.05732 0.243339 6.00526 0.224911 6.96338C0.170689 8.19698 0.154297 8.5881 0.154297 11.7208C0.154297 14.8523 0.154297 15.2511 0.224911 16.4783C0.243825 17.4375 0.421621 18.3839 0.753255 19.2828C1.04564 20.0493 1.49205 20.7454 2.06395 21.3265C2.63585 21.9077 3.32066 22.3611 4.07464 22.6579C4.95408 23.0082 5.88585 23.2034 6.82984 23.235C8.04415 23.2888 8.42875 23.3055 11.508 23.3055C14.5873 23.3055 14.982 23.3055 16.1862 23.235C17.1283 23.2155 18.0603 23.0338 18.9427 22.6977C19.6964 22.4004 20.381 21.9466 20.9526 21.3653C21.5243 20.7839 21.9705 20.0878 22.2628 19.3213C22.5944 18.4236 22.7722 17.4773 22.7911 16.5181C22.8454 15.2845 22.8617 14.8933 22.8617 11.7606C22.8617 8.62785 22.8617 8.23032 22.7911 7.00313C22.7765 6.03147 22.5969 5.06968 22.2603 4.16019ZM20.7244 16.3834C20.7163 17.1224 20.5836 17.8546 20.3323 18.548C20.1429 19.0467 19.853 19.4995 19.4812 19.8774C19.1094 20.2553 18.6639 20.5498 18.1735 20.7421C17.4992 20.9966 16.7869 21.1315 16.0677 21.1409C14.8698 21.1973 14.5318 21.2114 11.4601 21.2114C8.38588 21.2114 8.07189 21.2114 6.85128 21.1409C6.13244 21.1319 5.4205 20.997 4.74673 20.7421C4.25456 20.551 3.80731 20.257 3.43393 19.879C3.06054 19.5011 2.76933 19.0476 2.57913 18.548C2.33128 17.862 2.19871 17.1385 2.18697 16.4078C2.13275 15.1896 2.12014 14.8459 2.12014 11.7221C2.12014 8.59707 2.12014 8.27777 2.18697 7.03519C2.19512 6.29659 2.32777 5.56488 2.57913 4.87188C2.96373 3.86012 3.75183 3.06379 4.74673 2.67652C5.42083 2.4228 6.13256 2.28793 6.85128 2.27771C8.05046 2.22257 8.38714 2.20719 11.4601 2.20719C14.5331 2.20719 14.8483 2.20719 16.0677 2.27771C16.7869 2.28651 17.4993 2.42143 18.1735 2.67652C18.6639 2.86922 19.1093 3.16407 19.4811 3.54214C19.8528 3.92021 20.1428 4.37315 20.3323 4.87188C20.5801 5.55787 20.7127 6.28138 20.7244 7.0121C20.7786 8.23161 20.7925 8.57399 20.7925 11.699C20.7925 14.8228 20.7925 15.1588 20.7383 16.3847H20.7244V16.3834Z" fill="black"/>
</g>
<defs>
<clipPath id="clip0_15_8256">
<rect width="23" height="23.3898" fill="white" transform="translate(0 0.0169525)"/>
</clipPath>
</defs>
</svg>
