<svg width="25" height="26" viewBox="0 0 25 26" fill="none" xmlns="http://www.w3.org/2000/svg">
<path d="M5.1903 7.62394C6.44905 7.62394 7.46947 6.58623 7.46947 5.30615C7.46947 4.02606 6.44905 2.98835 5.1903 2.98835C3.93155 2.98835 2.91113 4.02606 2.91113 5.30615C2.91113 6.58623 3.93155 7.62394 5.1903 7.62394Z" fill="black"/>
<path d="M9.62155 9.3803V22.2394H13.5476V15.8803C13.5476 14.2023 13.858 12.5773 15.9038 12.5773C17.9215 12.5773 17.9465 14.4958 17.9465 15.9862V22.2405H21.8747V15.1886C21.8747 11.7246 21.1413 9.0625 17.1601 9.0625C15.2486 9.0625 13.9674 10.1292 13.4434 11.1388H13.3903V9.3803H9.62155ZM3.22363 9.3803H7.15592V22.2394H3.22363V9.3803Z" fill="black"/>
</svg>
