<svg xmlns="http://www.w3.org/2000/svg" width="100" height="100" viewBox="0 0 100 100">
  <g id="Groupe_332" data-name="Groupe 332" transform="translate(-562.5 -1528.5)">
    <rect id="Rectangle_109" data-name="Rectangle 109" width="100" height="100" transform="translate(562.5 1528.5)" fill="none"/>
    <g id="Groupe_324" data-name="Groupe 324" transform="translate(574.476 1540.476)">
      <path id="Tracé_2303" data-name="Tracé 2303" d="M122,180h2.232V204.85H122Z" transform="translate(-104.091 -153.736)" fill="#fff"/>
      <path id="Tracé_2304" data-name="Tracé 2304" d="M174,0H127.03L122,5.051V24.23h2.194V19.825H176.84V68.58h-9.871v2.2h8.32l-2.194,2.2H132.968v2.2H174l5.03-5.051V5.051ZM127.938,2.2H173.1l2.194,2.2H125.745Zm-3.745,15.419V6.608H176.84V17.622Z" transform="translate(-103.846)" fill="#fff"/>
      <path id="Tracé_2305" data-name="Tracé 2305" d="M184.5,203.217A19.717,19.717,0,1,0,204.217,183.5,19.739,19.739,0,0,0,184.5,203.217Zm37.2,0a17.485,17.485,0,1,1-17.484-17.484A17.5,17.5,0,0,1,221.7,203.217Z" transform="translate(-158.045 -157.194)" fill="#fff"/>
      <path id="Tracé_2306" data-name="Tracé 2306" d="M214.45,228.71a15.26,15.26,0,0,0,25.166,11.608l-1.45-1.7a13.028,13.028,0,0,1-21.484-9.911c0-.376.017-.748.048-1.116h10.285l4.464,4.464H242.3a13.014,13.014,0,0,1-2.678,5.108l1.7,1.45a15.26,15.26,0,1,0-26.868-9.906Zm27.851-3.348H234.75v2.232h7.939c.031.368.048.74.048,1.116s-.017.746-.049,1.116H232.4l-4.464-4.464H217.119a13.029,13.029,0,0,1,25.182,0Z" transform="translate(-183.237 -182.383)" fill="#fff"/>
      <path id="Tracé_2307" data-name="Tracé 2307" d="M440.348,60a3.348,3.348,0,1,0,3.348,3.348A3.352,3.352,0,0,0,440.348,60Zm0,4.464a1.116,1.116,0,1,1,1.116-1.116A1.117,1.117,0,0,1,440.348,64.464Z" transform="translate(-372.972 -51.072)" fill="#fff"/>
      <path id="Tracé_2308" data-name="Tracé 2308" d="M380.349,60a3.348,3.348,0,1,0,3.348,3.348A3.352,3.352,0,0,0,380.349,60Zm0,4.464a1.116,1.116,0,1,1,1.116-1.116A1.117,1.117,0,0,1,380.349,64.464Z" transform="translate(-321.709 -51.072)" fill="#fff"/>
      <path id="Tracé_2309" data-name="Tracé 2309" d="M320.35,60a3.348,3.348,0,1,0,3.348,3.348A3.352,3.352,0,0,0,320.35,60Zm0,4.464a1.116,1.116,0,1,1,1.116-1.116A1.117,1.117,0,0,1,320.35,64.464Z" transform="translate(-270.509 -51.072)" fill="#fff"/>
      <path id="Tracé_2310" data-name="Tracé 2310" d="M152,66.7h15.624V60H152Zm2.232-4.464h11.16v2.232h-11.16Z" transform="translate(-129.755 -51.072)" fill="#fff"/>
      <path id="Tracé_2311" data-name="Tracé 2311" d="M2.886,362,0,364.886v3.157l1.77,1.77L0,371.582v3.157l1.77,1.77L0,378.278v3.157l2.886,2.886H24.2l2.886-2.886v-3.157l-1.77-1.77,1.77-1.77v-3.157l-1.77-1.77,1.77-1.77v-3.157L24.2,362ZM24.85,380.51l-1.578,1.578H3.81L2.232,380.51V379.2l1.578-1.578h4v-2.232h-4l-1.578-1.578v-1.308l1.578-1.578H23.272l1.578,1.578v1.308l-1.578,1.578H10.044v2.232H23.272L24.85,379.2Zm0-13.392L23.272,368.7H3.81l-1.578-1.578V365.81l1.578-1.578H23.272l1.578,1.578Z" transform="translate(0 -309.132)" fill="#fff"/>
      <path id="Tracé_2312" data-name="Tracé 2312" d="M227,474.5h2.232v2.232H227Z" transform="translate(-193.677 -404.891)" fill="#fff"/>
      <path id="Tracé_2313" data-name="Tracé 2313" d="M392,150h2.232v2.232H392Z" transform="translate(-334.458 -127.98)" fill="#fff"/>
      <path id="Tracé_2314" data-name="Tracé 2314" d="M197,474.5h2.232v2.232H197Z" transform="translate(-168.081 -404.891)" fill="#fff"/>
      <path id="Tracé_2315" data-name="Tracé 2315" d="M422,150h8.928v2.232H422Z" transform="translate(-360.205 -127.98)" fill="#fff"/>
    </g>
  </g>
</svg>
