<svg xmlns="http://www.w3.org/2000/svg" width="100" height="100" viewBox="0 0 100 100">
  <g id="Groupe_329" data-name="Groupe 329" transform="translate(-562.5 -1103.5)">
    <rect id="Rectangle_106" data-name="Rectangle 106" width="100" height="100" transform="translate(562.5 1103.5)" fill="none"/>
    <g id="Groupe_322" data-name="Groupe 322" transform="translate(573.883 1106.565)">
      <g id="Groupe_321" data-name="Groupe 321" transform="translate(0)">
        <path id="Tracé_2292" data-name="Tracé 2292" d="M220.032,400.918a4.887,4.887,0,0,0-6.527.2,5.543,5.543,0,0,0,0,7.645l.02.02,5.151,5.109a1.385,1.385,0,0,0,.12.106l.058.046a1.673,1.673,0,0,0,2.356,0l.058-.046a1.385,1.385,0,0,0,.12-.106l5.151-5.109.02-.02a5.543,5.543,0,0,0,0-7.642,4.887,4.887,0,0,0-6.529-.205Zm4.562,5.93-4.562,4.525-4.562-4.525a2.812,2.812,0,0,1,.01-3.821c.852-.885,2.276-.5,3.187.317.061.057.113.106.156.148a1.552,1.552,0,0,0,2.416,0c.043-.042.094-.09.156-.147.914-.814,2.339-1.2,3.19-.316a2.812,2.812,0,0,1,.009,3.82Z" transform="translate(-182.047 -327.616)" fill="#fff"/>
        <path id="Tracé_2293" data-name="Tracé 2293" d="M202.728,162.709a1.372,1.372,0,0,0-1.372,1.372v1.058a1.372,1.372,0,1,0,2.745,0v-1.058A1.372,1.372,0,0,0,202.728,162.709Z" transform="translate(-173.254 -133.265)" fill="#fff"/>
        <path id="Tracé_2294" data-name="Tracé 2294" d="M297.006,166.512a1.372,1.372,0,0,0,1.372-1.372v-1.058a1.372,1.372,0,1,0-2.745,0v1.058A1.372,1.372,0,0,0,297.006,166.512Z" transform="translate(-250.512 -133.265)" fill="#fff"/>
        <path id="Tracé_2295" data-name="Tracé 2295" d="M230.842,223.148a7.4,7.4,0,0,0,5.345-2.386,1.372,1.372,0,1,0-1.98-1.9,4.661,4.661,0,0,1-3.452,1.541,4.274,4.274,0,0,1-3.129-1.5,1.372,1.372,0,1,0-2.058,1.816,6.989,6.989,0,0,0,5.129,2.427Z" transform="translate(-192.871 -178.915)" fill="#fff"/>
        <path id="Tracé_2296" data-name="Tracé 2296" d="M121.605,89.245,118.943,70.1a14.138,14.138,0,0,0-6.046-9.529c-3.908-3.437-5.4-16.725-5.5-28.357a5.371,5.371,0,0,0,1.092-3.383V27.074a4.189,4.189,0,0,0-1.1-2.836v-.351A23.9,23.9,0,0,0,83.684,0h-.012A23.9,23.9,0,0,0,59.965,23.887v.351a4.19,4.19,0,0,0-1.1,2.836v1.755a5.37,5.37,0,0,0,1.1,3.388c-.024,2.555-.124,6.239-.448,10.143a3.423,3.423,0,0,0,.017,1.508,1.353,1.353,0,0,0,2.254.414,2.172,2.172,0,0,0,.405-1.4c.009-.108.018-.215.025-.308.26-3.129.378-6.12.428-8.522a8.54,8.54,0,0,0,1.717.393c.549,5.386,4.474,11.266,9.654,14.9v3.7c-.035.012-10.149,2.591-14.525,4.608a1.382,1.382,0,0,0-.141.014A40.333,40.333,0,0,0,61.3,50.037a1.355,1.355,0,1,0-2.671-.457c-1.2,7.014-2.89,9.854-4.176,10.989A14.137,14.137,0,0,0,48.413,70.1L45.75,89.249a3.125,3.125,0,0,0,.539,2.541,3.34,3.34,0,0,0,2.667.9H118.4a3.342,3.342,0,0,0,2.673-.907,3.117,3.117,0,0,0,.532-2.542ZM108.028,57.668a1.337,1.337,0,0,0-.16-.017c-4.377-2.017-14.491-4.6-14.525-4.608v-3.7c5.181-3.63,9.105-9.511,9.654-14.9a8.545,8.545,0,0,0,1.718-.393c.14,7.287.832,17.228,3.313,23.618Zm-2.246-30.594v1.755c0,1.848-1.283,2.6-2.718,2.862V25.609h1.292A1.465,1.465,0,0,1,105.782,27.074ZM64.292,31.691c-1.434-.263-2.718-1.014-2.718-2.862V27.074A1.465,1.465,0,0,1,63,25.609h1.292ZM62.7,22.906a21,21,0,0,1,41.96,0c-.1-.007-3.7-.011-3.7-.011-5.92.01-18.247.034-23.381-5.34l-2.5-2.617-.021-.022a1.658,1.658,0,0,0-2.555,0,1.359,1.359,0,0,0-.2.255,28.6,28.6,0,0,0-1.517,2.99c-1.425,3.11-2.3,4.733-5.144,4.733,0,0-2.848.005-2.948.012ZM67,33.171V25.507c3.672-.583,5.034-3.557,6.251-6.214.238-.52.481-1.051.742-1.569l1.63,1.707c5.666,5.931,17.864,6.179,24.44,6.179h.291v7.56c0,6.084-5.9,13.614-12.632,16.114a10.286,10.286,0,0,1-8.091,0C72.9,46.785,67,39.255,67,33.171Zm23.632,17.8v2.121a6.955,6.955,0,1,1-13.909,0V50.966a19.3,19.3,0,0,0,1.969.865,12.956,12.956,0,0,0,9.972,0,19.264,19.264,0,0,0,1.968-.864ZM48.956,89.978a4.279,4.279,0,0,1-.552-.029,3.24,3.24,0,0,1,.03-.33L51.1,70.472c.561-4.037,3.37-6.92,7.055-9.065-.115,2.837-.43,5.523-.739,8.137-.835,7.063-1.626,13.773,2.4,20.435Zm14.107,0c-4.59-6.317-3.869-12.431-2.96-20.115A93.368,93.368,0,0,0,60.9,60c1.208-.546,2.465-1.034,3.735-1.477v8.61a2.251,2.251,0,0,0,2.245,2.251H80.621a1.358,1.358,0,0,0,0-2.716H67.344V57.648c2.139-.644,4.24-1.179,6.124-1.659l.921-.235a9.655,9.655,0,0,0,18.578,0l.921.235c1.884.48,3.985,1.015,6.124,1.659v9.021H87.032a1.358,1.358,0,0,0,0,2.716h13.45a2.248,2.248,0,0,0,2.24-2.251v-8.61c1.27.442,2.528.93,3.735,1.477a93.373,93.373,0,0,0,.8,9.863c.909,7.684,1.629,13.8-2.96,20.115H63.063Zm55.337,0H107.544c4.026-6.662,3.235-13.371,2.4-20.434-.309-2.614-.623-5.3-.739-8.137,3.685,2.146,6.494,5.028,7.055,9.066l2.662,19.148c.02.142.028.249.031.329A4.322,4.322,0,0,1,118.4,89.978Z" transform="translate(-45.694)" fill="#fff"/>
      </g>
    </g>
  </g>
</svg>
