<svg xmlns="http://www.w3.org/2000/svg" width="100" height="100" viewBox="0 0 100 100">
  <g id="Groupe_330" data-name="Groupe 330" transform="translate(-970.5 -1103.5)">
    <rect id="Rectangle_107" data-name="Rectangle 107" width="100" height="100" transform="translate(970.5 1103.5)" fill="none"/>
    <g id="Groupe_323" data-name="Groupe 323" transform="translate(980.1 1111.912)">
      <path id="Tracé_2297" data-name="Tracé 2297" d="M194.422,149.715c-.326.141-.651.29-.966.442a1,1,0,0,0,.871,1.8h0c.289-.14.588-.277.887-.406a1,1,0,0,0-.791-1.833Z" transform="translate(-163.498 -126.054)" fill="#fff"/>
      <path id="Tracé_2298" data-name="Tracé 2298" d="M147.054,161.765a22.557,22.557,0,0,0-6.229,6.182,1,1,0,1,0,1.653,1.12l0-.006a20.566,20.566,0,0,1,5.682-5.636,1,1,0,0,0-1.11-1.66Z" transform="translate(-119.858 -136.074)" fill="#fff"/>
      <path id="Tracé_2299" data-name="Tracé 2299" d="M69.758,457.022a2.95,2.95,0,1,0,2.95-2.95h0A2.953,2.953,0,0,0,69.758,457.022Zm3.9,0a.953.953,0,1,1-.954-.953h0A.954.954,0,0,1,73.661,457.022Z" transform="translate(-60.47 -380.537)" fill="#fff"/>
      <path id="Tracé_2300" data-name="Tracé 2300" d="M89.787,44.933H87.711C84.7,31.8,72.952,22.067,58.818,20.642V17.315a6.31,6.31,0,0,0,2.514-4.992,6.16,6.16,0,1,0-12.321,0,5.926,5.926,0,0,0,2.575,4.992v3.327C37.29,22.067,25.562,31.8,22.554,44.933H20.548a3.756,3.756,0,0,0-3.785,3.584,3.7,3.7,0,0,0,3.594,3.813l.121,0h.193l.641,3.471a4.2,4.2,0,0,0,4.13,3.434H36.655A14.4,14.4,0,0,0,33.4,61.078c-.022.016-.043.033-.063.051L31.345,62.9a6.821,6.821,0,0,1-2.576,1.436l-.039-.146a1.655,1.655,0,0,0-1.569-1.176H15.587A1.674,1.674,0,0,0,14,65.134l6.116,21.981A1.665,1.665,0,0,0,21.7,88.336H33.95a1.662,1.662,0,0,0,1.572-2.143L33.9,80.87l5.855-3.7a3.472,3.472,0,0,1,2.53-.327l.062.013,12.031,2.216a15.611,15.611,0,0,0,1.651.209,15.208,15.208,0,0,0,9.656-2.683l19.3-13.257a.987.987,0,0,0,.287-1.322,5.8,5.8,0,0,0-4.319-2.778h3.771a4.212,4.212,0,0,0,4.112-3.342l.741-3.563h.143A3.756,3.756,0,0,0,93.5,48.748a3.7,3.7,0,0,0-3.594-3.813ZM50.944,12.323a4.189,4.189,0,1,1,4.189,4.19h0A4.194,4.194,0,0,1,50.944,12.323Zm5.9,5.941V20.5c-.657-.024-1.1-.038-1.643-.038s-1.15.013-1.643.038V18.264a6.055,6.055,0,0,0,1.643.222A7.054,7.054,0,0,0,56.846,18.264Zm-1.714,4.169c14.676,0,27.319,9.391,30.551,22.5h-61.1C27.814,31.826,40.46,22.434,55.133,22.434ZM21.952,86.364,16.019,64.991H26.936L33.51,86.364ZM83.009,62.3,64.567,74.966a13.237,13.237,0,0,1-8.4,2.342,13.61,13.61,0,0,1-1.438-.182l-12-2.21a5.434,5.434,0,0,0-3.962.538l-.046.027L33.3,78.914,29.355,66.228a8.8,8.8,0,0,0,3.3-1.849l1.962-1.747a12.28,12.28,0,0,1,12.753-1.225l.825.4a10.557,10.557,0,0,0,4.572,1.048h8a4.974,4.974,0,0,1,4.856,3.929l-5.688-.257a34.744,34.744,0,0,0-6.329.292.987.987,0,0,0,.271,1.954h0a32.813,32.813,0,0,1,5.97-.276l6.827.309h.045a.986.986,0,0,0,.986-.986c0-.128,0-.255-.011-.381l10.775-5.8A3.83,3.83,0,0,1,83.009,62.3ZM47.342,59.237H61.768l-3.022,1.644H52.768a8.575,8.575,0,0,1-3.713-.851l-.825-.4Q47.79,59.418,47.342,59.237ZM64.8,62.177a6.913,6.913,0,0,0-2.321-1.083l1.707-.928.023-.013a4.516,4.516,0,0,1,4.346,0Zm7.475-1.788a2.939,2.939,0,0,1,3.157.643l-8.151,4.395a6.947,6.947,0,0,0-1-1.808Zm4.094-1.152h3.262a5.807,5.807,0,0,0-2.1.662l-.291.157A5.288,5.288,0,0,0,76.372,59.237Zm13.415-8.878H37.29a.986.986,0,0,0,0,1.973H87.561L86.9,55.493a2.232,2.232,0,0,1-2.181,1.77H25.442a2.223,2.223,0,0,1-2.19-1.819l-.575-3.113H31.7a.986.986,0,0,0,0-1.973H20.515a1.763,1.763,0,0,1-1.782-1.718,1.731,1.731,0,0,1,1.727-1.735H89.75a1.763,1.763,0,0,1,1.782,1.718,1.731,1.731,0,0,1-1.727,1.735Z" transform="translate(-13.944 -6.16)" fill="#fff"/>
    </g>
  </g>
</svg>
