<svg xmlns="http://www.w3.org/2000/svg" width="100" height="100" viewBox="0 0 100 100">
  <g id="Groupe_328" data-name="Groupe 328" transform="translate(-153.5 -1521.5)">
    <rect id="Rectangle_110" data-name="Rectangle 110" width="100" height="100" transform="translate(153.5 1521.5)" fill="none"/>
    <g id="Bar_Service" data-name="Bar Service" transform="translate(165.476 1534.071)">
      <path id="Tracé_2301" data-name="Tracé 2301" d="M89.85,273.794a4.927,4.927,0,0,0-6.748-1.838L60.663,285.208a6.252,6.252,0,0,0-6.2-6.259h-24.8a1.272,1.272,0,0,0-.3.036l-3.474.88a3.733,3.733,0,0,0-3.686-3.431H19.722A3.747,3.747,0,0,0,16,280.206v22.631a3.747,3.747,0,0,0,3.722,3.772H22.2a3.733,3.733,0,0,0,3.686-3.415l3.461.864a1.24,1.24,0,0,0,.3.036H46.692a6.149,6.149,0,0,0,3.125-.855l38.233-22.577A5.106,5.106,0,0,0,89.85,273.794ZM23.444,302.837a1.249,1.249,0,0,1-1.241,1.257H19.722a1.249,1.249,0,0,1-1.241-1.257V280.206a1.249,1.249,0,0,1,1.241-1.257H22.2a1.249,1.249,0,0,1,1.241,1.257ZM86.8,278.491,48.567,301.067a3.685,3.685,0,0,1-1.875.513H29.8l-3.872-.967V282.447l3.891-.983H54.46a3.771,3.771,0,0,1,3.192,5.7,3.929,3.929,0,0,1-.552.737,3.72,3.72,0,0,1-2.64,1.109H42.054v2.515H54.46a6.09,6.09,0,0,0,5.14-2.776L84.344,274.13a2.423,2.423,0,0,1,3.337.893l.013.023A2.56,2.56,0,0,1,86.8,278.491Z" transform="translate(-16 -232.171)" fill="#fff"/>
      <path id="Tracé_2302" data-name="Tracé 2302" d="M91.7,57.491h44.406a3.773,3.773,0,0,0,0-7.544H122.414a6.209,6.209,0,0,0-6.044-5.029h-1.233V40.291l12.1-17.274a1.273,1.273,0,0,0-.287-1.754,1.218,1.218,0,0,0-.716-.234h-2.467V18.515h8.634V16h-9.868a1.246,1.246,0,0,0-1.233,1.257v3.772H111.209a3.8,3.8,0,0,0,.227-1.257,3.7,3.7,0,1,0-7.4,0,3.793,3.793,0,0,0,.227,1.257h-2.694a1.246,1.246,0,0,0-1.232,1.258,1.274,1.274,0,0,0,.23.729l12.1,17.274v4.627h-1.233a6.209,6.209,0,0,0-6.044,5.029H91.7a3.773,3.773,0,0,0,0,7.544Zm22.2-19.766-5.961-8.507a5.641,5.641,0,0,0,2.668.612,6,6,0,0,0,4.034-1.509,3.725,3.725,0,0,1,5.089,0c.158.126.327.251.5.371Zm-7.4-17.953a1.234,1.234,0,1,1,1.233,1.257A1.246,1.246,0,0,1,106.5,19.772Zm17.339,3.772-2.167,3.1c-.15-.107-.3-.214-.46-.336a6.133,6.133,0,0,0-8.049,0,3.733,3.733,0,0,1-5.094.006,6.152,6.152,0,0,0-3.181-1.446l-.925-1.32ZM111.436,47.432h4.934a3.706,3.706,0,0,1,3.474,2.515H107.963A3.706,3.706,0,0,1,111.436,47.432ZM91.7,52.462h44.406a1.258,1.258,0,0,1,0,2.515H91.7a1.258,1.258,0,0,1,0-2.515Z" transform="translate(-76.684 -16)" fill="#fff"/>
    </g>
  </g>
</svg>
