<svg width="26" height="23" viewBox="0 0 26 23" fill="none" xmlns="http://www.w3.org/2000/svg">
<path d="M23.6342 19.8903V18.4572C23.6342 18.1978 23.4289 17.9878 23.1661 17.9878H3.69671C3.43394 17.9878 3.22455 18.1978 3.22455 18.4572V19.8903C2.55121 20.2486 0.974609 21.2204 0.974609 22.5259C0.974609 22.7894 1.184 22.9994 1.44677 22.9994H25.4161C25.6747 22.9994 25.8882 22.7647 25.8882 22.5053C25.8882 21.2163 24.3075 20.2445 23.6383 19.8903H23.6342ZM2.05441 22.0564C2.42804 21.4099 3.475 20.8045 3.89379 20.611C4.05802 20.5327 4.16476 20.3639 4.16476 20.1827V18.9308H22.694V20.1827C22.694 20.368 22.8007 20.5327 22.969 20.611C23.4864 20.8498 24.4471 21.4469 24.8043 22.0523H2.05441V22.0564ZM8.88636 8.30619C7.12089 9.13804 6.01235 10.4846 5.67978 12.1978C5.66542 12.2463 5.66135 12.2973 5.66783 12.3475C5.67432 12.3977 5.69121 12.4459 5.71743 12.4892C5.74364 12.5324 5.7786 12.5697 5.82004 12.5986C5.86149 12.6274 5.90851 12.6473 5.95807 12.6568C6.00762 12.6663 6.05862 12.6654 6.10778 12.6539C6.15693 12.6425 6.20316 12.6209 6.24347 12.5904C6.28378 12.56 6.31729 12.5214 6.34183 12.4772C6.36638 12.433 6.38141 12.3841 6.38597 12.3337C6.74727 10.4682 8.11038 9.46749 9.19429 8.95685C9.26978 8.90988 9.32538 8.83667 9.35046 8.75119C9.37553 8.66572 9.36834 8.57398 9.33025 8.49349C9.29215 8.413 9.22583 8.3494 9.14395 8.31485C9.06207 8.2803 8.97037 8.27722 8.88636 8.30619Z" fill="#040348"/>
<path d="M2.67034 16.917H24.5539C24.6628 16.917 24.7673 16.8736 24.8443 16.7964C24.9213 16.7192 24.9645 16.6144 24.9645 16.5052V14.405C24.9645 14.2958 24.9213 14.191 24.8443 14.1138C24.7673 14.0366 24.6628 13.9932 24.5539 13.9932H23.6589C23.4947 8.28144 19.2863 5.81884 15.1313 5.32879V4.09749H15.2052C15.6603 4.09749 16.0969 3.91613 16.4187 3.59332C16.7406 3.2705 16.9214 2.83267 16.9214 2.37614C16.9214 1.91961 16.7406 1.48177 16.4187 1.15896C16.0969 0.836142 15.6603 0.654785 15.2052 0.654785H11.7728C11.3176 0.654785 10.8811 0.836142 10.5592 1.15896C10.2374 1.48177 10.0566 1.91961 10.0566 2.37614C10.0566 2.83267 10.2374 3.2705 10.5592 3.59332C10.8811 3.91613 11.3176 4.09749 11.7728 4.09749H11.8426V5.34114C7.47406 5.88885 3.49149 8.6356 3.32726 13.9891H2.67034C2.56145 13.9891 2.45702 14.0325 2.38002 14.1097C2.30302 14.1869 2.25977 14.2917 2.25977 14.4009V16.5052C2.25977 16.6144 2.30302 16.7192 2.38002 16.7964C2.45702 16.8736 2.56145 16.917 2.67034 16.917ZM11.198 2.37614C11.198 2.05905 11.4566 1.79961 11.7728 1.79961H15.2011C15.3535 1.79961 15.4997 1.86035 15.6075 1.96847C15.7153 2.07659 15.7759 2.22323 15.7759 2.37614C15.7759 2.52904 15.7153 2.67568 15.6075 2.7838C15.4997 2.89192 15.3535 2.95267 15.2011 2.95267H11.7728C11.6203 2.95267 11.4741 2.89192 11.3663 2.7838C11.2585 2.67568 11.198 2.52904 11.198 2.37614ZM12.635 4.09749H14.343V5.25466C14.0638 5.23819 13.7887 5.22996 13.5136 5.22996H13.4151C13.1523 5.22996 12.8936 5.24643 12.635 5.2629V4.09749ZM13.4192 6.20594H13.5136C17.6317 6.20594 22.4231 8.3638 22.6817 13.9891H4.29211C4.55488 8.4091 9.32164 6.23476 13.4192 6.20594ZM3.08091 14.8127H3.75836L3.79532 14.8209H23.1785L23.2196 14.8127H24.1434V16.0975H3.08091V14.8168V14.8127Z" fill="#040348"/>
</svg>
