<svg width="297" height="106" viewBox="0 0 297 106" fill="none" xmlns="http://www.w3.org/2000/svg">
<path d="M28.6533 66.2546C28.6533 69.7654 28.6533 72.6527 28.8401 74.193C28.9459 75.2531 29.1638 76.0575 30.2593 76.2072C30.7698 76.2757 31.5728 76.3506 31.9027 76.3506C32.1206 76.3506 32.1953 76.4566 32.1953 76.5688C32.1953 76.7559 32.0085 76.8619 31.6101 76.8619C29.5995 76.8619 27.3025 76.7497 27.1158 76.7497C26.9352 76.7497 24.632 76.8619 23.5364 76.8619C23.138 76.8619 22.9513 76.7871 22.9513 76.5688C22.9513 76.4566 23.026 76.3506 23.2439 76.3506C23.6129 76.3391 23.9799 76.291 24.3395 76.2072C25.074 76.0575 25.2545 75.2531 25.3977 74.193C25.5844 72.6527 25.5844 69.7654 25.5844 66.2546V50.7708C23.7917 50.802 21.9678 50.802 20.175 50.8394C17.9154 50.8768 17.0376 51.1325 16.4525 52.0118C16.0541 52.6353 15.9421 52.891 15.83 53.1467C15.7242 53.4398 15.6121 53.5146 15.469 53.5146C15.3569 53.5146 15.2822 53.4024 15.2822 53.1841C15.2822 52.8162 16.0168 49.6733 16.0915 49.3802C16.1599 49.1557 16.3093 48.6818 16.4525 48.6818C16.7077 48.6818 17.075 49.0497 18.0585 49.1183C19.1168 49.2305 20.5049 49.3054 20.9469 49.3054H34.6417C35.8119 49.3054 36.6523 49.2305 37.2374 49.1183C37.7852 49.0497 38.1089 48.9374 38.2583 48.9374C38.4451 48.9374 38.4451 49.1557 38.4451 49.374C38.4451 50.4777 38.333 53.0033 38.333 53.4024C38.333 53.7329 38.221 53.8763 38.0778 53.8763C37.8911 53.8763 37.8226 53.7703 37.7852 53.2527C37.7852 53.1093 37.7479 53.0033 37.7479 52.8536C37.6358 51.7561 36.7581 50.9142 33.2535 50.8394C31.7222 50.802 30.1846 50.802 28.6471 50.7708V66.2484L28.6533 66.2546ZM44.9439 62.3322C44.9439 57.5056 44.9439 56.6326 44.8692 55.6411C44.7945 54.6558 44.5392 54.107 43.4063 53.8825C43.1179 53.8386 42.8266 53.8156 42.5348 53.8139C42.2796 53.8139 42.1302 53.7391 42.1302 53.5894C42.1302 53.446 42.2423 53.34 42.566 53.34C44.1409 53.34 46.3631 53.446 46.4441 53.446C46.7678 53.446 49.2515 53.34 50.2786 53.34C52.3204 53.34 54.5489 53.5208 56.267 54.7244C56.9538 55.2465 57.5096 55.922 57.89 56.6971C58.2703 57.4722 58.4649 58.3256 58.4581 59.1893C58.4581 61.2035 57.4746 63.7665 54.5862 66.1112C57.2505 69.3975 59.4417 72.1039 61.3091 74.0433C63.0583 75.8392 64.1539 76.1323 65.181 76.2757C65.43 76.3132 66.2019 76.3506 66.3077 76.3506C66.6003 76.3506 66.7123 76.4566 66.7123 76.6063C66.7123 76.7933 66.5629 76.8619 66.0525 76.8619H63.5003C61.7822 76.8619 60.9792 76.7497 60.1762 76.4254C58.6386 75.7644 57.5431 74.1181 55.6445 71.6674C54.219 69.9089 52.7623 67.9321 52.1399 67.1651C51.9905 67.0216 51.922 66.9468 51.7041 66.9468L47.938 66.9094C47.7949 66.9094 47.7513 66.9468 47.7513 67.0965V67.6078C47.7513 70.5325 47.7513 73.2014 47.938 74.5172C48.0501 75.3965 48.1559 76.1323 49.3635 76.2757C49.7308 76.3132 50.1292 76.3506 50.4218 76.3506C50.7517 76.3506 50.8949 76.4566 50.8949 76.5688C50.8949 76.7559 50.7517 76.8619 50.3844 76.8619C48.4858 76.8619 46.4378 76.7497 46.2947 76.7497C45.7095 76.7497 44.1035 76.8619 43.12 76.8619C42.7465 76.8619 42.6033 76.7871 42.6033 76.5688C42.6033 76.4566 42.8212 76.3506 43.039 76.3506C43.3005 76.3506 43.5557 76.3506 43.8483 76.2757C44.4708 76.1697 44.6886 75.7644 44.7945 74.8851C44.9812 73.5694 44.9439 70.5699 44.9439 67.8261V62.3384V62.3322ZM47.7575 64.9326C47.7575 65.1197 47.7949 65.3068 47.9443 65.3691C48.4111 65.631 49.874 65.8493 51.1874 65.8493C51.9531 65.8493 52.8682 65.8119 53.6338 65.3005C54.7294 64.6083 55.4639 62.9932 55.4639 60.6547C55.4639 56.6638 53.3475 54.4687 50.0919 54.4687C49.183 54.4687 48.4111 54.5435 47.9754 54.6558C47.9083 54.6799 47.8508 54.7251 47.8116 54.7847C47.7723 54.8443 47.7533 54.915 47.7575 54.9863V64.9326Z" fill="#040348"/>
<path d="M71.8975 67.9321C71.7108 67.9321 71.605 68.0443 71.5303 68.2252L69.9242 72.8024C69.5632 73.825 69.3017 74.8103 69.3017 75.3965C69.3017 76.0575 69.7064 76.3506 70.5094 76.3506H70.7646C71.0945 76.3506 71.2003 76.4628 71.2003 76.6063C71.2003 76.7933 70.914 76.8619 70.6588 76.8619C69.8495 76.8619 68.1688 76.7559 67.7704 76.7559C67.4032 76.7559 65.7971 76.8619 64.2658 76.8619C63.8612 76.8619 63.6807 76.7871 63.6807 76.6125C63.6807 76.4628 63.8238 76.3506 64.1164 76.3506C64.3032 76.3506 64.6268 76.3506 64.8509 76.3132C66.4196 76.1697 67.0421 74.96 67.6584 73.4259L74.9664 54.1382C75.3648 53.0781 75.4768 52.8973 75.7321 52.8973C75.9188 52.8973 76.062 53.0407 76.4604 54.0696C76.977 55.2732 81.9383 68.0443 83.8805 72.6215C85.0819 75.5087 86.1401 75.9889 86.6505 76.1698C87.1299 76.3568 87.6403 76.3568 87.8955 76.3568C88.1507 76.3568 88.3313 76.4192 88.3313 76.6063C88.3313 76.7933 88.1881 76.8619 87.7835 76.8619C87.4224 76.8619 84.6835 76.8619 82.2309 76.7871C81.5399 76.7559 81.322 76.7185 81.322 76.5377C81.322 76.4254 81.4278 76.3132 81.571 76.2758C81.7204 76.2072 81.9445 76.0263 81.7204 75.4713L78.8383 68.1129C78.7636 68.0069 78.6889 67.9383 78.5457 67.9383H71.8975V67.9321ZM78.11 66.6537C78.2532 66.6537 78.2532 66.5477 78.2158 66.4355L75.3337 58.3475C75.1469 57.8361 75.1158 57.8361 74.9291 58.3475L72.1901 66.4355C72.1216 66.5789 72.1901 66.6537 72.2648 66.6537H78.11ZM87.7897 56.3333C87.0552 54.6184 86.7999 54.1756 85.4865 53.9636C84.976 53.8826 84.5777 53.8451 84.3909 53.8451C84.0983 53.8451 83.9552 53.7391 83.9552 53.5957C83.9552 53.4086 84.2042 53.3338 84.5403 53.3338C86.221 53.3338 88.3375 53.446 88.7048 53.446C89.0285 53.446 90.7465 53.3338 92.0973 53.3338C92.5331 53.3338 92.6825 53.4086 92.6825 53.5583C92.6825 53.7391 92.5393 53.8514 92.1347 53.8514C91.6242 53.8514 91.2943 53.92 91.0017 54.0322C90.6718 54.2193 90.6718 54.4313 90.6718 54.6558C90.6718 54.9052 90.8959 55.6037 91.257 56.4829L97.6873 72.6527C99.5112 68.5931 103.713 57.9796 104.373 55.7845C104.553 55.3106 104.659 54.8366 104.659 54.581C104.659 54.3627 104.628 54.107 104.335 53.9948C103.955 53.8861 103.56 53.8378 103.165 53.8514C102.91 53.8514 102.692 53.7765 102.692 53.6269C102.692 53.446 102.798 53.3338 103.24 53.3338C104.547 53.3338 106.303 53.446 106.707 53.446C106.85 53.446 108.313 53.34 109.228 53.34C109.589 53.34 109.776 53.4086 109.776 53.5583C109.776 53.7454 109.627 53.8514 109.371 53.8514C108.936 53.8514 108.463 53.8514 107.803 54.2131C107.398 54.5061 106.962 54.9489 106.085 57.0691C105.898 57.5056 104.08 61.7149 102.431 65.4876C101.142 68.5859 99.793 71.6588 98.3845 74.7043C97.3885 76.7185 97.2827 77.261 96.9154 77.261C96.4797 77.261 96.2929 76.8245 95.6766 75.2157L87.7897 56.3333ZM114.414 62.3322C114.414 57.543 114.414 56.6638 114.345 55.6785C114.27 54.6558 114.015 54.1382 112.957 53.92C112.667 53.8739 112.373 53.8489 112.079 53.8451C111.824 53.8451 111.606 53.7391 111.606 53.6269C111.606 53.4086 111.787 53.3338 112.154 53.3338C112.882 53.3338 113.866 53.4086 115.914 53.446C116.101 53.446 122.599 53.446 123.328 53.4086C123.809 53.4139 124.289 53.351 124.753 53.2215C124.971 53.1529 125.002 53.1155 125.152 53.1155C125.226 53.1155 125.301 53.1904 125.301 53.3712C125.301 53.5895 125.083 54.1008 125.008 55.0175L124.896 56.9194C124.896 57.25 124.828 57.4682 124.647 57.4682C124.461 57.4682 124.386 57.3248 124.386 57.0691C124.37 56.667 124.286 56.2705 124.137 55.8968C123.913 55.1672 123.583 54.9052 121.759 54.7992C121.286 54.7618 117.669 54.7244 117.588 54.7244C117.482 54.7244 117.414 54.7992 117.414 55.0175V63.33C117.414 63.5482 117.451 63.6979 117.632 63.6979C118.068 63.6979 121.796 63.6605 122.562 63.5857C123.402 63.5482 123.95 63.4422 124.243 63.0369C124.386 62.8186 124.492 62.7438 124.641 62.7438C124.716 62.7438 124.79 62.7812 124.79 62.9621C124.79 63.1491 124.641 63.8413 124.535 64.9014C124.423 65.9241 124.423 66.66 124.386 67.1339C124.349 67.427 124.28 67.5392 124.137 67.5392C123.95 67.5392 123.913 67.3147 123.913 67.0591C123.913 66.8408 123.875 66.4729 123.807 66.186C123.658 65.7059 123.433 65.1945 122.052 65.0823C121.211 65.0137 118.254 64.9388 117.669 64.9388C117.451 64.9388 117.414 65.0511 117.414 65.1945V67.8635C117.414 68.9984 117.377 72.2224 117.414 72.8398C117.489 74.193 117.663 74.8914 118.435 75.2219C118.983 75.4713 119.86 75.5524 121.099 75.5524C121.796 75.5524 122.967 75.5836 123.875 75.3279C124.971 74.9974 125.226 74.2678 125.519 72.9146C125.594 72.5467 125.706 72.4033 125.849 72.4033C126.067 72.4033 126.067 72.7338 126.067 72.952C126.067 73.2077 125.774 75.5087 125.668 76.1323C125.519 76.8682 125.264 76.943 124.062 76.943C121.647 76.943 120.626 76.8682 119.35 76.8682C118.068 76.8308 116.387 76.7559 115.036 76.7559C114.196 76.7559 113.505 76.8682 112.627 76.8682C112.297 76.8682 112.117 76.7933 112.117 76.6125C112.117 76.4628 112.26 76.3568 112.447 76.3568C112.664 76.3568 112.92 76.3194 113.175 76.2446C113.835 76.1012 114.27 75.621 114.345 73.3573C114.382 72.1102 114.42 70.6135 114.42 67.8323V62.3447L114.414 62.3322ZM136.444 67.9009C136.444 72.1039 136.587 74.2304 137.209 74.8103C137.794 75.3279 138.523 75.5462 141.044 75.5462C142.65 75.5462 144.113 75.5462 144.916 74.5235C145.277 73.9747 145.538 73.2389 145.607 72.6901C145.644 72.397 145.719 72.2536 145.899 72.2536C146.049 72.2536 146.123 72.3596 146.123 72.7275C146.123 73.0954 145.899 75.1782 145.687 76.0201C145.463 76.7559 145.501 76.9368 143.745 76.9368C141.262 76.9368 138.523 76.7497 134.869 76.7497C133.667 76.7497 132.939 76.8619 131.657 76.8619C131.289 76.8619 131.071 76.7871 131.071 76.5689C131.071 76.4628 131.183 76.3506 131.476 76.3506C131.769 76.3506 132.061 76.3506 132.348 76.2758C132.97 76.1698 133.194 75.4339 133.3 74.5609C133.518 73.1703 133.449 70.6447 133.449 67.8261V62.3385C133.449 57.5056 133.449 56.7012 133.375 55.7159C133.3 54.6932 133.157 54.0322 131.912 53.8888C131.694 53.8514 131.289 53.8514 131.003 53.8514C130.748 53.8514 130.598 53.7391 130.598 53.5957C130.598 53.4086 130.785 53.34 131.146 53.34C132.677 53.34 134.875 53.446 134.943 53.446C135.454 53.446 137.682 53.34 138.709 53.34C139.07 53.34 139.182 53.446 139.182 53.5895C139.182 53.7391 138.996 53.8514 138.778 53.8514C138.529 53.8514 138.155 53.8888 137.794 53.92C136.773 54.0696 136.549 54.6558 136.481 55.7159C136.406 56.7012 136.444 57.5056 136.444 62.3385V67.9009ZM159.463 62.3322C159.463 57.543 159.463 56.6326 159.395 55.6411C159.32 54.6558 159.065 54.1445 157.963 53.92C157.677 53.8826 157.166 53.8514 157.091 53.8514C156.762 53.8514 156.618 53.7391 156.618 53.5895C156.618 53.4086 156.836 53.34 157.166 53.34C158.698 53.34 160.889 53.446 160.963 53.446C161.835 53.446 163.042 53.3338 164.468 53.3338C169.946 53.3338 171.041 56.3707 171.041 57.9484C171.041 60.6548 169.51 62.3759 167.979 63.5794C170.425 64.3153 173.563 66.5477 173.563 70.1271C173.563 73.532 170.824 76.9368 165.271 76.9368C164.686 76.9368 163.964 76.8619 163.005 76.8619C162.325 76.8122 161.645 76.7769 160.963 76.7559C159.83 76.7559 158.878 76.8619 157.677 76.8619C157.347 76.8619 157.166 76.7871 157.166 76.6437C157.166 76.5314 157.204 76.3506 157.677 76.3506C157.932 76.3506 158.044 76.3506 158.33 76.2758C158.953 76.1698 159.171 75.4027 159.283 74.5235C159.469 73.1703 159.469 70.6821 159.469 67.8261V62.3385L159.463 62.3322ZM162.314 62.9995C162.314 63.2489 162.389 63.2863 162.501 63.3612C162.719 63.3986 163.123 63.4734 164.325 63.4734C166.186 63.4734 166.734 63.3612 167.425 62.5941C168.075 61.7588 168.412 60.7217 168.377 59.6633C168.377 57.1439 167.244 54.3253 164.144 54.3253C163.852 54.3253 163.086 54.4001 162.756 54.5124C162.426 54.5747 162.32 54.6558 162.32 54.8367V62.9995H162.314ZM162.314 66.1424C162.314 68.4497 162.314 72.4718 162.352 72.7649C162.464 74.3738 162.426 74.8477 163.522 75.3217C164.393 75.7644 165.856 75.8018 166.223 75.8018C167.792 75.8018 170.531 75.0348 170.531 71.6674C170.531 69.7966 169.877 66.9842 167.394 65.3068C166.648 64.824 165.79 64.5446 164.904 64.4961C164.281 64.4213 163.005 64.4213 162.495 64.4961C162.389 64.4961 162.308 64.5335 162.308 64.7144V66.1424H162.314ZM184.263 68.8862C184.263 67.1277 184.014 66.4729 183.46 65.5188C183.242 65.1197 179.003 58.204 177.876 56.6326C176.887 55.242 176.526 54.7992 176.009 54.4001C175.51 54.0414 174.911 53.8494 174.297 53.8514C174.073 53.8514 173.892 53.7391 173.892 53.5583C173.892 53.446 174.036 53.3338 174.328 53.3338C174.913 53.3338 177.69 53.446 177.764 53.446C177.982 53.446 179.19 53.3338 180.541 53.3338C180.908 53.3338 181.014 53.446 181.014 53.5583C181.014 53.7017 180.908 53.7765 180.615 53.8514C180.105 53.9574 180.03 54.1382 180.03 54.4313C180.03 54.7992 180.248 55.1672 180.503 55.6411C180.976 56.5578 185.794 64.309 186.349 65.2257C186.934 63.9473 191.017 57.25 191.534 56.3333C192.231 55.1297 192.374 54.7992 192.374 54.4001C192.374 53.92 191.938 53.92 191.534 53.8451C191.241 53.814 191.129 53.7017 191.129 53.552C191.129 53.446 191.204 53.3338 191.565 53.3338C192.449 53.3338 193.215 53.446 193.8 53.446C194.273 53.446 196.389 53.3338 197.012 53.3338C197.342 53.3338 197.448 53.446 197.448 53.552C197.448 53.7391 197.267 53.8451 197.012 53.8451C196.246 53.8826 195.698 53.9574 195.188 54.3253C194.64 54.687 194.422 55.0175 193.837 55.8219C191.721 58.7528 188.172 64.7144 187.625 65.9927C187.189 67.1277 187.264 67.9321 187.264 68.8862V71.5552C187.264 71.8108 187.264 73.164 187.332 74.486C187.407 75.3591 187.481 75.9827 188.614 76.2009C189.087 76.3132 189.71 76.3506 189.965 76.3506C190.258 76.3506 190.364 76.4566 190.364 76.5689C190.364 76.7559 190.258 76.8619 189.928 76.8619C188.098 76.8619 185.838 76.7497 185.726 76.7497C185.651 76.7497 183.46 76.8619 182.439 76.8619C182.072 76.8619 181.929 76.7497 181.929 76.5689C181.929 76.4566 182.035 76.3506 182.296 76.3506C182.582 76.3506 182.919 76.3132 183.205 76.2383C183.827 76.1323 184.076 75.3653 184.157 74.486C184.263 73.164 184.263 71.8483 184.263 71.5552V68.8862ZM207.955 62.3322C207.955 57.5056 207.955 56.6326 207.88 55.6411C207.812 54.6558 207.557 54.107 206.424 53.8826C206.133 53.8383 205.84 53.8154 205.546 53.814C205.291 53.814 205.141 53.7391 205.141 53.5895C205.141 53.446 205.254 53.34 205.577 53.34C207.152 53.34 209.381 53.446 209.455 53.446C209.779 53.446 212.263 53.34 213.29 53.34C215.332 53.34 217.56 53.5209 219.278 54.7244C219.965 55.2465 220.521 55.922 220.901 56.6971C221.282 57.4722 221.476 58.3256 221.469 59.1893C221.469 61.2035 220.486 63.7665 217.598 66.1112C220.262 69.3975 222.453 72.1039 224.32 74.0433C226.07 75.8392 227.165 76.1323 228.192 76.2758C228.569 76.3145 228.947 76.3395 229.325 76.3506C229.618 76.3506 229.724 76.4566 229.724 76.6063C229.724 76.7933 229.58 76.8619 229.064 76.8619H226.512C224.794 76.8619 223.99 76.7497 223.187 76.4254C221.65 75.7644 220.554 74.1181 218.656 71.6674C217.23 69.9089 215.774 67.9321 215.151 67.1651C215.008 67.0216 214.933 66.9468 214.715 66.9468L210.949 66.9094C210.806 66.9094 210.763 66.9468 210.763 67.0965V67.6078C210.763 70.5325 210.763 73.2015 210.949 74.5172C211.061 75.3965 211.173 76.1323 212.381 76.2758C212.742 76.3132 213.14 76.3506 213.439 76.3506C213.763 76.3506 213.912 76.4566 213.912 76.5689C213.912 76.7559 213.763 76.8619 213.396 76.8619C211.497 76.8619 209.455 76.7497 209.306 76.7497C208.721 76.7497 207.115 76.8619 206.131 76.8619C205.764 76.8619 205.621 76.7871 205.621 76.5689C205.621 76.4566 205.839 76.3506 206.057 76.3506C206.312 76.3506 206.567 76.3506 206.866 76.2758C207.482 76.1698 207.7 75.7644 207.812 74.8852C207.999 73.5694 207.955 70.5699 207.955 67.8261V62.3385V62.3322ZM210.769 64.9326C210.769 65.1197 210.806 65.3068 210.956 65.3691C211.422 65.631 212.885 65.8493 214.199 65.8493C214.971 65.8493 215.879 65.8119 216.651 65.3005C217.741 64.6083 218.475 62.9932 218.475 60.6548C218.475 56.6638 216.359 54.4687 213.103 54.4687C212.194 54.4687 211.422 54.5436 210.987 54.6558C210.92 54.6799 210.862 54.7252 210.823 54.7847C210.784 54.8443 210.765 54.915 210.769 54.9863V64.9326Z" fill="#040348"/>
<path d="M231.629 62.3322C231.629 57.543 231.629 56.6638 231.554 55.6785C231.48 54.6558 231.224 54.1382 230.166 53.92C229.878 53.8743 229.587 53.8493 229.295 53.8451C229.033 53.8451 228.815 53.7391 228.815 53.6269C228.815 53.4086 229.002 53.3338 229.363 53.3338C230.092 53.3338 231.075 53.4086 233.123 53.446C233.31 53.446 239.809 53.446 240.537 53.4086C241.019 53.4139 241.498 53.351 241.962 53.2215C242.18 53.1529 242.218 53.1155 242.367 53.1155C242.436 53.1155 242.51 53.1904 242.51 53.3712C242.51 53.5895 242.292 54.1008 242.218 55.0175L242.106 56.9194C242.106 57.25 242.037 57.4682 241.857 57.4682C241.67 57.4682 241.595 57.3248 241.595 57.0691C241.58 56.6669 241.496 56.2704 241.346 55.8968C241.122 55.1672 240.792 54.9052 238.968 54.7992C238.495 54.7618 234.878 54.7244 234.804 54.7244C234.692 54.7244 234.617 54.7992 234.617 55.0175V63.33C234.617 63.5482 234.661 63.6979 234.841 63.6979C235.277 63.6979 239.006 63.6605 239.771 63.5857C240.612 63.5482 241.159 63.4422 241.452 63.0369C241.595 62.8186 241.701 62.7438 241.85 62.7438C241.925 62.7438 242 62.7812 242 62.9621C242 63.1491 241.85 63.8413 241.745 64.9014C241.633 65.9241 241.632 66.66 241.595 67.1339C241.558 67.427 241.489 67.5392 241.346 67.5392C241.159 67.5392 241.122 67.3147 241.122 67.0591C241.122 66.8408 241.085 66.4729 241.01 66.186C240.867 65.7059 240.649 65.1945 239.261 65.0823C238.42 65.0137 235.464 64.9388 234.878 64.9388C234.654 64.9388 234.623 65.0511 234.623 65.1945V67.8635C234.623 68.9984 234.586 72.2224 234.623 72.8398C234.692 74.193 234.872 74.8914 235.644 75.2219C236.192 75.4713 237.07 75.5524 238.308 75.5524C239.006 75.5524 240.176 75.5836 241.085 75.3279C242.18 74.9974 242.436 74.2678 242.728 72.9146C242.803 72.5467 242.915 72.4033 243.058 72.4033C243.276 72.4033 243.276 72.7338 243.276 72.952C243.276 73.2077 242.983 75.5087 242.871 76.1323C242.728 76.8682 242.473 76.943 241.265 76.943C238.856 76.943 237.835 76.8682 236.553 76.8682C235.277 76.8308 233.596 76.7559 232.245 76.7559C231.405 76.7559 230.714 76.8682 229.836 76.8682C229.506 76.8682 229.326 76.7933 229.326 76.6125C229.326 76.4628 229.469 76.3568 229.65 76.3568C229.874 76.3568 230.129 76.3194 230.384 76.2446C231.038 76.1012 231.48 75.621 231.548 73.3573C231.586 72.1102 231.623 70.6135 231.623 67.8323V62.3447L231.629 62.3322ZM251.673 73.9311C248.573 71.2309 247.77 67.6452 247.77 64.6083C247.77 62.5505 248.579 58.9337 251.462 56.1524C253.435 54.2505 256.392 52.8973 261.284 52.8973C262.965 52.8973 264.316 53.0407 266.109 53.3026C267.273 53.4835 268.443 53.6643 269.321 53.7017C269.613 53.7017 269.651 53.8888 269.651 54.0696C269.651 54.3627 269.539 54.6932 269.464 55.8593C269.427 56.882 269.427 58.7902 269.396 59.2267C269.358 59.7381 269.283 59.9189 269.103 59.9189C268.842 59.9189 268.81 59.7007 268.81 59.2267C268.81 58.1666 268.294 56.7386 267.379 56.0464C266.289 55.0923 263.731 54.1756 260.917 54.1756C256.871 54.1756 255.004 55.3106 253.908 56.2959C251.53 58.4597 250.982 61.0975 250.982 64.3153C250.982 70.389 255.912 75.727 262.343 75.727C264.833 75.727 266.65 75.4776 267.933 74.2304C268.583 73.4886 269.001 72.5711 269.134 71.5926C269.209 71.2247 269.321 71.0438 269.539 71.0438C269.725 71.0438 269.725 71.2995 269.725 71.5552C269.725 71.8483 269.246 74.8103 268.991 75.6148C268.773 76.2009 268.661 76.3132 268.151 76.5314C266.874 77.0802 264.428 77.261 262.38 77.261C257.556 77.261 254.269 76.1698 251.673 73.9373V73.9311Z" fill="#040348"/>
<path d="M57.4749 84.264L53.0739 94.148H52.358L47.957 84.264H48.7476L52.7378 93.2188L56.7217 84.264H57.4687H57.4749ZM59.2739 93.7239C58.7194 93.4097 58.2626 92.9478 57.9542 92.3894C57.6297 91.7999 57.4645 91.1357 57.4749 90.4625C57.4749 89.7516 57.6367 89.1093 57.9542 88.5356C58.2626 87.9772 58.7194 87.5153 59.2739 87.2011C59.8341 86.8831 60.4566 86.721 61.1538 86.721C61.851 86.721 62.4735 86.8831 63.0337 87.2011C63.594 87.5254 64.0297 87.9681 64.3534 88.5356C64.6709 89.1093 64.8327 89.7516 64.8327 90.4688C64.8421 91.1398 64.6769 91.8017 64.3534 92.3894C64.045 92.9478 63.5882 93.4097 63.0337 93.7239C62.4735 94.0482 61.851 94.2041 61.1538 94.2041C60.4958 94.2133 59.8472 94.0476 59.2739 93.7239ZM62.6665 93.1751C63.1128 92.9132 63.4789 92.5336 63.7247 92.0776C63.9861 91.6037 64.1106 91.0674 64.1106 90.4625C64.1106 89.8639 63.9861 89.3276 63.7247 88.8537C63.4762 88.3905 63.1044 88.0053 62.6505 87.7411C62.1967 87.4769 61.6786 87.344 61.1538 87.357C60.6291 87.344 60.111 87.4769 59.6571 87.7411C59.2032 88.0053 58.8314 88.3905 58.5829 88.8537C58.3191 89.3481 58.1863 89.902 58.197 90.4625C58.197 91.0674 58.3215 91.6037 58.5829 92.0776C58.8309 92.5413 59.2026 92.9268 59.6566 93.1911C60.1105 93.4554 60.6289 93.588 61.1538 93.5742C61.7141 93.5742 62.2245 93.4371 62.6665 93.1751ZM70.6655 93.6865C70.4912 93.8549 70.2671 93.9858 69.9994 94.0731C69.7317 94.1604 69.4516 94.2041 69.159 94.2041C68.5179 94.2041 68.0261 94.0295 67.6775 93.674C67.4977 93.4757 67.3594 93.2433 67.2707 92.9905C67.1819 92.7378 67.1446 92.4698 67.1608 92.2023V87.3882H65.8038V86.7771H67.1608V85.1682H67.8643V86.7771H70.2048V87.3882H67.8643V92.1275C67.8643 92.6077 67.9763 92.9756 68.2066 93.225C68.4369 93.4745 68.7793 93.5992 69.2337 93.5992C69.6944 93.5992 70.0741 93.462 70.3729 93.1876L70.6655 93.6865ZM74.3568 87.1512C74.89 86.8511 75.4947 86.7023 76.106 86.721V87.4132L75.9379 87.4007C75.1225 87.4007 74.4813 87.6564 74.0207 88.1677C73.5324 88.7692 73.2879 89.5328 73.3359 90.3066V94.148H72.6263V86.7771H73.3048V88.3922C73.5128 87.8738 73.8844 87.438 74.363 87.1512H74.3568ZM84.1984 90.6371H77.8677C77.8863 91.2108 78.0357 91.7159 78.3034 92.1649C78.5694 92.6081 78.953 92.9686 79.4114 93.2063C79.8783 93.4495 80.4074 93.568 80.9863 93.568C81.4431 93.5744 81.8964 93.4874 82.3185 93.3123C82.7231 93.1377 83.0655 92.8758 83.3394 92.5391L83.7502 93.0068C83.4254 93.3973 83.0111 93.7033 82.5426 93.8985C82.057 94.1043 81.5341 94.2103 80.9739 94.2103C80.2393 94.2103 79.5857 94.0482 79.013 93.7301C78.4404 93.4121 77.9859 92.9631 77.6622 92.4019C77.332 91.8121 77.1644 91.1449 77.1767 90.4688C77.1767 89.7516 77.3323 89.1093 77.6373 88.5356C77.9292 87.9785 78.3705 87.514 78.9116 87.1945C79.4527 86.875 80.0721 86.7132 80.7 86.7272C81.3248 86.7129 81.9412 86.8734 82.48 87.1906C83.0189 87.5079 83.4587 87.9693 83.7502 88.5232C84.0614 89.0844 84.2108 89.7204 84.2108 90.4376L84.1984 90.6371ZM79.3056 87.6875C78.8948 87.9183 78.5586 88.2488 78.3096 88.6666C78.0606 89.0844 77.9237 89.5583 77.8863 90.0821H83.5199C83.5018 89.5846 83.3583 89.0998 83.1028 88.6728C82.8534 88.2615 82.5011 87.9225 82.0808 87.6895C81.6604 87.4566 81.1866 87.3377 80.7062 87.3446C80.1833 87.3446 79.7227 87.463 79.3056 87.6875ZM91.8052 93.5742C91.0409 93.1547 90.4059 92.5336 89.9689 91.7783C89.5193 90.9979 89.2891 90.11 89.3028 89.2091C89.2891 88.3082 89.5193 87.4203 89.9689 86.6399C90.4066 85.8852 91.0415 85.2643 91.8052 84.8439C92.6059 84.4047 93.5068 84.1812 94.4197 84.1954C95.1293 84.1954 95.7891 84.3077 96.393 84.5384C96.9906 84.7754 97.5072 85.1121 97.9243 85.5673L97.4761 86.0288C97.0758 85.6391 96.6007 85.3349 96.0796 85.1345C95.5586 84.934 95.0023 84.8416 94.4446 84.8627C93.6167 84.8627 92.8697 85.0497 92.1912 85.4239C91.5272 85.7872 90.9758 86.3265 90.5976 86.9829C90.2082 87.6593 90.0082 88.4284 90.0187 89.2091C90.0187 90.026 90.2116 90.7681 90.5976 91.4353C90.9758 92.0917 91.5272 92.631 92.1912 92.9943C92.8697 93.3685 93.6229 93.5555 94.4446 93.5555C95.6646 93.5555 96.6793 93.1627 97.4761 92.3707L97.9243 92.8384C97.496 93.2935 96.9703 93.6453 96.3867 93.8673C95.7767 94.1043 95.1231 94.2228 94.4197 94.2228C93.5064 94.2342 92.6057 94.0087 91.8052 93.568V93.5742ZM100.769 93.7239C100.215 93.4097 99.7578 92.9478 99.4494 92.3894C99.1249 91.7999 98.9596 91.1357 98.9701 90.4625C98.9701 89.7516 99.1319 89.1093 99.4494 88.5356C99.7578 87.9772 100.215 87.5153 100.769 87.2011C101.329 86.8831 101.952 86.721 102.649 86.721C103.346 86.721 103.975 86.8831 104.529 87.2011C105.089 87.5254 105.525 87.9681 105.849 88.5356C106.166 89.1093 106.328 89.7516 106.328 90.4688C106.328 91.1797 106.166 91.822 105.849 92.3894C105.531 92.9569 105.089 93.4059 104.529 93.7239C103.969 94.0482 103.346 94.2041 102.649 94.2041C101.991 94.2133 101.342 94.0476 100.769 93.7239ZM104.162 93.1751C104.608 92.9132 104.974 92.5336 105.22 92.0776C105.481 91.6037 105.612 91.0674 105.612 90.4625C105.612 89.8639 105.481 89.3276 105.22 88.8537C104.971 88.3905 104.6 88.0053 104.146 87.7411C103.692 87.4769 103.174 87.344 102.649 87.357C102.124 87.344 101.606 87.4769 101.152 87.7411C100.698 88.0053 100.327 88.3905 100.078 88.8537C99.8122 89.3475 99.6771 89.9015 99.6859 90.4625C99.6859 91.0674 99.8167 91.6037 100.078 92.0776C100.326 92.5413 100.698 92.9268 101.152 93.1911C101.606 93.4554 102.124 93.588 102.649 93.5742C103.209 93.5742 103.72 93.4371 104.162 93.1751ZM114.29 87.5254C114.825 88.0617 115.099 88.8349 115.099 89.8452V94.148H114.389V89.9013C114.389 89.0719 114.177 88.4421 113.767 88.0056C113.534 87.7809 113.257 87.6072 112.954 87.4956C112.651 87.3839 112.327 87.3367 112.005 87.357C111.14 87.357 110.461 87.6189 109.963 88.1365C109.465 88.6541 109.216 89.3463 109.216 90.2256V94.1542H108.513V86.7771H109.191V88.3735C109.438 87.8628 109.833 87.4388 110.324 87.1575C110.822 86.8706 111.42 86.721 112.105 86.721C113.026 86.721 113.754 86.9891 114.29 87.5316V87.5254ZM118.834 85.7045V86.7771H121.187V87.3882H118.846V94.148H118.143V87.3882H116.786V86.7771H118.143V85.6546C118.143 85.031 118.317 84.5322 118.678 84.1642C118.878 83.9742 119.115 83.8274 119.374 83.733C119.634 83.6386 119.909 83.5986 120.185 83.6155C120.465 83.6155 120.739 83.6591 120.994 83.7402C121.255 83.815 121.467 83.9397 121.635 84.0956L121.355 84.6319C121.039 84.3547 120.629 84.2096 120.209 84.2266C119.288 84.2266 118.827 84.7192 118.827 85.7045H118.834ZM123.49 93.7239C122.935 93.4097 122.479 92.9478 122.17 92.3894C121.846 91.7999 121.681 91.1357 121.691 90.4625C121.691 89.7516 121.853 89.1093 122.17 88.5356C122.479 87.9772 122.935 87.5153 123.49 87.2011C124.05 86.8831 124.673 86.721 125.37 86.721C126.067 86.721 126.696 86.8831 127.25 87.2011C127.81 87.5254 128.246 87.9681 128.569 88.5356C128.887 89.1093 129.049 89.7516 129.049 90.4688C129.058 91.1398 128.893 91.8017 128.569 92.3894C128.252 92.9631 127.81 93.4059 127.25 93.7239C126.69 94.0419 126.067 94.2041 125.37 94.2041C124.673 94.2041 124.044 94.0482 123.49 93.7239ZM126.883 93.1751C127.329 92.9132 127.695 92.5336 127.941 92.0776C128.202 91.6037 128.333 91.0674 128.333 90.4625C128.333 89.8639 128.202 89.3276 127.941 88.8537C127.692 88.3905 127.32 88.0053 126.867 87.7411C126.413 87.4769 125.895 87.344 125.37 87.357C124.845 87.344 124.327 87.4769 123.873 87.7411C123.419 88.0053 123.047 88.3905 122.799 88.8537C122.533 89.3475 122.398 89.9015 122.407 90.4625C122.407 91.0674 122.538 91.6037 122.799 92.0776C123.047 92.5413 123.419 92.9268 123.873 93.1911C124.327 93.4554 124.845 93.588 125.37 93.5742C125.93 93.5742 126.441 93.4371 126.883 93.1751ZM132.964 87.1512C133.497 86.8511 134.102 86.7023 134.713 86.721V87.4132L134.545 87.4007C133.73 87.4007 133.089 87.6564 132.628 88.1677C132.14 88.7692 131.895 89.5328 131.943 90.3066V94.148H131.234V86.7771H131.912V88.3922C132.12 87.8738 132.492 87.438 132.97 87.1512H132.964ZM140.646 93.6865C140.471 93.8549 140.247 93.9858 139.98 94.0731C139.712 94.1604 139.432 94.2041 139.139 94.2041C138.498 94.2041 138.006 94.0295 137.658 93.674C137.478 93.4757 137.34 93.2433 137.251 92.9905C137.162 92.7378 137.125 92.4698 137.141 92.2023V87.3882H135.784V86.7771H137.141V85.1682H137.845V86.7771H140.185V87.3882H137.845V92.1275C137.845 92.6077 137.957 92.9756 138.187 93.225C138.417 93.4745 138.76 93.5992 139.214 93.5992C139.675 93.5992 140.054 93.462 140.353 93.1876L140.646 93.6865ZM154.49 84.264V94.148H153.899L147.176 85.5673V94.148H146.454V84.264H147.064L153.774 92.8509V84.264H154.49ZM158.698 93.7239C158.143 93.4097 157.687 92.9478 157.378 92.3894C157.054 91.7999 156.889 91.1357 156.899 90.4625C156.899 89.7516 157.061 89.1093 157.378 88.5356C157.687 87.9772 158.143 87.5153 158.698 87.2011C159.258 86.8831 159.881 86.721 160.578 86.721C161.275 86.721 161.904 86.8831 162.458 87.2011C163.018 87.5254 163.454 87.9681 163.777 88.5356C164.095 89.1093 164.257 89.7516 164.257 90.4688C164.266 91.1398 164.101 91.8017 163.777 92.3894C163.469 92.9478 163.012 93.4097 162.458 93.7239C161.898 94.0482 161.275 94.2041 160.578 94.2041C159.881 94.2041 159.258 94.0482 158.698 93.7239ZM162.091 93.1751C162.537 92.913 162.903 92.5334 163.149 92.0776C163.41 91.6037 163.541 91.0674 163.541 90.4625C163.541 89.8639 163.41 89.3276 163.149 88.8537C162.9 88.3905 162.528 88.0053 162.075 87.7411C161.621 87.4769 161.103 87.344 160.578 87.357C160.053 87.344 159.535 87.4769 159.081 87.7411C158.627 88.0053 158.255 88.3905 158.007 88.8537C157.743 89.3482 157.611 89.902 157.621 90.4625C157.621 91.0674 157.746 91.6037 158.007 92.0776C158.255 92.5413 158.627 92.9268 159.081 93.1911C159.535 93.4554 160.053 93.588 160.578 93.5742C161.138 93.5742 161.649 93.4371 162.097 93.1751H162.091ZM170.096 93.6865C169.909 93.8549 169.691 93.9858 169.423 94.0731C169.156 94.1604 168.876 94.2041 168.583 94.2041C167.948 94.2041 167.45 94.0295 167.108 93.674C166.927 93.4762 166.787 93.244 166.698 92.9912C166.608 92.7384 166.569 92.4702 166.585 92.2023V87.3882H165.228V86.7771H166.585V85.1682H167.288V86.7771H169.629V87.3882H167.288V92.1275C167.288 92.6077 167.4 92.9756 167.631 93.225C167.861 93.4745 168.203 93.5992 168.658 93.5992C169.118 93.5992 169.498 93.462 169.797 93.1876L170.096 93.6865ZM173.787 87.1512C174.266 86.8644 174.845 86.721 175.53 86.721V87.4132L175.362 87.4007C174.547 87.4007 173.905 87.6564 173.445 88.1677C172.956 88.7692 172.712 89.5328 172.76 90.3066V94.148H172.05V86.7771H172.729V88.3922C172.953 87.8559 173.308 87.4381 173.787 87.1512ZM183.622 90.6371H177.298C177.317 91.2108 177.46 91.7159 177.734 92.1649C178 92.6081 178.383 92.9686 178.842 93.2063C179.302 93.4495 179.825 93.568 180.41 93.568C180.89 93.568 181.332 93.4869 181.743 93.3123C182.153 93.1377 182.49 92.8758 182.763 92.5391L183.174 93.0068C182.85 93.3975 182.435 93.7035 181.967 93.8985C181.481 94.1043 180.958 94.2103 180.398 94.2103C179.714 94.2227 179.038 94.0572 178.437 93.7301C177.875 93.4203 177.41 92.9605 177.093 92.4019C176.762 91.8121 176.595 91.1449 176.607 90.4688C176.607 89.7516 176.756 89.1093 177.061 88.5356C177.354 87.978 177.797 87.5133 178.339 87.1938C178.881 86.8743 179.501 86.7127 180.13 86.7272C180.755 86.7129 181.372 86.8734 181.91 87.1906C182.449 87.5079 182.889 87.9693 183.18 88.5232C183.485 89.0844 183.641 89.7204 183.641 90.4376L183.622 90.6371ZM178.73 87.6875C178.319 87.9183 177.983 88.2488 177.734 88.6666C177.485 89.0844 177.348 89.5583 177.31 90.0821H182.95C182.929 89.5842 182.784 89.0995 182.527 88.6728C182.277 88.2615 181.925 87.9225 181.505 87.6895C181.084 87.4566 180.611 87.3377 180.13 87.3446C179.614 87.3446 179.147 87.463 178.73 87.6875ZM196.128 85.1495C196.48 85.4493 196.759 85.8263 196.943 86.2513C197.126 86.6762 197.21 87.1378 197.186 87.6002C197.209 88.0598 197.125 88.5183 196.941 88.9401C196.757 89.3619 196.479 89.7356 196.128 90.0322C195.425 90.6247 194.448 90.9177 193.209 90.9177H190.389V94.148H189.673V84.264H193.209C194.454 84.264 195.425 84.5571 196.128 85.1495ZM195.618 89.577C196.178 89.1156 196.452 88.4545 196.452 87.6002C196.452 86.7397 196.172 86.0787 195.618 85.6172C195.064 85.1495 194.261 84.9188 193.209 84.9188H190.389V90.2692H193.209C194.267 90.2692 195.064 90.0385 195.618 89.577ZM200.89 87.1512C201.37 86.8644 201.949 86.721 202.633 86.721V87.4132L202.471 87.4007C201.65 87.4007 201.015 87.6564 200.554 88.1677C200.064 88.7683 199.817 89.532 199.863 90.3066V94.148H199.16V86.7771H199.832V88.3922C200.056 87.8559 200.411 87.4381 200.89 87.1512ZM204.526 84.8252C204.47 84.7736 204.427 84.7107 204.398 84.6408C204.369 84.5709 204.355 84.4956 204.358 84.4199C204.357 84.3445 204.372 84.2697 204.4 84.2001C204.429 84.1305 204.472 84.0674 204.526 84.0146C204.579 83.9588 204.642 83.9145 204.713 83.8845C204.784 83.8545 204.86 83.8393 204.936 83.84C205.011 83.8385 205.086 83.8522 205.155 83.88C205.225 83.9079 205.288 83.9494 205.341 84.0021C205.459 84.1143 205.515 84.2515 205.515 84.4074C205.515 84.5696 205.453 84.7068 205.341 84.819C205.289 84.8732 205.226 84.916 205.156 84.945C205.087 84.9739 205.012 84.9883 204.936 84.9874C204.861 84.9889 204.785 84.9754 204.715 84.9476C204.644 84.9197 204.58 84.8782 204.526 84.8252ZM204.588 86.7771H205.285V94.148H204.582V86.7771H204.588ZM209.257 93.7239C208.696 93.4121 208.261 92.9631 207.937 92.3894C207.613 91.8157 207.458 91.1797 207.458 90.4625C207.458 89.7516 207.619 89.1093 207.937 88.5356C208.245 87.9772 208.702 87.5153 209.257 87.2011C209.817 86.8831 210.439 86.721 211.136 86.721C211.834 86.721 212.462 86.8831 213.016 87.2011C213.577 87.5254 214.012 87.9681 214.336 88.5356C214.654 89.1093 214.815 89.7516 214.815 90.4688C214.825 91.1398 214.66 91.8017 214.336 92.3894C214.028 92.9478 213.571 93.4097 213.016 93.7239C212.456 94.0482 211.834 94.2041 211.136 94.2041C210.439 94.2041 209.817 94.0482 209.257 93.7239ZM212.655 93.1751C213.102 92.913 213.468 92.5334 213.714 92.0776C213.969 91.6037 214.1 91.0674 214.1 90.4625C214.1 89.8639 213.969 89.3276 213.714 88.8537C213.465 88.3895 213.092 88.0037 212.637 87.7395C212.182 87.4752 211.662 87.3428 211.136 87.357C210.612 87.344 210.094 87.4769 209.64 87.7411C209.186 88.0053 208.814 88.3905 208.566 88.8537C208.302 89.3482 208.169 89.902 208.18 90.4625C208.18 91.0674 208.304 91.6037 208.566 92.0776C208.814 92.5413 209.185 92.9268 209.639 93.1911C210.093 93.4554 210.612 93.588 211.136 93.5742C211.697 93.5742 212.207 93.4371 212.655 93.1751ZM218.737 87.1512C219.216 86.8644 219.795 86.721 220.48 86.721V87.4132L220.312 87.4007C219.497 87.4007 218.855 87.6564 218.395 88.1677C217.906 88.7692 217.662 89.5328 217.71 90.3066V94.148H217V86.7771H217.679V88.3922C217.903 87.8559 218.258 87.4381 218.737 87.1512ZM222.372 84.8252C222.317 84.7736 222.274 84.7107 222.245 84.6408C222.216 84.5709 222.202 84.4956 222.204 84.4199C222.204 84.3445 222.218 84.2697 222.247 84.2001C222.276 84.1305 222.319 84.0674 222.372 84.0146C222.425 83.9596 222.487 83.9158 222.557 83.8858C222.626 83.8557 222.701 83.8402 222.777 83.84C222.853 83.8377 222.928 83.8509 222.999 83.8788C223.07 83.9066 223.134 83.9486 223.188 84.0021C223.3 84.1143 223.356 84.2515 223.356 84.4074C223.356 84.5696 223.3 84.7068 223.188 84.819C223.135 84.8739 223.071 84.9172 223 84.9462C222.929 84.9752 222.853 84.9892 222.777 84.9874C222.626 84.9889 222.481 84.9306 222.372 84.8252ZM222.428 86.7771H223.132V94.148H222.428V86.7771ZM229.761 93.6865C229.575 93.8549 229.357 93.9858 229.089 94.0731C228.821 94.1604 228.541 94.2041 228.249 94.2041C227.608 94.2041 227.116 94.0295 226.767 93.674C226.587 93.4757 226.449 93.2433 226.36 92.9905C226.272 92.7378 226.234 92.4698 226.251 92.2023V87.3882H224.894V86.7771H226.251V85.1682H226.954V86.7771H229.295V87.3882H226.954V92.1275C226.954 92.6077 227.066 92.9756 227.296 93.225C227.527 93.4745 227.869 93.5992 228.317 93.5992C228.778 93.5992 229.164 93.462 229.463 93.1876L229.755 93.6865H229.761ZM237.667 90.6371H231.336C231.355 91.2108 231.498 91.7159 231.772 92.1649C232.038 92.6081 232.422 92.9686 232.88 93.2063C233.341 93.4495 233.87 93.568 234.449 93.568C234.928 93.568 235.376 93.4869 235.781 93.3123C236.192 93.1377 236.528 92.8758 236.808 92.5391L237.213 93.0068C236.89 93.3967 236.478 93.7026 236.011 93.8985C235.526 94.1043 235.003 94.2103 234.436 94.2103C233.752 94.2227 233.077 94.0572 232.475 93.7301C231.913 93.4203 231.448 92.9605 231.131 92.4019C230.801 91.8121 230.633 91.1449 230.645 90.4688C230.645 89.7516 230.801 89.1093 231.106 88.5356C231.398 87.979 231.84 87.5149 232.381 87.1955C232.922 86.8761 233.541 86.7139 234.169 86.7272C234.793 86.7129 235.41 86.8734 235.949 87.1906C236.487 87.5079 236.927 87.9693 237.219 88.5232C237.53 89.0844 237.679 89.7204 237.679 90.4376L237.667 90.6371ZM232.774 87.6875C232.357 87.9183 232.027 88.2488 231.778 88.6666C231.529 89.0844 231.386 89.5583 231.349 90.0821H236.988C236.968 89.5842 236.822 89.0995 236.565 88.6728C236.316 88.2615 235.964 87.9225 235.543 87.6895C235.123 87.4566 234.649 87.3377 234.169 87.3446C233.652 87.3446 233.185 87.463 232.774 87.6875ZM235.326 83.9148H236.341L234.125 85.5798H233.366L235.326 83.9148Z" fill="#040348"/>
<path d="M169.784 40.0513H277.842V41.6851H169.784V40.0513ZM7.16504 40.0513H115.223V41.6851H7.16504V40.0513Z" fill="#CD9257"/>
<path d="M7.16504 89.5833H37.4554V90.4001H7.16504V89.5833Z" fill="#CD9257"/>
<path d="M247.546 89.5833H277.836V90.4001H247.546V89.5833Z" fill="#CD9257"/>
<path d="M158.641 42.2338V40.0637C158.641 39.6709 158.33 39.3528 157.932 39.3528H128.413C128.015 39.3528 127.697 39.6709 127.697 40.0637V42.2338C126.676 42.7764 124.286 44.248 124.286 46.2248C124.286 46.6239 124.604 46.942 125.002 46.942H161.343C161.735 46.942 162.059 46.5865 162.059 46.1937C162.059 44.2418 159.662 42.7701 158.648 42.2338H158.641ZM125.923 45.5139C126.49 44.5349 128.077 43.6182 128.712 43.3251C128.961 43.2066 129.123 42.951 129.123 42.6766V40.7809H157.216V42.6766C157.216 42.9572 157.378 43.2066 157.633 43.3251C158.417 43.6868 159.874 44.591 160.415 45.5077H125.923V45.5139ZM136.281 24.6922C133.605 25.9518 131.924 27.991 131.42 30.5851C131.398 30.6586 131.392 30.7358 131.402 30.8118C131.412 30.8878 131.437 30.9609 131.477 31.0264C131.517 31.0919 131.57 31.1483 131.633 31.192C131.695 31.2358 131.767 31.2658 131.842 31.2803C131.917 31.2947 131.994 31.2932 132.069 31.2759C132.143 31.2586 132.213 31.2258 132.274 31.1797C132.336 31.1336 132.386 31.0752 132.424 31.0082C132.461 30.9413 132.484 30.8672 132.491 30.7909C133.038 27.966 135.105 26.4507 136.748 25.6774C136.863 25.6063 136.947 25.4955 136.985 25.366C137.023 25.2366 137.012 25.0977 136.954 24.9758C136.897 24.8539 136.796 24.7576 136.672 24.7053C136.548 24.653 136.409 24.6483 136.281 24.6922Z" fill="#040348"/>
<path d="M126.857 37.7315H160.036C160.201 37.7315 160.359 37.6658 160.476 37.5489C160.593 37.4319 160.658 37.2733 160.658 37.1079V33.9276C160.658 33.7622 160.593 33.6036 160.476 33.4866C160.359 33.3697 160.201 33.304 160.036 33.304H158.679C158.43 24.6548 152.049 20.9257 145.749 20.1836V18.3191H145.861C146.552 18.3191 147.213 18.0444 147.701 17.5556C148.189 17.0668 148.464 16.4038 148.464 15.7125C148.464 15.0211 148.189 14.3581 147.701 13.8693C147.213 13.3805 146.552 13.1058 145.861 13.1058H140.657C139.967 13.1058 139.306 13.3805 138.818 13.8693C138.33 14.3581 138.055 15.0211 138.055 15.7125C138.055 16.4038 138.33 17.0668 138.818 17.5556C139.306 18.0444 139.967 18.3191 140.657 18.3191H140.763V20.2023C134.14 21.0317 128.102 25.1911 127.853 33.2978H126.857C126.692 33.2978 126.533 33.3635 126.417 33.4804C126.3 33.5974 126.234 33.756 126.234 33.9214V37.1079C126.234 37.2733 126.3 37.4319 126.417 37.5489C126.533 37.6658 126.692 37.7315 126.857 37.7315ZM139.786 15.7125C139.786 15.2323 140.178 14.8394 140.657 14.8394H145.855C146.086 14.8394 146.308 14.9314 146.471 15.0951C146.635 15.2589 146.727 15.4809 146.727 15.7125C146.727 15.944 146.635 16.1661 146.471 16.3298C146.308 16.4935 146.086 16.5855 145.855 16.5855H140.657C140.426 16.5855 140.205 16.4935 140.041 16.3298C139.878 16.1661 139.786 15.944 139.786 15.7125ZM141.965 18.3191H144.554V20.0714C144.131 20.0464 143.714 20.034 143.297 20.034H143.147C142.749 20.034 142.357 20.0589 141.965 20.0838V18.3191ZM143.154 21.5119H143.297C149.54 21.5119 156.805 24.7795 157.197 33.2978H129.316C129.714 24.8481 136.941 21.5555 143.154 21.5119ZM127.479 34.545H128.506L128.562 34.5574H157.95L158.012 34.545H159.413V36.4906H127.479V34.5512V34.545Z" fill="#040348"/>
</svg>
